G04 #@! TF.GenerationSoftware,KiCad,Pcbnew,(5.1.12-1-10_14)*
G04 #@! TF.CreationDate,2021-12-20T00:17:04-08:00*
G04 #@! TF.ProjectId,24h-timer-switch,3234682d-7469-46d6-9572-2d7377697463,1*
G04 #@! TF.SameCoordinates,Original*
G04 #@! TF.FileFunction,Copper,L2,Bot*
G04 #@! TF.FilePolarity,Positive*
%FSLAX46Y46*%
G04 Gerber Fmt 4.6, Leading zero omitted, Abs format (unit mm)*
G04 Created by KiCad (PCBNEW (5.1.12-1-10_14)) date 2021-12-20 00:17:04*
%MOMM*%
%LPD*%
G01*
G04 APERTURE LIST*
G04 #@! TA.AperFunction,ComponentPad*
%ADD10O,1.600000X1.600000*%
G04 #@! TD*
G04 #@! TA.AperFunction,ComponentPad*
%ADD11C,1.600000*%
G04 #@! TD*
G04 #@! TA.AperFunction,ComponentPad*
%ADD12C,1.800000*%
G04 #@! TD*
G04 #@! TA.AperFunction,ComponentPad*
%ADD13R,1.800000X1.800000*%
G04 #@! TD*
G04 #@! TA.AperFunction,ComponentPad*
%ADD14C,2.800000*%
G04 #@! TD*
G04 #@! TA.AperFunction,ComponentPad*
%ADD15R,2.800000X2.800000*%
G04 #@! TD*
G04 #@! TA.AperFunction,ComponentPad*
%ADD16R,1.600000X1.600000*%
G04 #@! TD*
G04 #@! TA.AperFunction,ComponentPad*
%ADD17C,2.000000*%
G04 #@! TD*
G04 #@! TA.AperFunction,ComponentPad*
%ADD18R,3.500000X3.500000*%
G04 #@! TD*
G04 #@! TA.AperFunction,ViaPad*
%ADD19C,0.508000*%
G04 #@! TD*
G04 #@! TA.AperFunction,ViaPad*
%ADD20C,1.270000*%
G04 #@! TD*
G04 #@! TA.AperFunction,Conductor*
%ADD21C,1.270000*%
G04 #@! TD*
G04 #@! TA.AperFunction,Conductor*
%ADD22C,0.508000*%
G04 #@! TD*
G04 #@! TA.AperFunction,Conductor*
%ADD23C,0.254000*%
G04 #@! TD*
G04 #@! TA.AperFunction,Conductor*
%ADD24C,0.152400*%
G04 #@! TD*
G04 APERTURE END LIST*
D10*
X139014200Y-71018400D03*
D11*
X136474200Y-71018400D03*
D12*
X144170400Y-90779600D03*
D13*
X144170400Y-93319600D03*
D12*
X137388600Y-90779600D03*
D13*
X137388600Y-93319600D03*
D12*
X130581400Y-90779600D03*
D13*
X130581400Y-93319600D03*
D14*
X120269000Y-87981800D03*
D15*
X120269000Y-82981800D03*
D10*
X130810000Y-71018400D03*
D11*
X133350000Y-71018400D03*
X118389400Y-78369800D03*
D16*
X118389400Y-75869800D03*
D10*
X130187700Y-79883000D03*
X137807700Y-87503000D03*
X132727700Y-79883000D03*
X135267700Y-87503000D03*
X135267700Y-79883000D03*
X132727700Y-87503000D03*
X137807700Y-79883000D03*
D16*
X130187700Y-87503000D03*
D17*
X148460600Y-71043800D03*
X148460600Y-75543800D03*
X141960600Y-71043800D03*
X141960600Y-75543800D03*
D10*
X149275800Y-90805000D03*
D11*
X149275800Y-93345000D03*
D10*
X151257000Y-75387200D03*
D11*
X153797000Y-75387200D03*
D18*
X142519400Y-83896200D03*
G04 #@! TA.AperFunction,ComponentPad*
G36*
G01*
X150019400Y-82896200D02*
X150019400Y-84896200D01*
G75*
G02*
X149269400Y-85646200I-750000J0D01*
G01*
X147769400Y-85646200D01*
G75*
G02*
X147019400Y-84896200I0J750000D01*
G01*
X147019400Y-82896200D01*
G75*
G02*
X147769400Y-82146200I750000J0D01*
G01*
X149269400Y-82146200D01*
G75*
G02*
X150019400Y-82896200I0J-750000D01*
G01*
G37*
G04 #@! TD.AperFunction*
G04 #@! TA.AperFunction,ComponentPad*
G36*
G01*
X147269400Y-78321200D02*
X147269400Y-80071200D01*
G75*
G02*
X146394400Y-80946200I-875000J0D01*
G01*
X144644400Y-80946200D01*
G75*
G02*
X143769400Y-80071200I0J875000D01*
G01*
X143769400Y-78321200D01*
G75*
G02*
X144644400Y-77446200I875000J0D01*
G01*
X146394400Y-77446200D01*
G75*
G02*
X147269400Y-78321200I0J-875000D01*
G01*
G37*
G04 #@! TD.AperFunction*
D19*
X129921000Y-77444600D03*
X122859800Y-78917800D03*
D20*
X129971800Y-73634600D03*
X125107700Y-87744300D03*
D19*
X137134600Y-78181200D03*
X135267700Y-75476100D03*
D21*
X142519400Y-83896200D02*
X125120400Y-83896200D01*
X125120400Y-83896200D02*
X125044200Y-83972400D01*
X125044200Y-87680800D02*
X125107700Y-87744300D01*
X125044200Y-83972400D02*
X125044200Y-87680800D01*
D22*
X140035426Y-83896200D02*
X142519400Y-83896200D01*
X136550400Y-81203800D02*
X140035426Y-83896200D01*
X136550400Y-78587600D02*
X136550400Y-81203800D01*
X137134600Y-78181200D02*
X136550400Y-78587600D01*
X135267700Y-75476100D02*
X130810000Y-71018400D01*
X135267700Y-75476100D02*
X135242300Y-75476100D01*
X149098000Y-73228200D02*
X151257000Y-75387200D01*
X145592800Y-73228200D02*
X149098000Y-73228200D01*
X141270412Y-79883000D02*
X145592800Y-73228200D01*
X137807700Y-79883000D02*
X141270412Y-79883000D01*
X130187700Y-87503000D02*
X130187700Y-87744300D01*
X141960600Y-71043800D02*
X148460600Y-71043800D01*
X141960600Y-71043800D02*
X144195800Y-71043800D01*
X149453600Y-71043800D02*
X148460600Y-71043800D01*
X153797000Y-75387200D02*
X149453600Y-71043800D01*
D23*
X129695363Y-70103641D02*
X129538320Y-70338673D01*
X129430147Y-70599826D01*
X129375000Y-70877065D01*
X129375000Y-71159735D01*
X129430147Y-71436974D01*
X129538320Y-71698127D01*
X129695363Y-71933159D01*
X129895241Y-72133037D01*
X130130273Y-72290080D01*
X130391426Y-72398253D01*
X130668665Y-72453400D01*
X130951335Y-72453400D01*
X130981721Y-72447356D01*
X134491270Y-75956906D01*
X134499547Y-75972391D01*
X134610641Y-76107759D01*
X134746009Y-76218853D01*
X134900449Y-76301403D01*
X135068026Y-76352236D01*
X135162004Y-76361492D01*
X135180141Y-76365100D01*
X135224040Y-76365100D01*
X135267700Y-76369400D01*
X135311360Y-76365100D01*
X135355259Y-76365100D01*
X135398309Y-76356537D01*
X135425375Y-76353871D01*
X135441975Y-76352236D01*
X135483963Y-76339499D01*
X135527012Y-76330936D01*
X135567557Y-76314141D01*
X135609551Y-76301403D01*
X135648257Y-76280714D01*
X135688799Y-76263921D01*
X135725285Y-76239542D01*
X135763991Y-76218853D01*
X135797915Y-76191012D01*
X135834404Y-76166631D01*
X135865436Y-76135599D01*
X135899359Y-76107759D01*
X135927199Y-76073836D01*
X135958231Y-76042804D01*
X135982612Y-76006315D01*
X136010453Y-75972391D01*
X136031142Y-75933685D01*
X136055521Y-75897199D01*
X136072314Y-75856657D01*
X136093003Y-75817951D01*
X136105741Y-75775957D01*
X136122536Y-75735412D01*
X136131099Y-75692363D01*
X136143836Y-75650374D01*
X136148137Y-75606709D01*
X136148199Y-75606395D01*
X140318882Y-75606395D01*
X140362639Y-75925475D01*
X140467805Y-76229888D01*
X140560786Y-76403844D01*
X140825187Y-76499608D01*
X141780995Y-75543800D01*
X140825187Y-74587992D01*
X140560786Y-74683756D01*
X140419896Y-74973371D01*
X140338216Y-75284908D01*
X140318882Y-75606395D01*
X136148199Y-75606395D01*
X136156700Y-75563659D01*
X136156700Y-75519767D01*
X136161001Y-75476100D01*
X136156700Y-75432433D01*
X136156700Y-75388541D01*
X136148137Y-75345491D01*
X136143836Y-75301826D01*
X136131099Y-75259837D01*
X136122536Y-75216788D01*
X136105741Y-75176243D01*
X136093003Y-75134249D01*
X136072314Y-75095543D01*
X136055521Y-75055001D01*
X136031142Y-75018515D01*
X136010453Y-74979809D01*
X135982612Y-74945885D01*
X135958231Y-74909396D01*
X135927199Y-74878364D01*
X135899359Y-74844441D01*
X135865442Y-74816606D01*
X135457223Y-74408387D01*
X141004792Y-74408387D01*
X141960600Y-75364195D01*
X142916408Y-74408387D01*
X142820644Y-74143986D01*
X142531029Y-74003096D01*
X142219492Y-73921416D01*
X141898005Y-73902082D01*
X141578925Y-73945839D01*
X141274512Y-74051005D01*
X141100556Y-74143986D01*
X141004792Y-74408387D01*
X135457223Y-74408387D01*
X133500427Y-72451591D01*
X133768574Y-72398253D01*
X134029727Y-72290080D01*
X134264759Y-72133037D01*
X134464637Y-71933159D01*
X134621680Y-71698127D01*
X134729853Y-71436974D01*
X134785000Y-71159735D01*
X134785000Y-70877065D01*
X134729853Y-70599826D01*
X134621680Y-70338673D01*
X134464637Y-70103641D01*
X134382446Y-70021450D01*
X135441754Y-70021450D01*
X135359563Y-70103641D01*
X135202520Y-70338673D01*
X135094347Y-70599826D01*
X135039200Y-70877065D01*
X135039200Y-71159735D01*
X135094347Y-71436974D01*
X135202520Y-71698127D01*
X135359563Y-71933159D01*
X135559441Y-72133037D01*
X135794473Y-72290080D01*
X136055626Y-72398253D01*
X136332865Y-72453400D01*
X136615535Y-72453400D01*
X136892774Y-72398253D01*
X137153927Y-72290080D01*
X137388959Y-72133037D01*
X137588837Y-71933159D01*
X137745880Y-71698127D01*
X137750557Y-71686835D01*
X137783163Y-71755820D01*
X137950681Y-71981814D01*
X138159069Y-72170785D01*
X138400319Y-72315470D01*
X138665160Y-72410309D01*
X138887200Y-72289024D01*
X138887200Y-71145400D01*
X138867200Y-71145400D01*
X138867200Y-70891400D01*
X138887200Y-70891400D01*
X138887200Y-70871400D01*
X139141200Y-70871400D01*
X139141200Y-70891400D01*
X139161200Y-70891400D01*
X139161200Y-71145400D01*
X139141200Y-71145400D01*
X139141200Y-72289024D01*
X139363240Y-72410309D01*
X139628081Y-72315470D01*
X139869331Y-72170785D01*
X140077719Y-71981814D01*
X140245237Y-71755820D01*
X140365446Y-71501487D01*
X140377019Y-71463333D01*
X140388432Y-71520712D01*
X140511682Y-71818263D01*
X140690613Y-72086052D01*
X140918348Y-72313787D01*
X141186137Y-72492718D01*
X141483688Y-72615968D01*
X141799567Y-72678800D01*
X142121633Y-72678800D01*
X142437512Y-72615968D01*
X142735063Y-72492718D01*
X143002852Y-72313787D01*
X143230587Y-72086052D01*
X143332987Y-71932800D01*
X147088213Y-71932800D01*
X147190613Y-72086052D01*
X147418348Y-72313787D01*
X147456381Y-72339200D01*
X145630666Y-72339200D01*
X145581174Y-72334975D01*
X145499934Y-72344046D01*
X145418526Y-72352064D01*
X145412937Y-72353759D01*
X145407137Y-72354407D01*
X145329231Y-72379151D01*
X145250949Y-72402897D01*
X145245799Y-72405650D01*
X145240235Y-72407417D01*
X145168633Y-72446896D01*
X145096509Y-72485447D01*
X145091996Y-72489151D01*
X145086883Y-72491970D01*
X145024351Y-72544665D01*
X144961141Y-72596541D01*
X144957437Y-72601054D01*
X144952973Y-72604816D01*
X144901919Y-72668703D01*
X144850047Y-72731909D01*
X144826631Y-72775718D01*
X143460669Y-74878768D01*
X143453395Y-74857712D01*
X143360414Y-74683756D01*
X143096013Y-74587992D01*
X142140205Y-75543800D01*
X142154348Y-75557943D01*
X141974743Y-75737548D01*
X141960600Y-75723405D01*
X141004792Y-76679213D01*
X141100556Y-76943614D01*
X141390171Y-77084504D01*
X141701708Y-77166184D01*
X141964688Y-77181999D01*
X140787768Y-78994000D01*
X138939549Y-78994000D01*
X138922337Y-78968241D01*
X138722459Y-78768363D01*
X138487427Y-78611320D01*
X138226274Y-78503147D01*
X137983495Y-78454855D01*
X137989436Y-78440512D01*
X137999631Y-78389261D01*
X138013849Y-78339015D01*
X138016666Y-78303616D01*
X138023600Y-78268759D01*
X138023600Y-78216502D01*
X138027743Y-78164449D01*
X138023600Y-78129178D01*
X138023600Y-78093641D01*
X138013406Y-78042395D01*
X138007314Y-77990527D01*
X137996369Y-77956740D01*
X137989436Y-77921888D01*
X137969437Y-77873607D01*
X137953345Y-77823933D01*
X137936021Y-77792935D01*
X137922421Y-77760101D01*
X137893394Y-77716658D01*
X137867915Y-77671068D01*
X137844871Y-77644039D01*
X137825131Y-77614496D01*
X137788183Y-77577548D01*
X137754302Y-77537808D01*
X137726431Y-77515796D01*
X137701304Y-77490669D01*
X137657864Y-77461643D01*
X137616876Y-77429272D01*
X137585240Y-77413117D01*
X137555699Y-77393379D01*
X137507430Y-77373385D01*
X137460915Y-77349633D01*
X137426743Y-77339963D01*
X137393912Y-77326364D01*
X137342655Y-77316168D01*
X137292413Y-77301951D01*
X137257017Y-77299134D01*
X137222159Y-77292200D01*
X137169900Y-77292200D01*
X137117847Y-77288057D01*
X137082576Y-77292200D01*
X137047041Y-77292200D01*
X136995798Y-77302393D01*
X136943925Y-77308486D01*
X136910133Y-77319433D01*
X136875288Y-77326364D01*
X136827022Y-77346357D01*
X136777331Y-77362454D01*
X136746322Y-77379784D01*
X136713501Y-77393379D01*
X136670069Y-77422399D01*
X136662769Y-77426479D01*
X136633726Y-77446683D01*
X136567896Y-77490669D01*
X136561953Y-77496612D01*
X136085439Y-77828101D01*
X136054109Y-77844847D01*
X136013729Y-77877986D01*
X136006878Y-77882752D01*
X135980014Y-77905655D01*
X135918741Y-77955941D01*
X135913402Y-77962447D01*
X135907008Y-77967898D01*
X135857926Y-78030045D01*
X135807647Y-78091310D01*
X135803683Y-78098726D01*
X135798472Y-78105324D01*
X135762451Y-78175865D01*
X135725097Y-78245750D01*
X135722655Y-78253800D01*
X135718833Y-78261285D01*
X135697265Y-78337502D01*
X135674264Y-78413327D01*
X135673440Y-78421694D01*
X135671150Y-78429786D01*
X135665638Y-78499042D01*
X135409035Y-78448000D01*
X135126365Y-78448000D01*
X134849126Y-78503147D01*
X134587973Y-78611320D01*
X134352941Y-78768363D01*
X134153063Y-78968241D01*
X133997700Y-79200759D01*
X133842337Y-78968241D01*
X133642459Y-78768363D01*
X133407427Y-78611320D01*
X133146274Y-78503147D01*
X132869035Y-78448000D01*
X132586365Y-78448000D01*
X132309126Y-78503147D01*
X132047973Y-78611320D01*
X131812941Y-78768363D01*
X131613063Y-78968241D01*
X131457700Y-79200759D01*
X131302337Y-78968241D01*
X131102459Y-78768363D01*
X130867427Y-78611320D01*
X130606274Y-78503147D01*
X130329035Y-78448000D01*
X130046365Y-78448000D01*
X129769126Y-78503147D01*
X129507973Y-78611320D01*
X129272941Y-78768363D01*
X129073063Y-78968241D01*
X128916020Y-79203273D01*
X128807847Y-79464426D01*
X128752700Y-79741665D01*
X128752700Y-80024335D01*
X128807847Y-80301574D01*
X128916020Y-80562727D01*
X129073063Y-80797759D01*
X129272941Y-80997637D01*
X129507973Y-81154680D01*
X129769126Y-81262853D01*
X130046365Y-81318000D01*
X130329035Y-81318000D01*
X130606274Y-81262853D01*
X130867427Y-81154680D01*
X131102459Y-80997637D01*
X131302337Y-80797759D01*
X131457700Y-80565241D01*
X131613063Y-80797759D01*
X131812941Y-80997637D01*
X132047973Y-81154680D01*
X132309126Y-81262853D01*
X132586365Y-81318000D01*
X132869035Y-81318000D01*
X133146274Y-81262853D01*
X133407427Y-81154680D01*
X133642459Y-80997637D01*
X133842337Y-80797759D01*
X133997700Y-80565241D01*
X134153063Y-80797759D01*
X134352941Y-80997637D01*
X134587973Y-81154680D01*
X134849126Y-81262853D01*
X135126365Y-81318000D01*
X135409035Y-81318000D01*
X135662892Y-81267504D01*
X135664364Y-81317487D01*
X135671250Y-81347466D01*
X135674265Y-81378074D01*
X135690808Y-81432610D01*
X135703568Y-81488160D01*
X135716170Y-81516218D01*
X135725098Y-81545651D01*
X135751963Y-81595913D01*
X135775315Y-81647905D01*
X135793149Y-81672966D01*
X135807648Y-81700091D01*
X135843807Y-81744151D01*
X135876850Y-81790583D01*
X135899226Y-81811679D01*
X135918742Y-81835459D01*
X135962806Y-81871622D01*
X135972341Y-81880611D01*
X135996537Y-81899304D01*
X136054110Y-81946553D01*
X136065748Y-81952773D01*
X136937426Y-82626200D01*
X125182772Y-82626200D01*
X125120399Y-82620057D01*
X125058027Y-82626200D01*
X125058020Y-82626200D01*
X124871437Y-82644577D01*
X124632041Y-82717197D01*
X124411412Y-82835125D01*
X124218030Y-82993830D01*
X124183682Y-83035682D01*
X124141830Y-83070030D01*
X123983125Y-83263413D01*
X123865197Y-83484042D01*
X123843870Y-83554349D01*
X123793036Y-83721926D01*
X123792577Y-83723438D01*
X123774200Y-83910021D01*
X123774200Y-83910027D01*
X123768057Y-83972400D01*
X123774200Y-84034773D01*
X123774201Y-87618417D01*
X123768057Y-87680800D01*
X123792577Y-87929763D01*
X123865198Y-88169159D01*
X123983126Y-88389788D01*
X124141831Y-88583170D01*
X124190281Y-88622932D01*
X124298122Y-88730773D01*
X124350265Y-88765614D01*
X124398713Y-88805374D01*
X124453986Y-88834918D01*
X124506129Y-88869759D01*
X124564067Y-88893758D01*
X124619342Y-88923303D01*
X124679317Y-88941496D01*
X124737255Y-88965495D01*
X124798761Y-88977729D01*
X124858738Y-88995923D01*
X124921114Y-89002067D01*
X124982616Y-89014300D01*
X125045320Y-89014300D01*
X125107700Y-89020444D01*
X125170080Y-89014300D01*
X125232784Y-89014300D01*
X125294285Y-89002067D01*
X125356663Y-88995923D01*
X125416641Y-88977729D01*
X125478145Y-88965495D01*
X125536080Y-88941497D01*
X125596059Y-88923303D01*
X125651336Y-88893756D01*
X125709271Y-88869759D01*
X125761413Y-88834919D01*
X125816687Y-88805374D01*
X125865136Y-88765613D01*
X125917278Y-88730773D01*
X125961617Y-88686434D01*
X126010070Y-88646670D01*
X126049834Y-88598217D01*
X126094173Y-88553878D01*
X126129013Y-88501736D01*
X126168774Y-88453287D01*
X126198319Y-88398013D01*
X126233159Y-88345871D01*
X126257156Y-88287936D01*
X126286703Y-88232659D01*
X126304897Y-88172680D01*
X126328895Y-88114745D01*
X126341129Y-88053241D01*
X126359323Y-87993263D01*
X126365467Y-87930885D01*
X126377700Y-87869384D01*
X126377700Y-87806680D01*
X126383844Y-87744300D01*
X126377700Y-87681920D01*
X126377700Y-87619216D01*
X126365467Y-87557714D01*
X126359323Y-87495338D01*
X126341129Y-87435361D01*
X126328895Y-87373855D01*
X126314200Y-87338378D01*
X126314200Y-86703000D01*
X128749628Y-86703000D01*
X128749628Y-88303000D01*
X128761888Y-88427482D01*
X128798198Y-88547180D01*
X128857163Y-88657494D01*
X128936515Y-88754185D01*
X129033206Y-88833537D01*
X129143520Y-88892502D01*
X129263218Y-88928812D01*
X129387700Y-88941072D01*
X130987700Y-88941072D01*
X131112182Y-88928812D01*
X131231880Y-88892502D01*
X131342194Y-88833537D01*
X131438885Y-88754185D01*
X131518237Y-88657494D01*
X131577202Y-88547180D01*
X131613512Y-88427482D01*
X131614343Y-88419039D01*
X131812941Y-88617637D01*
X132047973Y-88774680D01*
X132309126Y-88882853D01*
X132586365Y-88938000D01*
X132869035Y-88938000D01*
X133146274Y-88882853D01*
X133407427Y-88774680D01*
X133642459Y-88617637D01*
X133842337Y-88417759D01*
X133997700Y-88185241D01*
X134153063Y-88417759D01*
X134352941Y-88617637D01*
X134587973Y-88774680D01*
X134849126Y-88882853D01*
X135126365Y-88938000D01*
X135409035Y-88938000D01*
X135686274Y-88882853D01*
X135947427Y-88774680D01*
X136182459Y-88617637D01*
X136382337Y-88417759D01*
X136539380Y-88182727D01*
X136543767Y-88172135D01*
X136655315Y-88358131D01*
X136844286Y-88566519D01*
X137070280Y-88734037D01*
X137324613Y-88854246D01*
X137458661Y-88894904D01*
X137680700Y-88772915D01*
X137680700Y-87630000D01*
X137934700Y-87630000D01*
X137934700Y-88772915D01*
X138156739Y-88894904D01*
X138290787Y-88854246D01*
X138545120Y-88734037D01*
X138771114Y-88566519D01*
X138960085Y-88358131D01*
X139104770Y-88116881D01*
X139199609Y-87852040D01*
X139078324Y-87630000D01*
X137934700Y-87630000D01*
X137680700Y-87630000D01*
X137660700Y-87630000D01*
X137660700Y-87376000D01*
X137680700Y-87376000D01*
X137680700Y-86233085D01*
X137934700Y-86233085D01*
X137934700Y-87376000D01*
X139078324Y-87376000D01*
X139199609Y-87153960D01*
X139104770Y-86889119D01*
X138960085Y-86647869D01*
X138771114Y-86439481D01*
X138545120Y-86271963D01*
X138290787Y-86151754D01*
X138156739Y-86111096D01*
X137934700Y-86233085D01*
X137680700Y-86233085D01*
X137458661Y-86111096D01*
X137324613Y-86151754D01*
X137070280Y-86271963D01*
X136844286Y-86439481D01*
X136655315Y-86647869D01*
X136543767Y-86833865D01*
X136539380Y-86823273D01*
X136382337Y-86588241D01*
X136182459Y-86388363D01*
X135947427Y-86231320D01*
X135686274Y-86123147D01*
X135409035Y-86068000D01*
X135126365Y-86068000D01*
X134849126Y-86123147D01*
X134587973Y-86231320D01*
X134352941Y-86388363D01*
X134153063Y-86588241D01*
X133997700Y-86820759D01*
X133842337Y-86588241D01*
X133642459Y-86388363D01*
X133407427Y-86231320D01*
X133146274Y-86123147D01*
X132869035Y-86068000D01*
X132586365Y-86068000D01*
X132309126Y-86123147D01*
X132047973Y-86231320D01*
X131812941Y-86388363D01*
X131614343Y-86586961D01*
X131613512Y-86578518D01*
X131577202Y-86458820D01*
X131518237Y-86348506D01*
X131438885Y-86251815D01*
X131342194Y-86172463D01*
X131231880Y-86113498D01*
X131112182Y-86077188D01*
X130987700Y-86064928D01*
X129387700Y-86064928D01*
X129263218Y-86077188D01*
X129143520Y-86113498D01*
X129033206Y-86172463D01*
X128936515Y-86251815D01*
X128857163Y-86348506D01*
X128798198Y-86458820D01*
X128761888Y-86578518D01*
X128749628Y-86703000D01*
X126314200Y-86703000D01*
X126314200Y-85166200D01*
X140131328Y-85166200D01*
X140131328Y-85646200D01*
X140143588Y-85770682D01*
X140179898Y-85890380D01*
X140238863Y-86000694D01*
X140318215Y-86097385D01*
X140414906Y-86176737D01*
X140525220Y-86235702D01*
X140644918Y-86272012D01*
X140769400Y-86284272D01*
X144269400Y-86284272D01*
X144393882Y-86272012D01*
X144513580Y-86235702D01*
X144623894Y-86176737D01*
X144720585Y-86097385D01*
X144799937Y-86000694D01*
X144858902Y-85890380D01*
X144895212Y-85770682D01*
X144907472Y-85646200D01*
X144907472Y-82896200D01*
X146381328Y-82896200D01*
X146381328Y-84896200D01*
X146407999Y-85166999D01*
X146486989Y-85427392D01*
X146615260Y-85667371D01*
X146787885Y-85877715D01*
X146998229Y-86050340D01*
X147238208Y-86178611D01*
X147498601Y-86257601D01*
X147769400Y-86284272D01*
X149269400Y-86284272D01*
X149540199Y-86257601D01*
X149800592Y-86178611D01*
X150040571Y-86050340D01*
X150250915Y-85877715D01*
X150423540Y-85667371D01*
X150551811Y-85427392D01*
X150630801Y-85166999D01*
X150657472Y-84896200D01*
X150657472Y-82896200D01*
X150630801Y-82625401D01*
X150551811Y-82365008D01*
X150423540Y-82125029D01*
X150250915Y-81914685D01*
X150040571Y-81742060D01*
X149800592Y-81613789D01*
X149540199Y-81534799D01*
X149269400Y-81508128D01*
X147769400Y-81508128D01*
X147498601Y-81534799D01*
X147238208Y-81613789D01*
X146998229Y-81742060D01*
X146787885Y-81914685D01*
X146615260Y-82125029D01*
X146486989Y-82365008D01*
X146407999Y-82625401D01*
X146381328Y-82896200D01*
X144907472Y-82896200D01*
X144907472Y-82146200D01*
X144895212Y-82021718D01*
X144858902Y-81902020D01*
X144799937Y-81791706D01*
X144720585Y-81695015D01*
X144623894Y-81615663D01*
X144547269Y-81574706D01*
X144644400Y-81584272D01*
X146394400Y-81584272D01*
X146689586Y-81555199D01*
X146973428Y-81469096D01*
X147235018Y-81329273D01*
X147464303Y-81141103D01*
X147652473Y-80911818D01*
X147792296Y-80650228D01*
X147878399Y-80366386D01*
X147907472Y-80071200D01*
X147907472Y-78321200D01*
X147878399Y-78026014D01*
X147792296Y-77742172D01*
X147652473Y-77480582D01*
X147464303Y-77251297D01*
X147235018Y-77063127D01*
X146973428Y-76923304D01*
X146689586Y-76837201D01*
X146394400Y-76808128D01*
X144644400Y-76808128D01*
X144349214Y-76837201D01*
X144298839Y-76852482D01*
X144411379Y-76679213D01*
X147504792Y-76679213D01*
X147600556Y-76943614D01*
X147890171Y-77084504D01*
X148201708Y-77166184D01*
X148523195Y-77185518D01*
X148842275Y-77141761D01*
X149146688Y-77036595D01*
X149320644Y-76943614D01*
X149416408Y-76679213D01*
X148460600Y-75723405D01*
X147504792Y-76679213D01*
X144411379Y-76679213D01*
X145108190Y-75606395D01*
X146818882Y-75606395D01*
X146862639Y-75925475D01*
X146967805Y-76229888D01*
X147060786Y-76403844D01*
X147325187Y-76499608D01*
X148280995Y-75543800D01*
X147325187Y-74587992D01*
X147060786Y-74683756D01*
X146919896Y-74973371D01*
X146838216Y-75284908D01*
X146818882Y-75606395D01*
X145108190Y-75606395D01*
X146075444Y-74117200D01*
X147650669Y-74117200D01*
X147600556Y-74143986D01*
X147504792Y-74408387D01*
X148460600Y-75364195D01*
X148474743Y-75350053D01*
X148654348Y-75529658D01*
X148640205Y-75543800D01*
X149596013Y-76499608D01*
X149860414Y-76403844D01*
X150001304Y-76114229D01*
X150005706Y-76097438D01*
X150142363Y-76301959D01*
X150342241Y-76501837D01*
X150577273Y-76658880D01*
X150838426Y-76767053D01*
X151115665Y-76822200D01*
X151398335Y-76822200D01*
X151675574Y-76767053D01*
X151936727Y-76658880D01*
X152171759Y-76501837D01*
X152371637Y-76301959D01*
X152527000Y-76069441D01*
X152682363Y-76301959D01*
X152882241Y-76501837D01*
X153117273Y-76658880D01*
X153378426Y-76767053D01*
X153655665Y-76822200D01*
X153938335Y-76822200D01*
X154215574Y-76767053D01*
X154476727Y-76658880D01*
X154711759Y-76501837D01*
X154911637Y-76301959D01*
X155068680Y-76066927D01*
X155176853Y-75805774D01*
X155232000Y-75528535D01*
X155232000Y-75245865D01*
X155176853Y-74968626D01*
X155068680Y-74707473D01*
X154911637Y-74472441D01*
X154711759Y-74272563D01*
X154476727Y-74115520D01*
X154215574Y-74007347D01*
X153938335Y-73952200D01*
X153655665Y-73952200D01*
X153625280Y-73958244D01*
X150113099Y-70446064D01*
X150085259Y-70412141D01*
X149949891Y-70301047D01*
X149914907Y-70282348D01*
X149909518Y-70269337D01*
X149743885Y-70021450D01*
X155597350Y-70021450D01*
X155597351Y-95595950D01*
X116223432Y-95595950D01*
X116220432Y-92419600D01*
X129043328Y-92419600D01*
X129043328Y-94219600D01*
X129055588Y-94344082D01*
X129091898Y-94463780D01*
X129150863Y-94574094D01*
X129230215Y-94670785D01*
X129326906Y-94750137D01*
X129437220Y-94809102D01*
X129556918Y-94845412D01*
X129681400Y-94857672D01*
X131481400Y-94857672D01*
X131605882Y-94845412D01*
X131725580Y-94809102D01*
X131835894Y-94750137D01*
X131932585Y-94670785D01*
X132011937Y-94574094D01*
X132070902Y-94463780D01*
X132107212Y-94344082D01*
X132119472Y-94219600D01*
X132119472Y-92419600D01*
X135850528Y-92419600D01*
X135850528Y-94219600D01*
X135862788Y-94344082D01*
X135899098Y-94463780D01*
X135958063Y-94574094D01*
X136037415Y-94670785D01*
X136134106Y-94750137D01*
X136244420Y-94809102D01*
X136364118Y-94845412D01*
X136488600Y-94857672D01*
X138288600Y-94857672D01*
X138413082Y-94845412D01*
X138532780Y-94809102D01*
X138643094Y-94750137D01*
X138739785Y-94670785D01*
X138819137Y-94574094D01*
X138878102Y-94463780D01*
X138914412Y-94344082D01*
X138926672Y-94219600D01*
X138926672Y-92419600D01*
X142632328Y-92419600D01*
X142632328Y-94219600D01*
X142644588Y-94344082D01*
X142680898Y-94463780D01*
X142739863Y-94574094D01*
X142819215Y-94670785D01*
X142915906Y-94750137D01*
X143026220Y-94809102D01*
X143145918Y-94845412D01*
X143270400Y-94857672D01*
X145070400Y-94857672D01*
X145194882Y-94845412D01*
X145314580Y-94809102D01*
X145424894Y-94750137D01*
X145521585Y-94670785D01*
X145600937Y-94574094D01*
X145659902Y-94463780D01*
X145696212Y-94344082D01*
X145708472Y-94219600D01*
X145708472Y-93203665D01*
X147840800Y-93203665D01*
X147840800Y-93486335D01*
X147895947Y-93763574D01*
X148004120Y-94024727D01*
X148161163Y-94259759D01*
X148361041Y-94459637D01*
X148596073Y-94616680D01*
X148857226Y-94724853D01*
X149134465Y-94780000D01*
X149417135Y-94780000D01*
X149694374Y-94724853D01*
X149955527Y-94616680D01*
X150190559Y-94459637D01*
X150390437Y-94259759D01*
X150547480Y-94024727D01*
X150655653Y-93763574D01*
X150710800Y-93486335D01*
X150710800Y-93203665D01*
X150655653Y-92926426D01*
X150547480Y-92665273D01*
X150390437Y-92430241D01*
X150190559Y-92230363D01*
X149955527Y-92073320D01*
X149944235Y-92068643D01*
X150013220Y-92036037D01*
X150239214Y-91868519D01*
X150428185Y-91660131D01*
X150572870Y-91418881D01*
X150667709Y-91154040D01*
X150546424Y-90932000D01*
X149402800Y-90932000D01*
X149402800Y-90952000D01*
X149148800Y-90952000D01*
X149148800Y-90932000D01*
X148005176Y-90932000D01*
X147883891Y-91154040D01*
X147978730Y-91418881D01*
X148123415Y-91660131D01*
X148312386Y-91868519D01*
X148538380Y-92036037D01*
X148607365Y-92068643D01*
X148596073Y-92073320D01*
X148361041Y-92230363D01*
X148161163Y-92430241D01*
X148004120Y-92665273D01*
X147895947Y-92926426D01*
X147840800Y-93203665D01*
X145708472Y-93203665D01*
X145708472Y-92419600D01*
X145696212Y-92295118D01*
X145659902Y-92175420D01*
X145600937Y-92065106D01*
X145521585Y-91968415D01*
X145424894Y-91889063D01*
X145314580Y-91830098D01*
X145296273Y-91824544D01*
X145362712Y-91758105D01*
X145530699Y-91506695D01*
X145646411Y-91227343D01*
X145705400Y-90930784D01*
X145705400Y-90628416D01*
X145671097Y-90455960D01*
X147883891Y-90455960D01*
X148005176Y-90678000D01*
X149148800Y-90678000D01*
X149148800Y-89535085D01*
X149402800Y-89535085D01*
X149402800Y-90678000D01*
X150546424Y-90678000D01*
X150667709Y-90455960D01*
X150572870Y-90191119D01*
X150428185Y-89949869D01*
X150239214Y-89741481D01*
X150013220Y-89573963D01*
X149758887Y-89453754D01*
X149624839Y-89413096D01*
X149402800Y-89535085D01*
X149148800Y-89535085D01*
X148926761Y-89413096D01*
X148792713Y-89453754D01*
X148538380Y-89573963D01*
X148312386Y-89741481D01*
X148123415Y-89949869D01*
X147978730Y-90191119D01*
X147883891Y-90455960D01*
X145671097Y-90455960D01*
X145646411Y-90331857D01*
X145530699Y-90052505D01*
X145362712Y-89801095D01*
X145148905Y-89587288D01*
X144897495Y-89419301D01*
X144618143Y-89303589D01*
X144321584Y-89244600D01*
X144019216Y-89244600D01*
X143722657Y-89303589D01*
X143443305Y-89419301D01*
X143191895Y-89587288D01*
X142978088Y-89801095D01*
X142810101Y-90052505D01*
X142694389Y-90331857D01*
X142635400Y-90628416D01*
X142635400Y-90930784D01*
X142694389Y-91227343D01*
X142810101Y-91506695D01*
X142978088Y-91758105D01*
X143044527Y-91824544D01*
X143026220Y-91830098D01*
X142915906Y-91889063D01*
X142819215Y-91968415D01*
X142739863Y-92065106D01*
X142680898Y-92175420D01*
X142644588Y-92295118D01*
X142632328Y-92419600D01*
X138926672Y-92419600D01*
X138914412Y-92295118D01*
X138878102Y-92175420D01*
X138819137Y-92065106D01*
X138739785Y-91968415D01*
X138643094Y-91889063D01*
X138532780Y-91830098D01*
X138514473Y-91824544D01*
X138580912Y-91758105D01*
X138748899Y-91506695D01*
X138864611Y-91227343D01*
X138923600Y-90930784D01*
X138923600Y-90628416D01*
X138864611Y-90331857D01*
X138748899Y-90052505D01*
X138580912Y-89801095D01*
X138367105Y-89587288D01*
X138115695Y-89419301D01*
X137836343Y-89303589D01*
X137539784Y-89244600D01*
X137237416Y-89244600D01*
X136940857Y-89303589D01*
X136661505Y-89419301D01*
X136410095Y-89587288D01*
X136196288Y-89801095D01*
X136028301Y-90052505D01*
X135912589Y-90331857D01*
X135853600Y-90628416D01*
X135853600Y-90930784D01*
X135912589Y-91227343D01*
X136028301Y-91506695D01*
X136196288Y-91758105D01*
X136262727Y-91824544D01*
X136244420Y-91830098D01*
X136134106Y-91889063D01*
X136037415Y-91968415D01*
X135958063Y-92065106D01*
X135899098Y-92175420D01*
X135862788Y-92295118D01*
X135850528Y-92419600D01*
X132119472Y-92419600D01*
X132107212Y-92295118D01*
X132070902Y-92175420D01*
X132011937Y-92065106D01*
X131932585Y-91968415D01*
X131835894Y-91889063D01*
X131725580Y-91830098D01*
X131707273Y-91824544D01*
X131773712Y-91758105D01*
X131941699Y-91506695D01*
X132057411Y-91227343D01*
X132116400Y-90930784D01*
X132116400Y-90628416D01*
X132057411Y-90331857D01*
X131941699Y-90052505D01*
X131773712Y-89801095D01*
X131559905Y-89587288D01*
X131308495Y-89419301D01*
X131029143Y-89303589D01*
X130732584Y-89244600D01*
X130430216Y-89244600D01*
X130133657Y-89303589D01*
X129854305Y-89419301D01*
X129602895Y-89587288D01*
X129389088Y-89801095D01*
X129221101Y-90052505D01*
X129105389Y-90331857D01*
X129046400Y-90628416D01*
X129046400Y-90930784D01*
X129105389Y-91227343D01*
X129221101Y-91506695D01*
X129389088Y-91758105D01*
X129455527Y-91824544D01*
X129437220Y-91830098D01*
X129326906Y-91889063D01*
X129230215Y-91968415D01*
X129150863Y-92065106D01*
X129091898Y-92175420D01*
X129055588Y-92295118D01*
X129043328Y-92419600D01*
X116220432Y-92419600D01*
X116216050Y-87781370D01*
X118234000Y-87781370D01*
X118234000Y-88182230D01*
X118312204Y-88575387D01*
X118465607Y-88945734D01*
X118688313Y-89279037D01*
X118971763Y-89562487D01*
X119305066Y-89785193D01*
X119675413Y-89938596D01*
X120068570Y-90016800D01*
X120469430Y-90016800D01*
X120862587Y-89938596D01*
X121232934Y-89785193D01*
X121566237Y-89562487D01*
X121849687Y-89279037D01*
X122072393Y-88945734D01*
X122225796Y-88575387D01*
X122304000Y-88182230D01*
X122304000Y-87781370D01*
X122225796Y-87388213D01*
X122072393Y-87017866D01*
X121849687Y-86684563D01*
X121566237Y-86401113D01*
X121232934Y-86178407D01*
X120862587Y-86025004D01*
X120469430Y-85946800D01*
X120068570Y-85946800D01*
X119675413Y-86025004D01*
X119305066Y-86178407D01*
X118971763Y-86401113D01*
X118688313Y-86684563D01*
X118465607Y-87017866D01*
X118312204Y-87388213D01*
X118234000Y-87781370D01*
X116216050Y-87781370D01*
X116212838Y-84381800D01*
X118230928Y-84381800D01*
X118243188Y-84506282D01*
X118279498Y-84625980D01*
X118338463Y-84736294D01*
X118417815Y-84832985D01*
X118514506Y-84912337D01*
X118624820Y-84971302D01*
X118744518Y-85007612D01*
X118869000Y-85019872D01*
X119983250Y-85016800D01*
X120142000Y-84858050D01*
X120142000Y-83108800D01*
X120396000Y-83108800D01*
X120396000Y-84858050D01*
X120554750Y-85016800D01*
X121669000Y-85019872D01*
X121793482Y-85007612D01*
X121913180Y-84971302D01*
X122023494Y-84912337D01*
X122120185Y-84832985D01*
X122199537Y-84736294D01*
X122258502Y-84625980D01*
X122294812Y-84506282D01*
X122307072Y-84381800D01*
X122304000Y-83267550D01*
X122145250Y-83108800D01*
X120396000Y-83108800D01*
X120142000Y-83108800D01*
X118392750Y-83108800D01*
X118234000Y-83267550D01*
X118230928Y-84381800D01*
X116212838Y-84381800D01*
X116210193Y-81581800D01*
X118230928Y-81581800D01*
X118234000Y-82696050D01*
X118392750Y-82854800D01*
X120142000Y-82854800D01*
X120142000Y-81105550D01*
X120396000Y-81105550D01*
X120396000Y-82854800D01*
X122145250Y-82854800D01*
X122304000Y-82696050D01*
X122307072Y-81581800D01*
X122294812Y-81457318D01*
X122258502Y-81337620D01*
X122199537Y-81227306D01*
X122120185Y-81130615D01*
X122023494Y-81051263D01*
X121913180Y-80992298D01*
X121793482Y-80955988D01*
X121669000Y-80943728D01*
X120554750Y-80946800D01*
X120396000Y-81105550D01*
X120142000Y-81105550D01*
X119983250Y-80946800D01*
X118869000Y-80943728D01*
X118744518Y-80955988D01*
X118624820Y-80992298D01*
X118514506Y-81051263D01*
X118417815Y-81130615D01*
X118338463Y-81227306D01*
X118279498Y-81337620D01*
X118243188Y-81457318D01*
X118230928Y-81581800D01*
X116210193Y-81581800D01*
X116208095Y-79362502D01*
X117576303Y-79362502D01*
X117647886Y-79606471D01*
X117903396Y-79727371D01*
X118177584Y-79796100D01*
X118459912Y-79810017D01*
X118739530Y-79768587D01*
X119005692Y-79673403D01*
X119130914Y-79606471D01*
X119202497Y-79362502D01*
X118389400Y-78549405D01*
X117576303Y-79362502D01*
X116208095Y-79362502D01*
X116207223Y-78440312D01*
X116949183Y-78440312D01*
X116990613Y-78719930D01*
X117085797Y-78986092D01*
X117152729Y-79111314D01*
X117396698Y-79182897D01*
X118209795Y-78369800D01*
X118569005Y-78369800D01*
X119382102Y-79182897D01*
X119626071Y-79111314D01*
X119746971Y-78855804D01*
X119815700Y-78581616D01*
X119829617Y-78299288D01*
X119788187Y-78019670D01*
X119693003Y-77753508D01*
X119626071Y-77628286D01*
X119382102Y-77556703D01*
X118569005Y-78369800D01*
X118209795Y-78369800D01*
X117396698Y-77556703D01*
X117152729Y-77628286D01*
X117031829Y-77883796D01*
X116963100Y-78157984D01*
X116949183Y-78440312D01*
X116207223Y-78440312D01*
X116204039Y-75069800D01*
X116951328Y-75069800D01*
X116951328Y-76669800D01*
X116963588Y-76794282D01*
X116999898Y-76913980D01*
X117058863Y-77024294D01*
X117138215Y-77120985D01*
X117234906Y-77200337D01*
X117345220Y-77259302D01*
X117464918Y-77295612D01*
X117589400Y-77307872D01*
X117596615Y-77307872D01*
X117576303Y-77377098D01*
X118389400Y-78190195D01*
X119202497Y-77377098D01*
X119182185Y-77307872D01*
X119189400Y-77307872D01*
X119313882Y-77295612D01*
X119433580Y-77259302D01*
X119543894Y-77200337D01*
X119640585Y-77120985D01*
X119719937Y-77024294D01*
X119778902Y-76913980D01*
X119815212Y-76794282D01*
X119827472Y-76669800D01*
X119827472Y-75069800D01*
X119815212Y-74945318D01*
X119778902Y-74825620D01*
X119719937Y-74715306D01*
X119640585Y-74618615D01*
X119543894Y-74539263D01*
X119433580Y-74480298D01*
X119313882Y-74443988D01*
X119189400Y-74431728D01*
X117589400Y-74431728D01*
X117464918Y-74443988D01*
X117345220Y-74480298D01*
X117234906Y-74539263D01*
X117138215Y-74618615D01*
X117058863Y-74715306D01*
X116999898Y-74825620D01*
X116963588Y-74945318D01*
X116951328Y-75069800D01*
X116204039Y-75069800D01*
X116199268Y-70021450D01*
X129777554Y-70021450D01*
X129695363Y-70103641D01*
G04 #@! TA.AperFunction,Conductor*
D24*
G36*
X129695363Y-70103641D02*
G01*
X129538320Y-70338673D01*
X129430147Y-70599826D01*
X129375000Y-70877065D01*
X129375000Y-71159735D01*
X129430147Y-71436974D01*
X129538320Y-71698127D01*
X129695363Y-71933159D01*
X129895241Y-72133037D01*
X130130273Y-72290080D01*
X130391426Y-72398253D01*
X130668665Y-72453400D01*
X130951335Y-72453400D01*
X130981721Y-72447356D01*
X134491270Y-75956906D01*
X134499547Y-75972391D01*
X134610641Y-76107759D01*
X134746009Y-76218853D01*
X134900449Y-76301403D01*
X135068026Y-76352236D01*
X135162004Y-76361492D01*
X135180141Y-76365100D01*
X135224040Y-76365100D01*
X135267700Y-76369400D01*
X135311360Y-76365100D01*
X135355259Y-76365100D01*
X135398309Y-76356537D01*
X135425375Y-76353871D01*
X135441975Y-76352236D01*
X135483963Y-76339499D01*
X135527012Y-76330936D01*
X135567557Y-76314141D01*
X135609551Y-76301403D01*
X135648257Y-76280714D01*
X135688799Y-76263921D01*
X135725285Y-76239542D01*
X135763991Y-76218853D01*
X135797915Y-76191012D01*
X135834404Y-76166631D01*
X135865436Y-76135599D01*
X135899359Y-76107759D01*
X135927199Y-76073836D01*
X135958231Y-76042804D01*
X135982612Y-76006315D01*
X136010453Y-75972391D01*
X136031142Y-75933685D01*
X136055521Y-75897199D01*
X136072314Y-75856657D01*
X136093003Y-75817951D01*
X136105741Y-75775957D01*
X136122536Y-75735412D01*
X136131099Y-75692363D01*
X136143836Y-75650374D01*
X136148137Y-75606709D01*
X136148199Y-75606395D01*
X140318882Y-75606395D01*
X140362639Y-75925475D01*
X140467805Y-76229888D01*
X140560786Y-76403844D01*
X140825187Y-76499608D01*
X141780995Y-75543800D01*
X140825187Y-74587992D01*
X140560786Y-74683756D01*
X140419896Y-74973371D01*
X140338216Y-75284908D01*
X140318882Y-75606395D01*
X136148199Y-75606395D01*
X136156700Y-75563659D01*
X136156700Y-75519767D01*
X136161001Y-75476100D01*
X136156700Y-75432433D01*
X136156700Y-75388541D01*
X136148137Y-75345491D01*
X136143836Y-75301826D01*
X136131099Y-75259837D01*
X136122536Y-75216788D01*
X136105741Y-75176243D01*
X136093003Y-75134249D01*
X136072314Y-75095543D01*
X136055521Y-75055001D01*
X136031142Y-75018515D01*
X136010453Y-74979809D01*
X135982612Y-74945885D01*
X135958231Y-74909396D01*
X135927199Y-74878364D01*
X135899359Y-74844441D01*
X135865442Y-74816606D01*
X135457223Y-74408387D01*
X141004792Y-74408387D01*
X141960600Y-75364195D01*
X142916408Y-74408387D01*
X142820644Y-74143986D01*
X142531029Y-74003096D01*
X142219492Y-73921416D01*
X141898005Y-73902082D01*
X141578925Y-73945839D01*
X141274512Y-74051005D01*
X141100556Y-74143986D01*
X141004792Y-74408387D01*
X135457223Y-74408387D01*
X133500427Y-72451591D01*
X133768574Y-72398253D01*
X134029727Y-72290080D01*
X134264759Y-72133037D01*
X134464637Y-71933159D01*
X134621680Y-71698127D01*
X134729853Y-71436974D01*
X134785000Y-71159735D01*
X134785000Y-70877065D01*
X134729853Y-70599826D01*
X134621680Y-70338673D01*
X134464637Y-70103641D01*
X134382446Y-70021450D01*
X135441754Y-70021450D01*
X135359563Y-70103641D01*
X135202520Y-70338673D01*
X135094347Y-70599826D01*
X135039200Y-70877065D01*
X135039200Y-71159735D01*
X135094347Y-71436974D01*
X135202520Y-71698127D01*
X135359563Y-71933159D01*
X135559441Y-72133037D01*
X135794473Y-72290080D01*
X136055626Y-72398253D01*
X136332865Y-72453400D01*
X136615535Y-72453400D01*
X136892774Y-72398253D01*
X137153927Y-72290080D01*
X137388959Y-72133037D01*
X137588837Y-71933159D01*
X137745880Y-71698127D01*
X137750557Y-71686835D01*
X137783163Y-71755820D01*
X137950681Y-71981814D01*
X138159069Y-72170785D01*
X138400319Y-72315470D01*
X138665160Y-72410309D01*
X138887200Y-72289024D01*
X138887200Y-71145400D01*
X138867200Y-71145400D01*
X138867200Y-70891400D01*
X138887200Y-70891400D01*
X138887200Y-70871400D01*
X139141200Y-70871400D01*
X139141200Y-70891400D01*
X139161200Y-70891400D01*
X139161200Y-71145400D01*
X139141200Y-71145400D01*
X139141200Y-72289024D01*
X139363240Y-72410309D01*
X139628081Y-72315470D01*
X139869331Y-72170785D01*
X140077719Y-71981814D01*
X140245237Y-71755820D01*
X140365446Y-71501487D01*
X140377019Y-71463333D01*
X140388432Y-71520712D01*
X140511682Y-71818263D01*
X140690613Y-72086052D01*
X140918348Y-72313787D01*
X141186137Y-72492718D01*
X141483688Y-72615968D01*
X141799567Y-72678800D01*
X142121633Y-72678800D01*
X142437512Y-72615968D01*
X142735063Y-72492718D01*
X143002852Y-72313787D01*
X143230587Y-72086052D01*
X143332987Y-71932800D01*
X147088213Y-71932800D01*
X147190613Y-72086052D01*
X147418348Y-72313787D01*
X147456381Y-72339200D01*
X145630666Y-72339200D01*
X145581174Y-72334975D01*
X145499934Y-72344046D01*
X145418526Y-72352064D01*
X145412937Y-72353759D01*
X145407137Y-72354407D01*
X145329231Y-72379151D01*
X145250949Y-72402897D01*
X145245799Y-72405650D01*
X145240235Y-72407417D01*
X145168633Y-72446896D01*
X145096509Y-72485447D01*
X145091996Y-72489151D01*
X145086883Y-72491970D01*
X145024351Y-72544665D01*
X144961141Y-72596541D01*
X144957437Y-72601054D01*
X144952973Y-72604816D01*
X144901919Y-72668703D01*
X144850047Y-72731909D01*
X144826631Y-72775718D01*
X143460669Y-74878768D01*
X143453395Y-74857712D01*
X143360414Y-74683756D01*
X143096013Y-74587992D01*
X142140205Y-75543800D01*
X142154348Y-75557943D01*
X141974743Y-75737548D01*
X141960600Y-75723405D01*
X141004792Y-76679213D01*
X141100556Y-76943614D01*
X141390171Y-77084504D01*
X141701708Y-77166184D01*
X141964688Y-77181999D01*
X140787768Y-78994000D01*
X138939549Y-78994000D01*
X138922337Y-78968241D01*
X138722459Y-78768363D01*
X138487427Y-78611320D01*
X138226274Y-78503147D01*
X137983495Y-78454855D01*
X137989436Y-78440512D01*
X137999631Y-78389261D01*
X138013849Y-78339015D01*
X138016666Y-78303616D01*
X138023600Y-78268759D01*
X138023600Y-78216502D01*
X138027743Y-78164449D01*
X138023600Y-78129178D01*
X138023600Y-78093641D01*
X138013406Y-78042395D01*
X138007314Y-77990527D01*
X137996369Y-77956740D01*
X137989436Y-77921888D01*
X137969437Y-77873607D01*
X137953345Y-77823933D01*
X137936021Y-77792935D01*
X137922421Y-77760101D01*
X137893394Y-77716658D01*
X137867915Y-77671068D01*
X137844871Y-77644039D01*
X137825131Y-77614496D01*
X137788183Y-77577548D01*
X137754302Y-77537808D01*
X137726431Y-77515796D01*
X137701304Y-77490669D01*
X137657864Y-77461643D01*
X137616876Y-77429272D01*
X137585240Y-77413117D01*
X137555699Y-77393379D01*
X137507430Y-77373385D01*
X137460915Y-77349633D01*
X137426743Y-77339963D01*
X137393912Y-77326364D01*
X137342655Y-77316168D01*
X137292413Y-77301951D01*
X137257017Y-77299134D01*
X137222159Y-77292200D01*
X137169900Y-77292200D01*
X137117847Y-77288057D01*
X137082576Y-77292200D01*
X137047041Y-77292200D01*
X136995798Y-77302393D01*
X136943925Y-77308486D01*
X136910133Y-77319433D01*
X136875288Y-77326364D01*
X136827022Y-77346357D01*
X136777331Y-77362454D01*
X136746322Y-77379784D01*
X136713501Y-77393379D01*
X136670069Y-77422399D01*
X136662769Y-77426479D01*
X136633726Y-77446683D01*
X136567896Y-77490669D01*
X136561953Y-77496612D01*
X136085439Y-77828101D01*
X136054109Y-77844847D01*
X136013729Y-77877986D01*
X136006878Y-77882752D01*
X135980014Y-77905655D01*
X135918741Y-77955941D01*
X135913402Y-77962447D01*
X135907008Y-77967898D01*
X135857926Y-78030045D01*
X135807647Y-78091310D01*
X135803683Y-78098726D01*
X135798472Y-78105324D01*
X135762451Y-78175865D01*
X135725097Y-78245750D01*
X135722655Y-78253800D01*
X135718833Y-78261285D01*
X135697265Y-78337502D01*
X135674264Y-78413327D01*
X135673440Y-78421694D01*
X135671150Y-78429786D01*
X135665638Y-78499042D01*
X135409035Y-78448000D01*
X135126365Y-78448000D01*
X134849126Y-78503147D01*
X134587973Y-78611320D01*
X134352941Y-78768363D01*
X134153063Y-78968241D01*
X133997700Y-79200759D01*
X133842337Y-78968241D01*
X133642459Y-78768363D01*
X133407427Y-78611320D01*
X133146274Y-78503147D01*
X132869035Y-78448000D01*
X132586365Y-78448000D01*
X132309126Y-78503147D01*
X132047973Y-78611320D01*
X131812941Y-78768363D01*
X131613063Y-78968241D01*
X131457700Y-79200759D01*
X131302337Y-78968241D01*
X131102459Y-78768363D01*
X130867427Y-78611320D01*
X130606274Y-78503147D01*
X130329035Y-78448000D01*
X130046365Y-78448000D01*
X129769126Y-78503147D01*
X129507973Y-78611320D01*
X129272941Y-78768363D01*
X129073063Y-78968241D01*
X128916020Y-79203273D01*
X128807847Y-79464426D01*
X128752700Y-79741665D01*
X128752700Y-80024335D01*
X128807847Y-80301574D01*
X128916020Y-80562727D01*
X129073063Y-80797759D01*
X129272941Y-80997637D01*
X129507973Y-81154680D01*
X129769126Y-81262853D01*
X130046365Y-81318000D01*
X130329035Y-81318000D01*
X130606274Y-81262853D01*
X130867427Y-81154680D01*
X131102459Y-80997637D01*
X131302337Y-80797759D01*
X131457700Y-80565241D01*
X131613063Y-80797759D01*
X131812941Y-80997637D01*
X132047973Y-81154680D01*
X132309126Y-81262853D01*
X132586365Y-81318000D01*
X132869035Y-81318000D01*
X133146274Y-81262853D01*
X133407427Y-81154680D01*
X133642459Y-80997637D01*
X133842337Y-80797759D01*
X133997700Y-80565241D01*
X134153063Y-80797759D01*
X134352941Y-80997637D01*
X134587973Y-81154680D01*
X134849126Y-81262853D01*
X135126365Y-81318000D01*
X135409035Y-81318000D01*
X135662892Y-81267504D01*
X135664364Y-81317487D01*
X135671250Y-81347466D01*
X135674265Y-81378074D01*
X135690808Y-81432610D01*
X135703568Y-81488160D01*
X135716170Y-81516218D01*
X135725098Y-81545651D01*
X135751963Y-81595913D01*
X135775315Y-81647905D01*
X135793149Y-81672966D01*
X135807648Y-81700091D01*
X135843807Y-81744151D01*
X135876850Y-81790583D01*
X135899226Y-81811679D01*
X135918742Y-81835459D01*
X135962806Y-81871622D01*
X135972341Y-81880611D01*
X135996537Y-81899304D01*
X136054110Y-81946553D01*
X136065748Y-81952773D01*
X136937426Y-82626200D01*
X125182772Y-82626200D01*
X125120399Y-82620057D01*
X125058027Y-82626200D01*
X125058020Y-82626200D01*
X124871437Y-82644577D01*
X124632041Y-82717197D01*
X124411412Y-82835125D01*
X124218030Y-82993830D01*
X124183682Y-83035682D01*
X124141830Y-83070030D01*
X123983125Y-83263413D01*
X123865197Y-83484042D01*
X123843870Y-83554349D01*
X123793036Y-83721926D01*
X123792577Y-83723438D01*
X123774200Y-83910021D01*
X123774200Y-83910027D01*
X123768057Y-83972400D01*
X123774200Y-84034773D01*
X123774201Y-87618417D01*
X123768057Y-87680800D01*
X123792577Y-87929763D01*
X123865198Y-88169159D01*
X123983126Y-88389788D01*
X124141831Y-88583170D01*
X124190281Y-88622932D01*
X124298122Y-88730773D01*
X124350265Y-88765614D01*
X124398713Y-88805374D01*
X124453986Y-88834918D01*
X124506129Y-88869759D01*
X124564067Y-88893758D01*
X124619342Y-88923303D01*
X124679317Y-88941496D01*
X124737255Y-88965495D01*
X124798761Y-88977729D01*
X124858738Y-88995923D01*
X124921114Y-89002067D01*
X124982616Y-89014300D01*
X125045320Y-89014300D01*
X125107700Y-89020444D01*
X125170080Y-89014300D01*
X125232784Y-89014300D01*
X125294285Y-89002067D01*
X125356663Y-88995923D01*
X125416641Y-88977729D01*
X125478145Y-88965495D01*
X125536080Y-88941497D01*
X125596059Y-88923303D01*
X125651336Y-88893756D01*
X125709271Y-88869759D01*
X125761413Y-88834919D01*
X125816687Y-88805374D01*
X125865136Y-88765613D01*
X125917278Y-88730773D01*
X125961617Y-88686434D01*
X126010070Y-88646670D01*
X126049834Y-88598217D01*
X126094173Y-88553878D01*
X126129013Y-88501736D01*
X126168774Y-88453287D01*
X126198319Y-88398013D01*
X126233159Y-88345871D01*
X126257156Y-88287936D01*
X126286703Y-88232659D01*
X126304897Y-88172680D01*
X126328895Y-88114745D01*
X126341129Y-88053241D01*
X126359323Y-87993263D01*
X126365467Y-87930885D01*
X126377700Y-87869384D01*
X126377700Y-87806680D01*
X126383844Y-87744300D01*
X126377700Y-87681920D01*
X126377700Y-87619216D01*
X126365467Y-87557714D01*
X126359323Y-87495338D01*
X126341129Y-87435361D01*
X126328895Y-87373855D01*
X126314200Y-87338378D01*
X126314200Y-86703000D01*
X128749628Y-86703000D01*
X128749628Y-88303000D01*
X128761888Y-88427482D01*
X128798198Y-88547180D01*
X128857163Y-88657494D01*
X128936515Y-88754185D01*
X129033206Y-88833537D01*
X129143520Y-88892502D01*
X129263218Y-88928812D01*
X129387700Y-88941072D01*
X130987700Y-88941072D01*
X131112182Y-88928812D01*
X131231880Y-88892502D01*
X131342194Y-88833537D01*
X131438885Y-88754185D01*
X131518237Y-88657494D01*
X131577202Y-88547180D01*
X131613512Y-88427482D01*
X131614343Y-88419039D01*
X131812941Y-88617637D01*
X132047973Y-88774680D01*
X132309126Y-88882853D01*
X132586365Y-88938000D01*
X132869035Y-88938000D01*
X133146274Y-88882853D01*
X133407427Y-88774680D01*
X133642459Y-88617637D01*
X133842337Y-88417759D01*
X133997700Y-88185241D01*
X134153063Y-88417759D01*
X134352941Y-88617637D01*
X134587973Y-88774680D01*
X134849126Y-88882853D01*
X135126365Y-88938000D01*
X135409035Y-88938000D01*
X135686274Y-88882853D01*
X135947427Y-88774680D01*
X136182459Y-88617637D01*
X136382337Y-88417759D01*
X136539380Y-88182727D01*
X136543767Y-88172135D01*
X136655315Y-88358131D01*
X136844286Y-88566519D01*
X137070280Y-88734037D01*
X137324613Y-88854246D01*
X137458661Y-88894904D01*
X137680700Y-88772915D01*
X137680700Y-87630000D01*
X137934700Y-87630000D01*
X137934700Y-88772915D01*
X138156739Y-88894904D01*
X138290787Y-88854246D01*
X138545120Y-88734037D01*
X138771114Y-88566519D01*
X138960085Y-88358131D01*
X139104770Y-88116881D01*
X139199609Y-87852040D01*
X139078324Y-87630000D01*
X137934700Y-87630000D01*
X137680700Y-87630000D01*
X137660700Y-87630000D01*
X137660700Y-87376000D01*
X137680700Y-87376000D01*
X137680700Y-86233085D01*
X137934700Y-86233085D01*
X137934700Y-87376000D01*
X139078324Y-87376000D01*
X139199609Y-87153960D01*
X139104770Y-86889119D01*
X138960085Y-86647869D01*
X138771114Y-86439481D01*
X138545120Y-86271963D01*
X138290787Y-86151754D01*
X138156739Y-86111096D01*
X137934700Y-86233085D01*
X137680700Y-86233085D01*
X137458661Y-86111096D01*
X137324613Y-86151754D01*
X137070280Y-86271963D01*
X136844286Y-86439481D01*
X136655315Y-86647869D01*
X136543767Y-86833865D01*
X136539380Y-86823273D01*
X136382337Y-86588241D01*
X136182459Y-86388363D01*
X135947427Y-86231320D01*
X135686274Y-86123147D01*
X135409035Y-86068000D01*
X135126365Y-86068000D01*
X134849126Y-86123147D01*
X134587973Y-86231320D01*
X134352941Y-86388363D01*
X134153063Y-86588241D01*
X133997700Y-86820759D01*
X133842337Y-86588241D01*
X133642459Y-86388363D01*
X133407427Y-86231320D01*
X133146274Y-86123147D01*
X132869035Y-86068000D01*
X132586365Y-86068000D01*
X132309126Y-86123147D01*
X132047973Y-86231320D01*
X131812941Y-86388363D01*
X131614343Y-86586961D01*
X131613512Y-86578518D01*
X131577202Y-86458820D01*
X131518237Y-86348506D01*
X131438885Y-86251815D01*
X131342194Y-86172463D01*
X131231880Y-86113498D01*
X131112182Y-86077188D01*
X130987700Y-86064928D01*
X129387700Y-86064928D01*
X129263218Y-86077188D01*
X129143520Y-86113498D01*
X129033206Y-86172463D01*
X128936515Y-86251815D01*
X128857163Y-86348506D01*
X128798198Y-86458820D01*
X128761888Y-86578518D01*
X128749628Y-86703000D01*
X126314200Y-86703000D01*
X126314200Y-85166200D01*
X140131328Y-85166200D01*
X140131328Y-85646200D01*
X140143588Y-85770682D01*
X140179898Y-85890380D01*
X140238863Y-86000694D01*
X140318215Y-86097385D01*
X140414906Y-86176737D01*
X140525220Y-86235702D01*
X140644918Y-86272012D01*
X140769400Y-86284272D01*
X144269400Y-86284272D01*
X144393882Y-86272012D01*
X144513580Y-86235702D01*
X144623894Y-86176737D01*
X144720585Y-86097385D01*
X144799937Y-86000694D01*
X144858902Y-85890380D01*
X144895212Y-85770682D01*
X144907472Y-85646200D01*
X144907472Y-82896200D01*
X146381328Y-82896200D01*
X146381328Y-84896200D01*
X146407999Y-85166999D01*
X146486989Y-85427392D01*
X146615260Y-85667371D01*
X146787885Y-85877715D01*
X146998229Y-86050340D01*
X147238208Y-86178611D01*
X147498601Y-86257601D01*
X147769400Y-86284272D01*
X149269400Y-86284272D01*
X149540199Y-86257601D01*
X149800592Y-86178611D01*
X150040571Y-86050340D01*
X150250915Y-85877715D01*
X150423540Y-85667371D01*
X150551811Y-85427392D01*
X150630801Y-85166999D01*
X150657472Y-84896200D01*
X150657472Y-82896200D01*
X150630801Y-82625401D01*
X150551811Y-82365008D01*
X150423540Y-82125029D01*
X150250915Y-81914685D01*
X150040571Y-81742060D01*
X149800592Y-81613789D01*
X149540199Y-81534799D01*
X149269400Y-81508128D01*
X147769400Y-81508128D01*
X147498601Y-81534799D01*
X147238208Y-81613789D01*
X146998229Y-81742060D01*
X146787885Y-81914685D01*
X146615260Y-82125029D01*
X146486989Y-82365008D01*
X146407999Y-82625401D01*
X146381328Y-82896200D01*
X144907472Y-82896200D01*
X144907472Y-82146200D01*
X144895212Y-82021718D01*
X144858902Y-81902020D01*
X144799937Y-81791706D01*
X144720585Y-81695015D01*
X144623894Y-81615663D01*
X144547269Y-81574706D01*
X144644400Y-81584272D01*
X146394400Y-81584272D01*
X146689586Y-81555199D01*
X146973428Y-81469096D01*
X147235018Y-81329273D01*
X147464303Y-81141103D01*
X147652473Y-80911818D01*
X147792296Y-80650228D01*
X147878399Y-80366386D01*
X147907472Y-80071200D01*
X147907472Y-78321200D01*
X147878399Y-78026014D01*
X147792296Y-77742172D01*
X147652473Y-77480582D01*
X147464303Y-77251297D01*
X147235018Y-77063127D01*
X146973428Y-76923304D01*
X146689586Y-76837201D01*
X146394400Y-76808128D01*
X144644400Y-76808128D01*
X144349214Y-76837201D01*
X144298839Y-76852482D01*
X144411379Y-76679213D01*
X147504792Y-76679213D01*
X147600556Y-76943614D01*
X147890171Y-77084504D01*
X148201708Y-77166184D01*
X148523195Y-77185518D01*
X148842275Y-77141761D01*
X149146688Y-77036595D01*
X149320644Y-76943614D01*
X149416408Y-76679213D01*
X148460600Y-75723405D01*
X147504792Y-76679213D01*
X144411379Y-76679213D01*
X145108190Y-75606395D01*
X146818882Y-75606395D01*
X146862639Y-75925475D01*
X146967805Y-76229888D01*
X147060786Y-76403844D01*
X147325187Y-76499608D01*
X148280995Y-75543800D01*
X147325187Y-74587992D01*
X147060786Y-74683756D01*
X146919896Y-74973371D01*
X146838216Y-75284908D01*
X146818882Y-75606395D01*
X145108190Y-75606395D01*
X146075444Y-74117200D01*
X147650669Y-74117200D01*
X147600556Y-74143986D01*
X147504792Y-74408387D01*
X148460600Y-75364195D01*
X148474743Y-75350053D01*
X148654348Y-75529658D01*
X148640205Y-75543800D01*
X149596013Y-76499608D01*
X149860414Y-76403844D01*
X150001304Y-76114229D01*
X150005706Y-76097438D01*
X150142363Y-76301959D01*
X150342241Y-76501837D01*
X150577273Y-76658880D01*
X150838426Y-76767053D01*
X151115665Y-76822200D01*
X151398335Y-76822200D01*
X151675574Y-76767053D01*
X151936727Y-76658880D01*
X152171759Y-76501837D01*
X152371637Y-76301959D01*
X152527000Y-76069441D01*
X152682363Y-76301959D01*
X152882241Y-76501837D01*
X153117273Y-76658880D01*
X153378426Y-76767053D01*
X153655665Y-76822200D01*
X153938335Y-76822200D01*
X154215574Y-76767053D01*
X154476727Y-76658880D01*
X154711759Y-76501837D01*
X154911637Y-76301959D01*
X155068680Y-76066927D01*
X155176853Y-75805774D01*
X155232000Y-75528535D01*
X155232000Y-75245865D01*
X155176853Y-74968626D01*
X155068680Y-74707473D01*
X154911637Y-74472441D01*
X154711759Y-74272563D01*
X154476727Y-74115520D01*
X154215574Y-74007347D01*
X153938335Y-73952200D01*
X153655665Y-73952200D01*
X153625280Y-73958244D01*
X150113099Y-70446064D01*
X150085259Y-70412141D01*
X149949891Y-70301047D01*
X149914907Y-70282348D01*
X149909518Y-70269337D01*
X149743885Y-70021450D01*
X155597350Y-70021450D01*
X155597351Y-95595950D01*
X116223432Y-95595950D01*
X116220432Y-92419600D01*
X129043328Y-92419600D01*
X129043328Y-94219600D01*
X129055588Y-94344082D01*
X129091898Y-94463780D01*
X129150863Y-94574094D01*
X129230215Y-94670785D01*
X129326906Y-94750137D01*
X129437220Y-94809102D01*
X129556918Y-94845412D01*
X129681400Y-94857672D01*
X131481400Y-94857672D01*
X131605882Y-94845412D01*
X131725580Y-94809102D01*
X131835894Y-94750137D01*
X131932585Y-94670785D01*
X132011937Y-94574094D01*
X132070902Y-94463780D01*
X132107212Y-94344082D01*
X132119472Y-94219600D01*
X132119472Y-92419600D01*
X135850528Y-92419600D01*
X135850528Y-94219600D01*
X135862788Y-94344082D01*
X135899098Y-94463780D01*
X135958063Y-94574094D01*
X136037415Y-94670785D01*
X136134106Y-94750137D01*
X136244420Y-94809102D01*
X136364118Y-94845412D01*
X136488600Y-94857672D01*
X138288600Y-94857672D01*
X138413082Y-94845412D01*
X138532780Y-94809102D01*
X138643094Y-94750137D01*
X138739785Y-94670785D01*
X138819137Y-94574094D01*
X138878102Y-94463780D01*
X138914412Y-94344082D01*
X138926672Y-94219600D01*
X138926672Y-92419600D01*
X142632328Y-92419600D01*
X142632328Y-94219600D01*
X142644588Y-94344082D01*
X142680898Y-94463780D01*
X142739863Y-94574094D01*
X142819215Y-94670785D01*
X142915906Y-94750137D01*
X143026220Y-94809102D01*
X143145918Y-94845412D01*
X143270400Y-94857672D01*
X145070400Y-94857672D01*
X145194882Y-94845412D01*
X145314580Y-94809102D01*
X145424894Y-94750137D01*
X145521585Y-94670785D01*
X145600937Y-94574094D01*
X145659902Y-94463780D01*
X145696212Y-94344082D01*
X145708472Y-94219600D01*
X145708472Y-93203665D01*
X147840800Y-93203665D01*
X147840800Y-93486335D01*
X147895947Y-93763574D01*
X148004120Y-94024727D01*
X148161163Y-94259759D01*
X148361041Y-94459637D01*
X148596073Y-94616680D01*
X148857226Y-94724853D01*
X149134465Y-94780000D01*
X149417135Y-94780000D01*
X149694374Y-94724853D01*
X149955527Y-94616680D01*
X150190559Y-94459637D01*
X150390437Y-94259759D01*
X150547480Y-94024727D01*
X150655653Y-93763574D01*
X150710800Y-93486335D01*
X150710800Y-93203665D01*
X150655653Y-92926426D01*
X150547480Y-92665273D01*
X150390437Y-92430241D01*
X150190559Y-92230363D01*
X149955527Y-92073320D01*
X149944235Y-92068643D01*
X150013220Y-92036037D01*
X150239214Y-91868519D01*
X150428185Y-91660131D01*
X150572870Y-91418881D01*
X150667709Y-91154040D01*
X150546424Y-90932000D01*
X149402800Y-90932000D01*
X149402800Y-90952000D01*
X149148800Y-90952000D01*
X149148800Y-90932000D01*
X148005176Y-90932000D01*
X147883891Y-91154040D01*
X147978730Y-91418881D01*
X148123415Y-91660131D01*
X148312386Y-91868519D01*
X148538380Y-92036037D01*
X148607365Y-92068643D01*
X148596073Y-92073320D01*
X148361041Y-92230363D01*
X148161163Y-92430241D01*
X148004120Y-92665273D01*
X147895947Y-92926426D01*
X147840800Y-93203665D01*
X145708472Y-93203665D01*
X145708472Y-92419600D01*
X145696212Y-92295118D01*
X145659902Y-92175420D01*
X145600937Y-92065106D01*
X145521585Y-91968415D01*
X145424894Y-91889063D01*
X145314580Y-91830098D01*
X145296273Y-91824544D01*
X145362712Y-91758105D01*
X145530699Y-91506695D01*
X145646411Y-91227343D01*
X145705400Y-90930784D01*
X145705400Y-90628416D01*
X145671097Y-90455960D01*
X147883891Y-90455960D01*
X148005176Y-90678000D01*
X149148800Y-90678000D01*
X149148800Y-89535085D01*
X149402800Y-89535085D01*
X149402800Y-90678000D01*
X150546424Y-90678000D01*
X150667709Y-90455960D01*
X150572870Y-90191119D01*
X150428185Y-89949869D01*
X150239214Y-89741481D01*
X150013220Y-89573963D01*
X149758887Y-89453754D01*
X149624839Y-89413096D01*
X149402800Y-89535085D01*
X149148800Y-89535085D01*
X148926761Y-89413096D01*
X148792713Y-89453754D01*
X148538380Y-89573963D01*
X148312386Y-89741481D01*
X148123415Y-89949869D01*
X147978730Y-90191119D01*
X147883891Y-90455960D01*
X145671097Y-90455960D01*
X145646411Y-90331857D01*
X145530699Y-90052505D01*
X145362712Y-89801095D01*
X145148905Y-89587288D01*
X144897495Y-89419301D01*
X144618143Y-89303589D01*
X144321584Y-89244600D01*
X144019216Y-89244600D01*
X143722657Y-89303589D01*
X143443305Y-89419301D01*
X143191895Y-89587288D01*
X142978088Y-89801095D01*
X142810101Y-90052505D01*
X142694389Y-90331857D01*
X142635400Y-90628416D01*
X142635400Y-90930784D01*
X142694389Y-91227343D01*
X142810101Y-91506695D01*
X142978088Y-91758105D01*
X143044527Y-91824544D01*
X143026220Y-91830098D01*
X142915906Y-91889063D01*
X142819215Y-91968415D01*
X142739863Y-92065106D01*
X142680898Y-92175420D01*
X142644588Y-92295118D01*
X142632328Y-92419600D01*
X138926672Y-92419600D01*
X138914412Y-92295118D01*
X138878102Y-92175420D01*
X138819137Y-92065106D01*
X138739785Y-91968415D01*
X138643094Y-91889063D01*
X138532780Y-91830098D01*
X138514473Y-91824544D01*
X138580912Y-91758105D01*
X138748899Y-91506695D01*
X138864611Y-91227343D01*
X138923600Y-90930784D01*
X138923600Y-90628416D01*
X138864611Y-90331857D01*
X138748899Y-90052505D01*
X138580912Y-89801095D01*
X138367105Y-89587288D01*
X138115695Y-89419301D01*
X137836343Y-89303589D01*
X137539784Y-89244600D01*
X137237416Y-89244600D01*
X136940857Y-89303589D01*
X136661505Y-89419301D01*
X136410095Y-89587288D01*
X136196288Y-89801095D01*
X136028301Y-90052505D01*
X135912589Y-90331857D01*
X135853600Y-90628416D01*
X135853600Y-90930784D01*
X135912589Y-91227343D01*
X136028301Y-91506695D01*
X136196288Y-91758105D01*
X136262727Y-91824544D01*
X136244420Y-91830098D01*
X136134106Y-91889063D01*
X136037415Y-91968415D01*
X135958063Y-92065106D01*
X135899098Y-92175420D01*
X135862788Y-92295118D01*
X135850528Y-92419600D01*
X132119472Y-92419600D01*
X132107212Y-92295118D01*
X132070902Y-92175420D01*
X132011937Y-92065106D01*
X131932585Y-91968415D01*
X131835894Y-91889063D01*
X131725580Y-91830098D01*
X131707273Y-91824544D01*
X131773712Y-91758105D01*
X131941699Y-91506695D01*
X132057411Y-91227343D01*
X132116400Y-90930784D01*
X132116400Y-90628416D01*
X132057411Y-90331857D01*
X131941699Y-90052505D01*
X131773712Y-89801095D01*
X131559905Y-89587288D01*
X131308495Y-89419301D01*
X131029143Y-89303589D01*
X130732584Y-89244600D01*
X130430216Y-89244600D01*
X130133657Y-89303589D01*
X129854305Y-89419301D01*
X129602895Y-89587288D01*
X129389088Y-89801095D01*
X129221101Y-90052505D01*
X129105389Y-90331857D01*
X129046400Y-90628416D01*
X129046400Y-90930784D01*
X129105389Y-91227343D01*
X129221101Y-91506695D01*
X129389088Y-91758105D01*
X129455527Y-91824544D01*
X129437220Y-91830098D01*
X129326906Y-91889063D01*
X129230215Y-91968415D01*
X129150863Y-92065106D01*
X129091898Y-92175420D01*
X129055588Y-92295118D01*
X129043328Y-92419600D01*
X116220432Y-92419600D01*
X116216050Y-87781370D01*
X118234000Y-87781370D01*
X118234000Y-88182230D01*
X118312204Y-88575387D01*
X118465607Y-88945734D01*
X118688313Y-89279037D01*
X118971763Y-89562487D01*
X119305066Y-89785193D01*
X119675413Y-89938596D01*
X120068570Y-90016800D01*
X120469430Y-90016800D01*
X120862587Y-89938596D01*
X121232934Y-89785193D01*
X121566237Y-89562487D01*
X121849687Y-89279037D01*
X122072393Y-88945734D01*
X122225796Y-88575387D01*
X122304000Y-88182230D01*
X122304000Y-87781370D01*
X122225796Y-87388213D01*
X122072393Y-87017866D01*
X121849687Y-86684563D01*
X121566237Y-86401113D01*
X121232934Y-86178407D01*
X120862587Y-86025004D01*
X120469430Y-85946800D01*
X120068570Y-85946800D01*
X119675413Y-86025004D01*
X119305066Y-86178407D01*
X118971763Y-86401113D01*
X118688313Y-86684563D01*
X118465607Y-87017866D01*
X118312204Y-87388213D01*
X118234000Y-87781370D01*
X116216050Y-87781370D01*
X116212838Y-84381800D01*
X118230928Y-84381800D01*
X118243188Y-84506282D01*
X118279498Y-84625980D01*
X118338463Y-84736294D01*
X118417815Y-84832985D01*
X118514506Y-84912337D01*
X118624820Y-84971302D01*
X118744518Y-85007612D01*
X118869000Y-85019872D01*
X119983250Y-85016800D01*
X120142000Y-84858050D01*
X120142000Y-83108800D01*
X120396000Y-83108800D01*
X120396000Y-84858050D01*
X120554750Y-85016800D01*
X121669000Y-85019872D01*
X121793482Y-85007612D01*
X121913180Y-84971302D01*
X122023494Y-84912337D01*
X122120185Y-84832985D01*
X122199537Y-84736294D01*
X122258502Y-84625980D01*
X122294812Y-84506282D01*
X122307072Y-84381800D01*
X122304000Y-83267550D01*
X122145250Y-83108800D01*
X120396000Y-83108800D01*
X120142000Y-83108800D01*
X118392750Y-83108800D01*
X118234000Y-83267550D01*
X118230928Y-84381800D01*
X116212838Y-84381800D01*
X116210193Y-81581800D01*
X118230928Y-81581800D01*
X118234000Y-82696050D01*
X118392750Y-82854800D01*
X120142000Y-82854800D01*
X120142000Y-81105550D01*
X120396000Y-81105550D01*
X120396000Y-82854800D01*
X122145250Y-82854800D01*
X122304000Y-82696050D01*
X122307072Y-81581800D01*
X122294812Y-81457318D01*
X122258502Y-81337620D01*
X122199537Y-81227306D01*
X122120185Y-81130615D01*
X122023494Y-81051263D01*
X121913180Y-80992298D01*
X121793482Y-80955988D01*
X121669000Y-80943728D01*
X120554750Y-80946800D01*
X120396000Y-81105550D01*
X120142000Y-81105550D01*
X119983250Y-80946800D01*
X118869000Y-80943728D01*
X118744518Y-80955988D01*
X118624820Y-80992298D01*
X118514506Y-81051263D01*
X118417815Y-81130615D01*
X118338463Y-81227306D01*
X118279498Y-81337620D01*
X118243188Y-81457318D01*
X118230928Y-81581800D01*
X116210193Y-81581800D01*
X116208095Y-79362502D01*
X117576303Y-79362502D01*
X117647886Y-79606471D01*
X117903396Y-79727371D01*
X118177584Y-79796100D01*
X118459912Y-79810017D01*
X118739530Y-79768587D01*
X119005692Y-79673403D01*
X119130914Y-79606471D01*
X119202497Y-79362502D01*
X118389400Y-78549405D01*
X117576303Y-79362502D01*
X116208095Y-79362502D01*
X116207223Y-78440312D01*
X116949183Y-78440312D01*
X116990613Y-78719930D01*
X117085797Y-78986092D01*
X117152729Y-79111314D01*
X117396698Y-79182897D01*
X118209795Y-78369800D01*
X118569005Y-78369800D01*
X119382102Y-79182897D01*
X119626071Y-79111314D01*
X119746971Y-78855804D01*
X119815700Y-78581616D01*
X119829617Y-78299288D01*
X119788187Y-78019670D01*
X119693003Y-77753508D01*
X119626071Y-77628286D01*
X119382102Y-77556703D01*
X118569005Y-78369800D01*
X118209795Y-78369800D01*
X117396698Y-77556703D01*
X117152729Y-77628286D01*
X117031829Y-77883796D01*
X116963100Y-78157984D01*
X116949183Y-78440312D01*
X116207223Y-78440312D01*
X116204039Y-75069800D01*
X116951328Y-75069800D01*
X116951328Y-76669800D01*
X116963588Y-76794282D01*
X116999898Y-76913980D01*
X117058863Y-77024294D01*
X117138215Y-77120985D01*
X117234906Y-77200337D01*
X117345220Y-77259302D01*
X117464918Y-77295612D01*
X117589400Y-77307872D01*
X117596615Y-77307872D01*
X117576303Y-77377098D01*
X118389400Y-78190195D01*
X119202497Y-77377098D01*
X119182185Y-77307872D01*
X119189400Y-77307872D01*
X119313882Y-77295612D01*
X119433580Y-77259302D01*
X119543894Y-77200337D01*
X119640585Y-77120985D01*
X119719937Y-77024294D01*
X119778902Y-76913980D01*
X119815212Y-76794282D01*
X119827472Y-76669800D01*
X119827472Y-75069800D01*
X119815212Y-74945318D01*
X119778902Y-74825620D01*
X119719937Y-74715306D01*
X119640585Y-74618615D01*
X119543894Y-74539263D01*
X119433580Y-74480298D01*
X119313882Y-74443988D01*
X119189400Y-74431728D01*
X117589400Y-74431728D01*
X117464918Y-74443988D01*
X117345220Y-74480298D01*
X117234906Y-74539263D01*
X117138215Y-74618615D01*
X117058863Y-74715306D01*
X116999898Y-74825620D01*
X116963588Y-74945318D01*
X116951328Y-75069800D01*
X116204039Y-75069800D01*
X116199268Y-70021450D01*
X129777554Y-70021450D01*
X129695363Y-70103641D01*
G37*
G04 #@! TD.AperFunction*
M02*
