G04 #@! TF.GenerationSoftware,KiCad,Pcbnew,(5.1.12-1-10_14)*
G04 #@! TF.CreationDate,2021-11-28T09:31:38-08:00*
G04 #@! TF.ProjectId,24h-timer-switch,3234682d-7469-46d6-9572-2d7377697463,1*
G04 #@! TF.SameCoordinates,Original*
G04 #@! TF.FileFunction,Copper,L2,Bot*
G04 #@! TF.FilePolarity,Positive*
%FSLAX46Y46*%
G04 Gerber Fmt 4.6, Leading zero omitted, Abs format (unit mm)*
G04 Created by KiCad (PCBNEW (5.1.12-1-10_14)) date 2021-11-28 09:31:38*
%MOMM*%
%LPD*%
G01*
G04 APERTURE LIST*
G04 #@! TA.AperFunction,ComponentPad*
%ADD10C,1.800000*%
G04 #@! TD*
G04 #@! TA.AperFunction,ComponentPad*
%ADD11R,1.800000X1.800000*%
G04 #@! TD*
G04 #@! TA.AperFunction,ComponentPad*
%ADD12C,2.800000*%
G04 #@! TD*
G04 #@! TA.AperFunction,ComponentPad*
%ADD13R,2.800000X2.800000*%
G04 #@! TD*
G04 #@! TA.AperFunction,ComponentPad*
%ADD14O,1.600000X1.600000*%
G04 #@! TD*
G04 #@! TA.AperFunction,ComponentPad*
%ADD15C,1.600000*%
G04 #@! TD*
G04 #@! TA.AperFunction,ComponentPad*
%ADD16R,1.600000X1.600000*%
G04 #@! TD*
G04 #@! TA.AperFunction,ComponentPad*
%ADD17C,2.000000*%
G04 #@! TD*
G04 #@! TA.AperFunction,ComponentPad*
%ADD18R,3.500000X3.500000*%
G04 #@! TD*
G04 #@! TA.AperFunction,ViaPad*
%ADD19C,0.508000*%
G04 #@! TD*
G04 #@! TA.AperFunction,ViaPad*
%ADD20C,1.270000*%
G04 #@! TD*
G04 #@! TA.AperFunction,Conductor*
%ADD21C,1.270000*%
G04 #@! TD*
G04 #@! TA.AperFunction,Conductor*
%ADD22C,0.508000*%
G04 #@! TD*
G04 #@! TA.AperFunction,Conductor*
%ADD23C,0.254000*%
G04 #@! TD*
G04 #@! TA.AperFunction,Conductor*
%ADD24C,0.152400*%
G04 #@! TD*
G04 APERTURE END LIST*
D10*
X144195800Y-90576400D03*
D11*
X144195800Y-93116400D03*
D10*
X137337800Y-90576400D03*
D11*
X137337800Y-93116400D03*
D10*
X130606800Y-90576400D03*
D11*
X130606800Y-93116400D03*
D12*
X120294400Y-87778600D03*
D13*
X120294400Y-82778600D03*
D14*
X137401300Y-73685400D03*
D15*
X137401300Y-71145400D03*
X119278400Y-78293600D03*
D16*
X119278400Y-75793600D03*
D14*
X130187700Y-79883000D03*
X137807700Y-87503000D03*
X132727700Y-79883000D03*
X135267700Y-87503000D03*
X135267700Y-79883000D03*
X132727700Y-87503000D03*
X137807700Y-79883000D03*
D16*
X130187700Y-87503000D03*
D17*
X150784700Y-71094600D03*
X150784700Y-75594600D03*
X144284700Y-71094600D03*
X144284700Y-75594600D03*
D14*
X122275600Y-92811600D03*
D15*
X124815600Y-92811600D03*
D14*
X140766800Y-73685400D03*
D15*
X140766800Y-71145400D03*
G04 #@! TA.AperFunction,ComponentPad*
G36*
G01*
X147269400Y-78321200D02*
X147269400Y-80071200D01*
G75*
G02*
X146394400Y-80946200I-875000J0D01*
G01*
X144644400Y-80946200D01*
G75*
G02*
X143769400Y-80071200I0J875000D01*
G01*
X143769400Y-78321200D01*
G75*
G02*
X144644400Y-77446200I875000J0D01*
G01*
X146394400Y-77446200D01*
G75*
G02*
X147269400Y-78321200I0J-875000D01*
G01*
G37*
G04 #@! TD.AperFunction*
G04 #@! TA.AperFunction,ComponentPad*
G36*
G01*
X150019400Y-82896200D02*
X150019400Y-84896200D01*
G75*
G02*
X149269400Y-85646200I-750000J0D01*
G01*
X147769400Y-85646200D01*
G75*
G02*
X147019400Y-84896200I0J750000D01*
G01*
X147019400Y-82896200D01*
G75*
G02*
X147769400Y-82146200I750000J0D01*
G01*
X149269400Y-82146200D01*
G75*
G02*
X150019400Y-82896200I0J-750000D01*
G01*
G37*
G04 #@! TD.AperFunction*
D18*
X142519400Y-83896200D03*
D19*
X132257800Y-77647800D03*
D20*
X132270500Y-72999600D03*
X125107700Y-87744300D03*
D21*
X125222000Y-87630000D02*
X125107700Y-87744300D01*
X125984000Y-72999600D02*
X125222000Y-73761600D01*
X125222000Y-73761600D02*
X125222000Y-87630000D01*
X132270500Y-72999600D02*
X125984000Y-72999600D01*
D22*
X137401300Y-77749400D02*
X135267700Y-79883000D01*
X137401300Y-73685400D02*
X137401300Y-77749400D01*
X140766800Y-80467200D02*
X140766800Y-73685400D01*
X138772900Y-84696300D02*
X138772900Y-82384900D01*
X130187700Y-85369400D02*
X138099800Y-85369400D01*
X138772900Y-82384900D02*
X140690600Y-80467200D01*
X138099800Y-85369400D02*
X138772900Y-84696300D01*
X140690600Y-80467200D02*
X140766800Y-80467200D01*
X130187700Y-87503000D02*
X130187700Y-85369400D01*
D23*
X136486541Y-70030763D02*
X136286663Y-70230641D01*
X136129620Y-70465673D01*
X136021447Y-70726826D01*
X135966300Y-71004065D01*
X135966300Y-71286735D01*
X136021447Y-71563974D01*
X136129620Y-71825127D01*
X136286663Y-72060159D01*
X136486541Y-72260037D01*
X136719059Y-72415400D01*
X136486541Y-72570763D01*
X136286663Y-72770641D01*
X136129620Y-73005673D01*
X136021447Y-73266826D01*
X135966300Y-73544065D01*
X135966300Y-73826735D01*
X136021447Y-74103974D01*
X136129620Y-74365127D01*
X136286663Y-74600159D01*
X136486541Y-74800037D01*
X136512300Y-74817249D01*
X136512301Y-77381163D01*
X135439420Y-78454044D01*
X135409035Y-78448000D01*
X135126365Y-78448000D01*
X134849126Y-78503147D01*
X134587973Y-78611320D01*
X134352941Y-78768363D01*
X134153063Y-78968241D01*
X133997700Y-79200759D01*
X133842337Y-78968241D01*
X133642459Y-78768363D01*
X133407427Y-78611320D01*
X133146274Y-78503147D01*
X132869035Y-78448000D01*
X132586365Y-78448000D01*
X132309126Y-78503147D01*
X132047973Y-78611320D01*
X131812941Y-78768363D01*
X131613063Y-78968241D01*
X131457700Y-79200759D01*
X131302337Y-78968241D01*
X131102459Y-78768363D01*
X130867427Y-78611320D01*
X130606274Y-78503147D01*
X130329035Y-78448000D01*
X130046365Y-78448000D01*
X129769126Y-78503147D01*
X129507973Y-78611320D01*
X129272941Y-78768363D01*
X129073063Y-78968241D01*
X128916020Y-79203273D01*
X128807847Y-79464426D01*
X128752700Y-79741665D01*
X128752700Y-80024335D01*
X128807847Y-80301574D01*
X128916020Y-80562727D01*
X129073063Y-80797759D01*
X129272941Y-80997637D01*
X129507973Y-81154680D01*
X129769126Y-81262853D01*
X130046365Y-81318000D01*
X130329035Y-81318000D01*
X130606274Y-81262853D01*
X130867427Y-81154680D01*
X131102459Y-80997637D01*
X131302337Y-80797759D01*
X131457700Y-80565241D01*
X131613063Y-80797759D01*
X131812941Y-80997637D01*
X132047973Y-81154680D01*
X132309126Y-81262853D01*
X132586365Y-81318000D01*
X132869035Y-81318000D01*
X133146274Y-81262853D01*
X133407427Y-81154680D01*
X133642459Y-80997637D01*
X133842337Y-80797759D01*
X133997700Y-80565241D01*
X134153063Y-80797759D01*
X134352941Y-80997637D01*
X134587973Y-81154680D01*
X134849126Y-81262853D01*
X135126365Y-81318000D01*
X135409035Y-81318000D01*
X135686274Y-81262853D01*
X135947427Y-81154680D01*
X136182459Y-80997637D01*
X136382337Y-80797759D01*
X136537700Y-80565241D01*
X136693063Y-80797759D01*
X136892941Y-80997637D01*
X137127973Y-81154680D01*
X137389126Y-81262853D01*
X137666365Y-81318000D01*
X137949035Y-81318000D01*
X138226274Y-81262853D01*
X138487427Y-81154680D01*
X138722459Y-80997637D01*
X138922337Y-80797759D01*
X139079380Y-80562727D01*
X139187553Y-80301574D01*
X139242700Y-80024335D01*
X139242700Y-79741665D01*
X139187553Y-79464426D01*
X139079380Y-79203273D01*
X138922337Y-78968241D01*
X138722459Y-78768363D01*
X138487427Y-78611320D01*
X138226274Y-78503147D01*
X137958127Y-78449809D01*
X137999042Y-78408894D01*
X138032959Y-78381059D01*
X138144053Y-78245691D01*
X138226603Y-78091251D01*
X138277436Y-77923674D01*
X138290300Y-77793067D01*
X138290300Y-77793061D01*
X138294600Y-77749401D01*
X138290300Y-77705741D01*
X138290300Y-74817249D01*
X138316059Y-74800037D01*
X138515937Y-74600159D01*
X138672980Y-74365127D01*
X138781153Y-74103974D01*
X138836300Y-73826735D01*
X138836300Y-73544065D01*
X138781153Y-73266826D01*
X138672980Y-73005673D01*
X138515937Y-72770641D01*
X138316059Y-72570763D01*
X138083541Y-72415400D01*
X138316059Y-72260037D01*
X138515937Y-72060159D01*
X138672980Y-71825127D01*
X138781153Y-71563974D01*
X138836300Y-71286735D01*
X138836300Y-71004065D01*
X138781153Y-70726826D01*
X138672980Y-70465673D01*
X138515937Y-70230641D01*
X138316059Y-70030763D01*
X138302121Y-70021450D01*
X139865979Y-70021450D01*
X139852041Y-70030763D01*
X139652163Y-70230641D01*
X139495120Y-70465673D01*
X139386947Y-70726826D01*
X139331800Y-71004065D01*
X139331800Y-71286735D01*
X139386947Y-71563974D01*
X139495120Y-71825127D01*
X139652163Y-72060159D01*
X139852041Y-72260037D01*
X140084559Y-72415400D01*
X139852041Y-72570763D01*
X139652163Y-72770641D01*
X139495120Y-73005673D01*
X139386947Y-73266826D01*
X139331800Y-73544065D01*
X139331800Y-73826735D01*
X139386947Y-74103974D01*
X139495120Y-74365127D01*
X139652163Y-74600159D01*
X139852041Y-74800037D01*
X139877801Y-74817249D01*
X139877800Y-80022765D01*
X138175159Y-81725406D01*
X138141242Y-81753241D01*
X138113407Y-81787158D01*
X138113405Y-81787160D01*
X138030148Y-81888609D01*
X137947598Y-82043048D01*
X137896764Y-82210626D01*
X137879600Y-82384900D01*
X137883901Y-82428570D01*
X137883900Y-84328064D01*
X137731565Y-84480400D01*
X130231367Y-84480400D01*
X130187700Y-84476099D01*
X130144033Y-84480400D01*
X130013426Y-84493264D01*
X129845849Y-84544097D01*
X129691409Y-84626647D01*
X129556041Y-84737741D01*
X129444947Y-84873109D01*
X129362397Y-85027549D01*
X129311564Y-85195126D01*
X129294399Y-85369400D01*
X129298701Y-85413077D01*
X129298701Y-86073693D01*
X129263218Y-86077188D01*
X129143520Y-86113498D01*
X129033206Y-86172463D01*
X128936515Y-86251815D01*
X128857163Y-86348506D01*
X128798198Y-86458820D01*
X128761888Y-86578518D01*
X128749628Y-86703000D01*
X128749628Y-88303000D01*
X128761888Y-88427482D01*
X128798198Y-88547180D01*
X128857163Y-88657494D01*
X128936515Y-88754185D01*
X129033206Y-88833537D01*
X129143520Y-88892502D01*
X129263218Y-88928812D01*
X129387700Y-88941072D01*
X130987700Y-88941072D01*
X131112182Y-88928812D01*
X131231880Y-88892502D01*
X131342194Y-88833537D01*
X131438885Y-88754185D01*
X131518237Y-88657494D01*
X131577202Y-88547180D01*
X131613512Y-88427482D01*
X131614343Y-88419039D01*
X131812941Y-88617637D01*
X132047973Y-88774680D01*
X132309126Y-88882853D01*
X132586365Y-88938000D01*
X132869035Y-88938000D01*
X133146274Y-88882853D01*
X133407427Y-88774680D01*
X133642459Y-88617637D01*
X133842337Y-88417759D01*
X133997700Y-88185241D01*
X134153063Y-88417759D01*
X134352941Y-88617637D01*
X134587973Y-88774680D01*
X134849126Y-88882853D01*
X135126365Y-88938000D01*
X135409035Y-88938000D01*
X135686274Y-88882853D01*
X135947427Y-88774680D01*
X136182459Y-88617637D01*
X136382337Y-88417759D01*
X136539380Y-88182727D01*
X136543767Y-88172135D01*
X136655315Y-88358131D01*
X136844286Y-88566519D01*
X137070280Y-88734037D01*
X137324613Y-88854246D01*
X137458661Y-88894904D01*
X137680700Y-88772915D01*
X137680700Y-87630000D01*
X137934700Y-87630000D01*
X137934700Y-88772915D01*
X138156739Y-88894904D01*
X138290787Y-88854246D01*
X138545120Y-88734037D01*
X138771114Y-88566519D01*
X138960085Y-88358131D01*
X139104770Y-88116881D01*
X139199609Y-87852040D01*
X139078324Y-87630000D01*
X137934700Y-87630000D01*
X137680700Y-87630000D01*
X137660700Y-87630000D01*
X137660700Y-87376000D01*
X137680700Y-87376000D01*
X137680700Y-87356000D01*
X137934700Y-87356000D01*
X137934700Y-87376000D01*
X139078324Y-87376000D01*
X139199609Y-87153960D01*
X139104770Y-86889119D01*
X138960085Y-86647869D01*
X138771114Y-86439481D01*
X138545120Y-86271963D01*
X138405109Y-86205788D01*
X138441651Y-86194703D01*
X138596091Y-86112153D01*
X138731459Y-86001059D01*
X138759298Y-85967137D01*
X139370642Y-85355794D01*
X139404559Y-85327959D01*
X139515653Y-85192591D01*
X139598203Y-85038151D01*
X139618196Y-84972242D01*
X139649036Y-84870576D01*
X139654345Y-84816672D01*
X139661900Y-84739967D01*
X139661900Y-84739961D01*
X139666200Y-84696301D01*
X139661900Y-84652641D01*
X139661900Y-82753135D01*
X140131328Y-82283707D01*
X140131328Y-85646200D01*
X140143588Y-85770682D01*
X140179898Y-85890380D01*
X140238863Y-86000694D01*
X140318215Y-86097385D01*
X140414906Y-86176737D01*
X140525220Y-86235702D01*
X140644918Y-86272012D01*
X140769400Y-86284272D01*
X144269400Y-86284272D01*
X144393882Y-86272012D01*
X144513580Y-86235702D01*
X144623894Y-86176737D01*
X144720585Y-86097385D01*
X144799937Y-86000694D01*
X144858902Y-85890380D01*
X144895212Y-85770682D01*
X144907472Y-85646200D01*
X146381328Y-85646200D01*
X146393588Y-85770682D01*
X146429898Y-85890380D01*
X146488863Y-86000694D01*
X146568215Y-86097385D01*
X146664906Y-86176737D01*
X146775220Y-86235702D01*
X146894918Y-86272012D01*
X147019400Y-86284272D01*
X148233650Y-86281200D01*
X148392400Y-86122450D01*
X148392400Y-84023200D01*
X148646400Y-84023200D01*
X148646400Y-86122450D01*
X148805150Y-86281200D01*
X150019400Y-86284272D01*
X150143882Y-86272012D01*
X150263580Y-86235702D01*
X150373894Y-86176737D01*
X150470585Y-86097385D01*
X150549937Y-86000694D01*
X150608902Y-85890380D01*
X150645212Y-85770682D01*
X150657472Y-85646200D01*
X150654400Y-84181950D01*
X150495650Y-84023200D01*
X148646400Y-84023200D01*
X148392400Y-84023200D01*
X146543150Y-84023200D01*
X146384400Y-84181950D01*
X146381328Y-85646200D01*
X144907472Y-85646200D01*
X144907472Y-82146200D01*
X146381328Y-82146200D01*
X146384400Y-83610450D01*
X146543150Y-83769200D01*
X148392400Y-83769200D01*
X148392400Y-81669950D01*
X148646400Y-81669950D01*
X148646400Y-83769200D01*
X150495650Y-83769200D01*
X150654400Y-83610450D01*
X150657472Y-82146200D01*
X150645212Y-82021718D01*
X150608902Y-81902020D01*
X150549937Y-81791706D01*
X150470585Y-81695015D01*
X150373894Y-81615663D01*
X150263580Y-81556698D01*
X150143882Y-81520388D01*
X150019400Y-81508128D01*
X148805150Y-81511200D01*
X148646400Y-81669950D01*
X148392400Y-81669950D01*
X148233650Y-81511200D01*
X147019400Y-81508128D01*
X146894918Y-81520388D01*
X146775220Y-81556698D01*
X146664906Y-81615663D01*
X146568215Y-81695015D01*
X146488863Y-81791706D01*
X146429898Y-81902020D01*
X146393588Y-82021718D01*
X146381328Y-82146200D01*
X144907472Y-82146200D01*
X144895212Y-82021718D01*
X144858902Y-81902020D01*
X144799937Y-81791706D01*
X144720585Y-81695015D01*
X144623894Y-81615663D01*
X144547269Y-81574706D01*
X144644400Y-81584272D01*
X146394400Y-81584272D01*
X146689586Y-81555199D01*
X146973428Y-81469096D01*
X147235018Y-81329273D01*
X147464303Y-81141103D01*
X147652473Y-80911818D01*
X147792296Y-80650228D01*
X147878399Y-80366386D01*
X147907472Y-80071200D01*
X147907472Y-78321200D01*
X147878399Y-78026014D01*
X147792296Y-77742172D01*
X147652473Y-77480582D01*
X147464303Y-77251297D01*
X147235018Y-77063127D01*
X146973428Y-76923304D01*
X146689586Y-76837201D01*
X146394400Y-76808128D01*
X145212215Y-76808128D01*
X145240508Y-76730013D01*
X149828892Y-76730013D01*
X149924656Y-76994414D01*
X150214271Y-77135304D01*
X150525808Y-77216984D01*
X150847295Y-77236318D01*
X151166375Y-77192561D01*
X151470788Y-77087395D01*
X151644744Y-76994414D01*
X151740508Y-76730013D01*
X150784700Y-75774205D01*
X149828892Y-76730013D01*
X145240508Y-76730013D01*
X144284700Y-75774205D01*
X143328892Y-76730013D01*
X143424656Y-76994414D01*
X143714271Y-77135304D01*
X143715456Y-77135615D01*
X143574497Y-77251297D01*
X143386327Y-77480582D01*
X143246504Y-77742172D01*
X143160401Y-78026014D01*
X143131328Y-78321200D01*
X143131328Y-80071200D01*
X143160401Y-80366386D01*
X143246504Y-80650228D01*
X143386327Y-80911818D01*
X143574497Y-81141103D01*
X143803782Y-81329273D01*
X144065372Y-81469096D01*
X144194043Y-81508128D01*
X140906907Y-81508128D01*
X141138471Y-81276564D01*
X141263091Y-81209953D01*
X141398459Y-81098859D01*
X141509553Y-80963491D01*
X141592103Y-80809051D01*
X141642936Y-80641474D01*
X141660101Y-80467200D01*
X141655800Y-80423533D01*
X141655800Y-75657195D01*
X142642982Y-75657195D01*
X142686739Y-75976275D01*
X142791905Y-76280688D01*
X142884886Y-76454644D01*
X143149287Y-76550408D01*
X144105095Y-75594600D01*
X144464305Y-75594600D01*
X145420113Y-76550408D01*
X145684514Y-76454644D01*
X145825404Y-76165029D01*
X145907084Y-75853492D01*
X145918889Y-75657195D01*
X149142982Y-75657195D01*
X149186739Y-75976275D01*
X149291905Y-76280688D01*
X149384886Y-76454644D01*
X149649287Y-76550408D01*
X150605095Y-75594600D01*
X149649287Y-74638792D01*
X149384886Y-74734556D01*
X149243996Y-75024171D01*
X149162316Y-75335708D01*
X149142982Y-75657195D01*
X145918889Y-75657195D01*
X145926418Y-75532005D01*
X145882661Y-75212925D01*
X145777495Y-74908512D01*
X145684514Y-74734556D01*
X145420113Y-74638792D01*
X144464305Y-75594600D01*
X144105095Y-75594600D01*
X143149287Y-74638792D01*
X142884886Y-74734556D01*
X142743996Y-75024171D01*
X142662316Y-75335708D01*
X142642982Y-75657195D01*
X141655800Y-75657195D01*
X141655800Y-74817249D01*
X141681559Y-74800037D01*
X141881437Y-74600159D01*
X141975631Y-74459187D01*
X143328892Y-74459187D01*
X144284700Y-75414995D01*
X145240508Y-74459187D01*
X149828892Y-74459187D01*
X150784700Y-75414995D01*
X151740508Y-74459187D01*
X151644744Y-74194786D01*
X151355129Y-74053896D01*
X151043592Y-73972216D01*
X150722105Y-73952882D01*
X150403025Y-73996639D01*
X150098612Y-74101805D01*
X149924656Y-74194786D01*
X149828892Y-74459187D01*
X145240508Y-74459187D01*
X145144744Y-74194786D01*
X144855129Y-74053896D01*
X144543592Y-73972216D01*
X144222105Y-73952882D01*
X143903025Y-73996639D01*
X143598612Y-74101805D01*
X143424656Y-74194786D01*
X143328892Y-74459187D01*
X141975631Y-74459187D01*
X142038480Y-74365127D01*
X142146653Y-74103974D01*
X142201800Y-73826735D01*
X142201800Y-73544065D01*
X142146653Y-73266826D01*
X142038480Y-73005673D01*
X141881437Y-72770641D01*
X141681559Y-72570763D01*
X141449041Y-72415400D01*
X141681559Y-72260037D01*
X141881437Y-72060159D01*
X142038480Y-71825127D01*
X142146653Y-71563974D01*
X142201800Y-71286735D01*
X142201800Y-71004065D01*
X142146653Y-70726826D01*
X142038480Y-70465673D01*
X141881437Y-70230641D01*
X141681559Y-70030763D01*
X141676292Y-70027244D01*
X143032487Y-70034574D01*
X143014713Y-70052348D01*
X142835782Y-70320137D01*
X142712532Y-70617688D01*
X142649700Y-70933567D01*
X142649700Y-71255633D01*
X142712532Y-71571512D01*
X142835782Y-71869063D01*
X143014713Y-72136852D01*
X143242448Y-72364587D01*
X143510237Y-72543518D01*
X143807788Y-72666768D01*
X144123667Y-72729600D01*
X144445733Y-72729600D01*
X144761612Y-72666768D01*
X145059163Y-72543518D01*
X145326952Y-72364587D01*
X145554687Y-72136852D01*
X145733618Y-71869063D01*
X145856868Y-71571512D01*
X145919700Y-71255633D01*
X145919700Y-70933567D01*
X145856868Y-70617688D01*
X145733618Y-70320137D01*
X145554687Y-70052348D01*
X145550523Y-70048184D01*
X149503220Y-70069548D01*
X149335782Y-70320137D01*
X149212532Y-70617688D01*
X149149700Y-70933567D01*
X149149700Y-71255633D01*
X149212532Y-71571512D01*
X149335782Y-71869063D01*
X149514713Y-72136852D01*
X149742448Y-72364587D01*
X150010237Y-72543518D01*
X150307788Y-72666768D01*
X150623667Y-72729600D01*
X150945733Y-72729600D01*
X151261612Y-72666768D01*
X151559163Y-72543518D01*
X151826952Y-72364587D01*
X151991060Y-72200479D01*
X151991060Y-74664488D01*
X151920113Y-74638792D01*
X150964305Y-75594600D01*
X151920113Y-76550408D01*
X151991060Y-76524712D01*
X151991060Y-94595950D01*
X145358599Y-94595950D01*
X145450294Y-94546937D01*
X145546985Y-94467585D01*
X145626337Y-94370894D01*
X145685302Y-94260580D01*
X145721612Y-94140882D01*
X145733872Y-94016400D01*
X145733872Y-92216400D01*
X145721612Y-92091918D01*
X145685302Y-91972220D01*
X145626337Y-91861906D01*
X145546985Y-91765215D01*
X145450294Y-91685863D01*
X145339980Y-91626898D01*
X145321673Y-91621344D01*
X145388112Y-91554905D01*
X145556099Y-91303495D01*
X145671811Y-91024143D01*
X145730800Y-90727584D01*
X145730800Y-90425216D01*
X145671811Y-90128657D01*
X145556099Y-89849305D01*
X145388112Y-89597895D01*
X145174305Y-89384088D01*
X144922895Y-89216101D01*
X144643543Y-89100389D01*
X144346984Y-89041400D01*
X144044616Y-89041400D01*
X143748057Y-89100389D01*
X143468705Y-89216101D01*
X143217295Y-89384088D01*
X143003488Y-89597895D01*
X142835501Y-89849305D01*
X142719789Y-90128657D01*
X142660800Y-90425216D01*
X142660800Y-90727584D01*
X142719789Y-91024143D01*
X142835501Y-91303495D01*
X143003488Y-91554905D01*
X143069927Y-91621344D01*
X143051620Y-91626898D01*
X142941306Y-91685863D01*
X142844615Y-91765215D01*
X142765263Y-91861906D01*
X142706298Y-91972220D01*
X142669988Y-92091918D01*
X142657728Y-92216400D01*
X142657728Y-94016400D01*
X142669988Y-94140882D01*
X142706298Y-94260580D01*
X142765263Y-94370894D01*
X142844615Y-94467585D01*
X142941306Y-94546937D01*
X143033001Y-94595950D01*
X141737159Y-94595950D01*
X138540834Y-94574444D01*
X138592294Y-94546937D01*
X138688985Y-94467585D01*
X138768337Y-94370894D01*
X138827302Y-94260580D01*
X138863612Y-94140882D01*
X138875872Y-94016400D01*
X138875872Y-92216400D01*
X138863612Y-92091918D01*
X138827302Y-91972220D01*
X138768337Y-91861906D01*
X138688985Y-91765215D01*
X138592294Y-91685863D01*
X138481980Y-91626898D01*
X138463673Y-91621344D01*
X138530112Y-91554905D01*
X138698099Y-91303495D01*
X138813811Y-91024143D01*
X138872800Y-90727584D01*
X138872800Y-90425216D01*
X138813811Y-90128657D01*
X138698099Y-89849305D01*
X138530112Y-89597895D01*
X138316305Y-89384088D01*
X138064895Y-89216101D01*
X137785543Y-89100389D01*
X137488984Y-89041400D01*
X137186616Y-89041400D01*
X136890057Y-89100389D01*
X136610705Y-89216101D01*
X136359295Y-89384088D01*
X136145488Y-89597895D01*
X135977501Y-89849305D01*
X135861789Y-90128657D01*
X135802800Y-90425216D01*
X135802800Y-90727584D01*
X135861789Y-91024143D01*
X135977501Y-91303495D01*
X136145488Y-91554905D01*
X136211927Y-91621344D01*
X136193620Y-91626898D01*
X136083306Y-91685863D01*
X135986615Y-91765215D01*
X135907263Y-91861906D01*
X135848298Y-91972220D01*
X135811988Y-92091918D01*
X135799728Y-92216400D01*
X135799728Y-94016400D01*
X135811988Y-94140882D01*
X135848298Y-94260580D01*
X135907263Y-94370894D01*
X135986615Y-94467585D01*
X136083306Y-94546937D01*
X136104093Y-94558048D01*
X131882368Y-94529642D01*
X131957985Y-94467585D01*
X132037337Y-94370894D01*
X132096302Y-94260580D01*
X132132612Y-94140882D01*
X132144872Y-94016400D01*
X132144872Y-92216400D01*
X132132612Y-92091918D01*
X132096302Y-91972220D01*
X132037337Y-91861906D01*
X131957985Y-91765215D01*
X131861294Y-91685863D01*
X131750980Y-91626898D01*
X131732673Y-91621344D01*
X131799112Y-91554905D01*
X131967099Y-91303495D01*
X132082811Y-91024143D01*
X132141800Y-90727584D01*
X132141800Y-90425216D01*
X132082811Y-90128657D01*
X131967099Y-89849305D01*
X131799112Y-89597895D01*
X131585305Y-89384088D01*
X131333895Y-89216101D01*
X131054543Y-89100389D01*
X130757984Y-89041400D01*
X130455616Y-89041400D01*
X130159057Y-89100389D01*
X129879705Y-89216101D01*
X129628295Y-89384088D01*
X129414488Y-89597895D01*
X129246501Y-89849305D01*
X129130789Y-90128657D01*
X129071800Y-90425216D01*
X129071800Y-90727584D01*
X129130789Y-91024143D01*
X129246501Y-91303495D01*
X129414488Y-91554905D01*
X129480927Y-91621344D01*
X129462620Y-91626898D01*
X129352306Y-91685863D01*
X129255615Y-91765215D01*
X129176263Y-91861906D01*
X129117298Y-91972220D01*
X129080988Y-92091918D01*
X129068728Y-92216400D01*
X129068728Y-94016400D01*
X129080988Y-94140882D01*
X129117298Y-94260580D01*
X129176263Y-94370894D01*
X129255615Y-94467585D01*
X129310144Y-94512335D01*
X118314314Y-94438350D01*
X118616081Y-94378325D01*
X118931831Y-94247537D01*
X119215998Y-94057663D01*
X119457663Y-93815998D01*
X119647537Y-93531831D01*
X119778325Y-93216081D01*
X119789353Y-93160639D01*
X120883696Y-93160639D01*
X120924354Y-93294687D01*
X121044563Y-93549020D01*
X121212081Y-93775014D01*
X121420469Y-93963985D01*
X121661719Y-94108670D01*
X121926560Y-94203509D01*
X122148600Y-94082224D01*
X122148600Y-92938600D01*
X121005685Y-92938600D01*
X120883696Y-93160639D01*
X119789353Y-93160639D01*
X119845000Y-92880883D01*
X119845000Y-92539117D01*
X119829773Y-92462561D01*
X120883696Y-92462561D01*
X121005685Y-92684600D01*
X122148600Y-92684600D01*
X122148600Y-91540976D01*
X122402600Y-91540976D01*
X122402600Y-92684600D01*
X122422600Y-92684600D01*
X122422600Y-92938600D01*
X122402600Y-92938600D01*
X122402600Y-94082224D01*
X122624640Y-94203509D01*
X122889481Y-94108670D01*
X123130731Y-93963985D01*
X123339119Y-93775014D01*
X123506637Y-93549020D01*
X123539243Y-93480035D01*
X123543920Y-93491327D01*
X123700963Y-93726359D01*
X123900841Y-93926237D01*
X124135873Y-94083280D01*
X124397026Y-94191453D01*
X124674265Y-94246600D01*
X124956935Y-94246600D01*
X125234174Y-94191453D01*
X125495327Y-94083280D01*
X125730359Y-93926237D01*
X125930237Y-93726359D01*
X126087280Y-93491327D01*
X126195453Y-93230174D01*
X126250600Y-92952935D01*
X126250600Y-92670265D01*
X126195453Y-92393026D01*
X126087280Y-92131873D01*
X125930237Y-91896841D01*
X125730359Y-91696963D01*
X125495327Y-91539920D01*
X125234174Y-91431747D01*
X124956935Y-91376600D01*
X124674265Y-91376600D01*
X124397026Y-91431747D01*
X124135873Y-91539920D01*
X123900841Y-91696963D01*
X123700963Y-91896841D01*
X123543920Y-92131873D01*
X123539243Y-92143165D01*
X123506637Y-92074180D01*
X123339119Y-91848186D01*
X123130731Y-91659215D01*
X122889481Y-91514530D01*
X122624640Y-91419691D01*
X122402600Y-91540976D01*
X122148600Y-91540976D01*
X121926560Y-91419691D01*
X121661719Y-91514530D01*
X121420469Y-91659215D01*
X121212081Y-91848186D01*
X121044563Y-92074180D01*
X120924354Y-92328513D01*
X120883696Y-92462561D01*
X119829773Y-92462561D01*
X119778325Y-92203919D01*
X119647537Y-91888169D01*
X119457663Y-91604002D01*
X119215998Y-91362337D01*
X118931831Y-91172463D01*
X118616081Y-91041675D01*
X118290238Y-90976861D01*
X118305816Y-88212380D01*
X118337604Y-88372187D01*
X118491007Y-88742534D01*
X118713713Y-89075837D01*
X118997163Y-89359287D01*
X119330466Y-89581993D01*
X119700813Y-89735396D01*
X120093970Y-89813600D01*
X120494830Y-89813600D01*
X120887987Y-89735396D01*
X121258334Y-89581993D01*
X121591637Y-89359287D01*
X121875087Y-89075837D01*
X122097793Y-88742534D01*
X122251196Y-88372187D01*
X122329400Y-87979030D01*
X122329400Y-87744300D01*
X123831557Y-87744300D01*
X123837700Y-87806673D01*
X123837700Y-87869384D01*
X123849934Y-87930888D01*
X123856077Y-87993263D01*
X123874271Y-88053239D01*
X123886505Y-88114745D01*
X123910505Y-88172687D01*
X123928698Y-88232659D01*
X123958241Y-88287930D01*
X123982241Y-88345871D01*
X124017082Y-88398015D01*
X124046626Y-88453287D01*
X124086387Y-88501736D01*
X124121227Y-88553878D01*
X124165566Y-88598217D01*
X124205330Y-88646670D01*
X124253783Y-88686434D01*
X124298122Y-88730773D01*
X124350264Y-88765613D01*
X124398713Y-88805374D01*
X124453985Y-88834918D01*
X124506129Y-88869759D01*
X124564070Y-88893759D01*
X124619341Y-88923302D01*
X124679313Y-88941495D01*
X124737255Y-88965495D01*
X124798761Y-88977729D01*
X124858737Y-88995923D01*
X124921112Y-89002066D01*
X124982616Y-89014300D01*
X125045327Y-89014300D01*
X125107700Y-89020443D01*
X125170073Y-89014300D01*
X125232784Y-89014300D01*
X125294288Y-89002066D01*
X125356663Y-88995923D01*
X125416639Y-88977729D01*
X125478145Y-88965495D01*
X125536087Y-88941495D01*
X125596059Y-88923302D01*
X125651330Y-88893759D01*
X125709271Y-88869759D01*
X125761415Y-88834918D01*
X125816687Y-88805374D01*
X125865135Y-88765614D01*
X125917278Y-88730773D01*
X126075914Y-88572137D01*
X126124370Y-88532370D01*
X126283075Y-88338988D01*
X126401003Y-88118359D01*
X126473623Y-87878963D01*
X126492000Y-87692380D01*
X126498144Y-87630000D01*
X126492000Y-87567620D01*
X126492000Y-74287650D01*
X126510051Y-74269600D01*
X132395584Y-74269600D01*
X132457085Y-74257367D01*
X132519463Y-74251223D01*
X132579441Y-74233029D01*
X132640945Y-74220795D01*
X132698880Y-74196797D01*
X132758859Y-74178603D01*
X132814139Y-74149055D01*
X132872071Y-74125059D01*
X132924204Y-74090225D01*
X132979488Y-74060675D01*
X133027945Y-74020907D01*
X133080078Y-73986073D01*
X133124414Y-73941737D01*
X133172870Y-73901970D01*
X133212637Y-73853514D01*
X133256973Y-73809178D01*
X133291807Y-73757045D01*
X133331575Y-73708588D01*
X133361125Y-73653304D01*
X133395959Y-73601171D01*
X133419955Y-73543239D01*
X133449503Y-73487959D01*
X133467697Y-73427980D01*
X133491695Y-73370045D01*
X133503929Y-73308541D01*
X133522123Y-73248563D01*
X133528267Y-73186185D01*
X133540500Y-73124684D01*
X133540500Y-73061980D01*
X133546644Y-72999600D01*
X133540500Y-72937220D01*
X133540500Y-72874516D01*
X133528267Y-72813015D01*
X133522123Y-72750637D01*
X133503929Y-72690659D01*
X133491695Y-72629155D01*
X133467697Y-72571220D01*
X133449503Y-72511241D01*
X133419955Y-72455961D01*
X133395959Y-72398029D01*
X133361125Y-72345896D01*
X133331575Y-72290612D01*
X133291807Y-72242155D01*
X133256973Y-72190022D01*
X133212637Y-72145686D01*
X133172870Y-72097230D01*
X133124414Y-72057463D01*
X133080078Y-72013127D01*
X133027945Y-71978293D01*
X132979488Y-71938525D01*
X132924204Y-71908975D01*
X132872071Y-71874141D01*
X132814139Y-71850145D01*
X132758859Y-71820597D01*
X132698880Y-71802403D01*
X132640945Y-71778405D01*
X132579441Y-71766171D01*
X132519463Y-71747977D01*
X132457085Y-71741833D01*
X132395584Y-71729600D01*
X126046380Y-71729600D01*
X125984000Y-71723456D01*
X125921620Y-71729600D01*
X125735037Y-71747977D01*
X125495641Y-71820597D01*
X125275012Y-71938525D01*
X125081630Y-72097230D01*
X125041863Y-72145686D01*
X124368091Y-72819459D01*
X124319630Y-72859230D01*
X124160925Y-73052613D01*
X124042997Y-73273242D01*
X124013632Y-73370045D01*
X123970836Y-73511126D01*
X123970377Y-73512638D01*
X123952000Y-73699221D01*
X123952000Y-73699227D01*
X123945857Y-73761600D01*
X123952000Y-73823973D01*
X123952001Y-87212344D01*
X123928698Y-87255941D01*
X123910505Y-87315913D01*
X123886505Y-87373855D01*
X123874271Y-87435361D01*
X123856077Y-87495337D01*
X123849934Y-87557712D01*
X123837700Y-87619216D01*
X123837700Y-87681927D01*
X123831557Y-87744300D01*
X122329400Y-87744300D01*
X122329400Y-87578170D01*
X122251196Y-87185013D01*
X122097793Y-86814666D01*
X121875087Y-86481363D01*
X121591637Y-86197913D01*
X121258334Y-85975207D01*
X120887987Y-85821804D01*
X120494830Y-85743600D01*
X120093970Y-85743600D01*
X119700813Y-85821804D01*
X119330466Y-85975207D01*
X118997163Y-86197913D01*
X118713713Y-86481363D01*
X118491007Y-86814666D01*
X118337604Y-87185013D01*
X118310848Y-87319525D01*
X118326939Y-84464016D01*
X118363863Y-84533094D01*
X118443215Y-84629785D01*
X118539906Y-84709137D01*
X118650220Y-84768102D01*
X118769918Y-84804412D01*
X118894400Y-84816672D01*
X120008650Y-84813600D01*
X120167400Y-84654850D01*
X120167400Y-82905600D01*
X120421400Y-82905600D01*
X120421400Y-84654850D01*
X120580150Y-84813600D01*
X121694400Y-84816672D01*
X121818882Y-84804412D01*
X121938580Y-84768102D01*
X122048894Y-84709137D01*
X122145585Y-84629785D01*
X122224937Y-84533094D01*
X122283902Y-84422780D01*
X122320212Y-84303082D01*
X122332472Y-84178600D01*
X122329400Y-83064350D01*
X122170650Y-82905600D01*
X120421400Y-82905600D01*
X120167400Y-82905600D01*
X120147400Y-82905600D01*
X120147400Y-82651600D01*
X120167400Y-82651600D01*
X120167400Y-80902350D01*
X120421400Y-80902350D01*
X120421400Y-82651600D01*
X122170650Y-82651600D01*
X122329400Y-82492850D01*
X122332472Y-81378600D01*
X122320212Y-81254118D01*
X122283902Y-81134420D01*
X122224937Y-81024106D01*
X122145585Y-80927415D01*
X122048894Y-80848063D01*
X121938580Y-80789098D01*
X121818882Y-80752788D01*
X121694400Y-80740528D01*
X120580150Y-80743600D01*
X120421400Y-80902350D01*
X120167400Y-80902350D01*
X120008650Y-80743600D01*
X118894400Y-80740528D01*
X118769918Y-80752788D01*
X118650220Y-80789098D01*
X118539906Y-80848063D01*
X118443215Y-80927415D01*
X118363863Y-81024106D01*
X118346137Y-81057268D01*
X118355498Y-79396109D01*
X118465303Y-79286304D01*
X118536886Y-79530271D01*
X118792396Y-79651171D01*
X119066584Y-79719900D01*
X119348912Y-79733817D01*
X119628530Y-79692387D01*
X119894692Y-79597203D01*
X120019914Y-79530271D01*
X120091497Y-79286302D01*
X119278400Y-78473205D01*
X119264258Y-78487348D01*
X119084653Y-78307743D01*
X119098795Y-78293600D01*
X119458005Y-78293600D01*
X120271102Y-79106697D01*
X120515071Y-79035114D01*
X120635971Y-78779604D01*
X120704700Y-78505416D01*
X120718617Y-78223088D01*
X120677187Y-77943470D01*
X120582003Y-77677308D01*
X120515071Y-77552086D01*
X120271102Y-77480503D01*
X119458005Y-78293600D01*
X119098795Y-78293600D01*
X119084653Y-78279458D01*
X119264258Y-78099853D01*
X119278400Y-78113995D01*
X120091497Y-77300898D01*
X120071185Y-77231672D01*
X120078400Y-77231672D01*
X120202882Y-77219412D01*
X120322580Y-77183102D01*
X120432894Y-77124137D01*
X120529585Y-77044785D01*
X120608937Y-76948094D01*
X120667902Y-76837780D01*
X120704212Y-76718082D01*
X120716472Y-76593600D01*
X120716472Y-74993600D01*
X120704212Y-74869118D01*
X120667902Y-74749420D01*
X120608937Y-74639106D01*
X120529585Y-74542415D01*
X120432894Y-74463063D01*
X120322580Y-74404098D01*
X120202882Y-74367788D01*
X120078400Y-74355528D01*
X118478400Y-74355528D01*
X118383851Y-74364840D01*
X118388185Y-73595656D01*
X118616081Y-73550325D01*
X118931831Y-73419537D01*
X119215998Y-73229663D01*
X119457663Y-72987998D01*
X119647537Y-72703831D01*
X119778325Y-72388081D01*
X119845000Y-72052883D01*
X119845000Y-71711117D01*
X119778325Y-71375919D01*
X119647537Y-71060169D01*
X119457663Y-70776002D01*
X119215998Y-70534337D01*
X118931831Y-70344463D01*
X118616081Y-70213675D01*
X118407478Y-70172181D01*
X118408327Y-70021450D01*
X136500479Y-70021450D01*
X136486541Y-70030763D01*
G04 #@! TA.AperFunction,Conductor*
D24*
G36*
X136486541Y-70030763D02*
G01*
X136286663Y-70230641D01*
X136129620Y-70465673D01*
X136021447Y-70726826D01*
X135966300Y-71004065D01*
X135966300Y-71286735D01*
X136021447Y-71563974D01*
X136129620Y-71825127D01*
X136286663Y-72060159D01*
X136486541Y-72260037D01*
X136719059Y-72415400D01*
X136486541Y-72570763D01*
X136286663Y-72770641D01*
X136129620Y-73005673D01*
X136021447Y-73266826D01*
X135966300Y-73544065D01*
X135966300Y-73826735D01*
X136021447Y-74103974D01*
X136129620Y-74365127D01*
X136286663Y-74600159D01*
X136486541Y-74800037D01*
X136512300Y-74817249D01*
X136512301Y-77381163D01*
X135439420Y-78454044D01*
X135409035Y-78448000D01*
X135126365Y-78448000D01*
X134849126Y-78503147D01*
X134587973Y-78611320D01*
X134352941Y-78768363D01*
X134153063Y-78968241D01*
X133997700Y-79200759D01*
X133842337Y-78968241D01*
X133642459Y-78768363D01*
X133407427Y-78611320D01*
X133146274Y-78503147D01*
X132869035Y-78448000D01*
X132586365Y-78448000D01*
X132309126Y-78503147D01*
X132047973Y-78611320D01*
X131812941Y-78768363D01*
X131613063Y-78968241D01*
X131457700Y-79200759D01*
X131302337Y-78968241D01*
X131102459Y-78768363D01*
X130867427Y-78611320D01*
X130606274Y-78503147D01*
X130329035Y-78448000D01*
X130046365Y-78448000D01*
X129769126Y-78503147D01*
X129507973Y-78611320D01*
X129272941Y-78768363D01*
X129073063Y-78968241D01*
X128916020Y-79203273D01*
X128807847Y-79464426D01*
X128752700Y-79741665D01*
X128752700Y-80024335D01*
X128807847Y-80301574D01*
X128916020Y-80562727D01*
X129073063Y-80797759D01*
X129272941Y-80997637D01*
X129507973Y-81154680D01*
X129769126Y-81262853D01*
X130046365Y-81318000D01*
X130329035Y-81318000D01*
X130606274Y-81262853D01*
X130867427Y-81154680D01*
X131102459Y-80997637D01*
X131302337Y-80797759D01*
X131457700Y-80565241D01*
X131613063Y-80797759D01*
X131812941Y-80997637D01*
X132047973Y-81154680D01*
X132309126Y-81262853D01*
X132586365Y-81318000D01*
X132869035Y-81318000D01*
X133146274Y-81262853D01*
X133407427Y-81154680D01*
X133642459Y-80997637D01*
X133842337Y-80797759D01*
X133997700Y-80565241D01*
X134153063Y-80797759D01*
X134352941Y-80997637D01*
X134587973Y-81154680D01*
X134849126Y-81262853D01*
X135126365Y-81318000D01*
X135409035Y-81318000D01*
X135686274Y-81262853D01*
X135947427Y-81154680D01*
X136182459Y-80997637D01*
X136382337Y-80797759D01*
X136537700Y-80565241D01*
X136693063Y-80797759D01*
X136892941Y-80997637D01*
X137127973Y-81154680D01*
X137389126Y-81262853D01*
X137666365Y-81318000D01*
X137949035Y-81318000D01*
X138226274Y-81262853D01*
X138487427Y-81154680D01*
X138722459Y-80997637D01*
X138922337Y-80797759D01*
X139079380Y-80562727D01*
X139187553Y-80301574D01*
X139242700Y-80024335D01*
X139242700Y-79741665D01*
X139187553Y-79464426D01*
X139079380Y-79203273D01*
X138922337Y-78968241D01*
X138722459Y-78768363D01*
X138487427Y-78611320D01*
X138226274Y-78503147D01*
X137958127Y-78449809D01*
X137999042Y-78408894D01*
X138032959Y-78381059D01*
X138144053Y-78245691D01*
X138226603Y-78091251D01*
X138277436Y-77923674D01*
X138290300Y-77793067D01*
X138290300Y-77793061D01*
X138294600Y-77749401D01*
X138290300Y-77705741D01*
X138290300Y-74817249D01*
X138316059Y-74800037D01*
X138515937Y-74600159D01*
X138672980Y-74365127D01*
X138781153Y-74103974D01*
X138836300Y-73826735D01*
X138836300Y-73544065D01*
X138781153Y-73266826D01*
X138672980Y-73005673D01*
X138515937Y-72770641D01*
X138316059Y-72570763D01*
X138083541Y-72415400D01*
X138316059Y-72260037D01*
X138515937Y-72060159D01*
X138672980Y-71825127D01*
X138781153Y-71563974D01*
X138836300Y-71286735D01*
X138836300Y-71004065D01*
X138781153Y-70726826D01*
X138672980Y-70465673D01*
X138515937Y-70230641D01*
X138316059Y-70030763D01*
X138302121Y-70021450D01*
X139865979Y-70021450D01*
X139852041Y-70030763D01*
X139652163Y-70230641D01*
X139495120Y-70465673D01*
X139386947Y-70726826D01*
X139331800Y-71004065D01*
X139331800Y-71286735D01*
X139386947Y-71563974D01*
X139495120Y-71825127D01*
X139652163Y-72060159D01*
X139852041Y-72260037D01*
X140084559Y-72415400D01*
X139852041Y-72570763D01*
X139652163Y-72770641D01*
X139495120Y-73005673D01*
X139386947Y-73266826D01*
X139331800Y-73544065D01*
X139331800Y-73826735D01*
X139386947Y-74103974D01*
X139495120Y-74365127D01*
X139652163Y-74600159D01*
X139852041Y-74800037D01*
X139877801Y-74817249D01*
X139877800Y-80022765D01*
X138175159Y-81725406D01*
X138141242Y-81753241D01*
X138113407Y-81787158D01*
X138113405Y-81787160D01*
X138030148Y-81888609D01*
X137947598Y-82043048D01*
X137896764Y-82210626D01*
X137879600Y-82384900D01*
X137883901Y-82428570D01*
X137883900Y-84328064D01*
X137731565Y-84480400D01*
X130231367Y-84480400D01*
X130187700Y-84476099D01*
X130144033Y-84480400D01*
X130013426Y-84493264D01*
X129845849Y-84544097D01*
X129691409Y-84626647D01*
X129556041Y-84737741D01*
X129444947Y-84873109D01*
X129362397Y-85027549D01*
X129311564Y-85195126D01*
X129294399Y-85369400D01*
X129298701Y-85413077D01*
X129298701Y-86073693D01*
X129263218Y-86077188D01*
X129143520Y-86113498D01*
X129033206Y-86172463D01*
X128936515Y-86251815D01*
X128857163Y-86348506D01*
X128798198Y-86458820D01*
X128761888Y-86578518D01*
X128749628Y-86703000D01*
X128749628Y-88303000D01*
X128761888Y-88427482D01*
X128798198Y-88547180D01*
X128857163Y-88657494D01*
X128936515Y-88754185D01*
X129033206Y-88833537D01*
X129143520Y-88892502D01*
X129263218Y-88928812D01*
X129387700Y-88941072D01*
X130987700Y-88941072D01*
X131112182Y-88928812D01*
X131231880Y-88892502D01*
X131342194Y-88833537D01*
X131438885Y-88754185D01*
X131518237Y-88657494D01*
X131577202Y-88547180D01*
X131613512Y-88427482D01*
X131614343Y-88419039D01*
X131812941Y-88617637D01*
X132047973Y-88774680D01*
X132309126Y-88882853D01*
X132586365Y-88938000D01*
X132869035Y-88938000D01*
X133146274Y-88882853D01*
X133407427Y-88774680D01*
X133642459Y-88617637D01*
X133842337Y-88417759D01*
X133997700Y-88185241D01*
X134153063Y-88417759D01*
X134352941Y-88617637D01*
X134587973Y-88774680D01*
X134849126Y-88882853D01*
X135126365Y-88938000D01*
X135409035Y-88938000D01*
X135686274Y-88882853D01*
X135947427Y-88774680D01*
X136182459Y-88617637D01*
X136382337Y-88417759D01*
X136539380Y-88182727D01*
X136543767Y-88172135D01*
X136655315Y-88358131D01*
X136844286Y-88566519D01*
X137070280Y-88734037D01*
X137324613Y-88854246D01*
X137458661Y-88894904D01*
X137680700Y-88772915D01*
X137680700Y-87630000D01*
X137934700Y-87630000D01*
X137934700Y-88772915D01*
X138156739Y-88894904D01*
X138290787Y-88854246D01*
X138545120Y-88734037D01*
X138771114Y-88566519D01*
X138960085Y-88358131D01*
X139104770Y-88116881D01*
X139199609Y-87852040D01*
X139078324Y-87630000D01*
X137934700Y-87630000D01*
X137680700Y-87630000D01*
X137660700Y-87630000D01*
X137660700Y-87376000D01*
X137680700Y-87376000D01*
X137680700Y-87356000D01*
X137934700Y-87356000D01*
X137934700Y-87376000D01*
X139078324Y-87376000D01*
X139199609Y-87153960D01*
X139104770Y-86889119D01*
X138960085Y-86647869D01*
X138771114Y-86439481D01*
X138545120Y-86271963D01*
X138405109Y-86205788D01*
X138441651Y-86194703D01*
X138596091Y-86112153D01*
X138731459Y-86001059D01*
X138759298Y-85967137D01*
X139370642Y-85355794D01*
X139404559Y-85327959D01*
X139515653Y-85192591D01*
X139598203Y-85038151D01*
X139618196Y-84972242D01*
X139649036Y-84870576D01*
X139654345Y-84816672D01*
X139661900Y-84739967D01*
X139661900Y-84739961D01*
X139666200Y-84696301D01*
X139661900Y-84652641D01*
X139661900Y-82753135D01*
X140131328Y-82283707D01*
X140131328Y-85646200D01*
X140143588Y-85770682D01*
X140179898Y-85890380D01*
X140238863Y-86000694D01*
X140318215Y-86097385D01*
X140414906Y-86176737D01*
X140525220Y-86235702D01*
X140644918Y-86272012D01*
X140769400Y-86284272D01*
X144269400Y-86284272D01*
X144393882Y-86272012D01*
X144513580Y-86235702D01*
X144623894Y-86176737D01*
X144720585Y-86097385D01*
X144799937Y-86000694D01*
X144858902Y-85890380D01*
X144895212Y-85770682D01*
X144907472Y-85646200D01*
X146381328Y-85646200D01*
X146393588Y-85770682D01*
X146429898Y-85890380D01*
X146488863Y-86000694D01*
X146568215Y-86097385D01*
X146664906Y-86176737D01*
X146775220Y-86235702D01*
X146894918Y-86272012D01*
X147019400Y-86284272D01*
X148233650Y-86281200D01*
X148392400Y-86122450D01*
X148392400Y-84023200D01*
X148646400Y-84023200D01*
X148646400Y-86122450D01*
X148805150Y-86281200D01*
X150019400Y-86284272D01*
X150143882Y-86272012D01*
X150263580Y-86235702D01*
X150373894Y-86176737D01*
X150470585Y-86097385D01*
X150549937Y-86000694D01*
X150608902Y-85890380D01*
X150645212Y-85770682D01*
X150657472Y-85646200D01*
X150654400Y-84181950D01*
X150495650Y-84023200D01*
X148646400Y-84023200D01*
X148392400Y-84023200D01*
X146543150Y-84023200D01*
X146384400Y-84181950D01*
X146381328Y-85646200D01*
X144907472Y-85646200D01*
X144907472Y-82146200D01*
X146381328Y-82146200D01*
X146384400Y-83610450D01*
X146543150Y-83769200D01*
X148392400Y-83769200D01*
X148392400Y-81669950D01*
X148646400Y-81669950D01*
X148646400Y-83769200D01*
X150495650Y-83769200D01*
X150654400Y-83610450D01*
X150657472Y-82146200D01*
X150645212Y-82021718D01*
X150608902Y-81902020D01*
X150549937Y-81791706D01*
X150470585Y-81695015D01*
X150373894Y-81615663D01*
X150263580Y-81556698D01*
X150143882Y-81520388D01*
X150019400Y-81508128D01*
X148805150Y-81511200D01*
X148646400Y-81669950D01*
X148392400Y-81669950D01*
X148233650Y-81511200D01*
X147019400Y-81508128D01*
X146894918Y-81520388D01*
X146775220Y-81556698D01*
X146664906Y-81615663D01*
X146568215Y-81695015D01*
X146488863Y-81791706D01*
X146429898Y-81902020D01*
X146393588Y-82021718D01*
X146381328Y-82146200D01*
X144907472Y-82146200D01*
X144895212Y-82021718D01*
X144858902Y-81902020D01*
X144799937Y-81791706D01*
X144720585Y-81695015D01*
X144623894Y-81615663D01*
X144547269Y-81574706D01*
X144644400Y-81584272D01*
X146394400Y-81584272D01*
X146689586Y-81555199D01*
X146973428Y-81469096D01*
X147235018Y-81329273D01*
X147464303Y-81141103D01*
X147652473Y-80911818D01*
X147792296Y-80650228D01*
X147878399Y-80366386D01*
X147907472Y-80071200D01*
X147907472Y-78321200D01*
X147878399Y-78026014D01*
X147792296Y-77742172D01*
X147652473Y-77480582D01*
X147464303Y-77251297D01*
X147235018Y-77063127D01*
X146973428Y-76923304D01*
X146689586Y-76837201D01*
X146394400Y-76808128D01*
X145212215Y-76808128D01*
X145240508Y-76730013D01*
X149828892Y-76730013D01*
X149924656Y-76994414D01*
X150214271Y-77135304D01*
X150525808Y-77216984D01*
X150847295Y-77236318D01*
X151166375Y-77192561D01*
X151470788Y-77087395D01*
X151644744Y-76994414D01*
X151740508Y-76730013D01*
X150784700Y-75774205D01*
X149828892Y-76730013D01*
X145240508Y-76730013D01*
X144284700Y-75774205D01*
X143328892Y-76730013D01*
X143424656Y-76994414D01*
X143714271Y-77135304D01*
X143715456Y-77135615D01*
X143574497Y-77251297D01*
X143386327Y-77480582D01*
X143246504Y-77742172D01*
X143160401Y-78026014D01*
X143131328Y-78321200D01*
X143131328Y-80071200D01*
X143160401Y-80366386D01*
X143246504Y-80650228D01*
X143386327Y-80911818D01*
X143574497Y-81141103D01*
X143803782Y-81329273D01*
X144065372Y-81469096D01*
X144194043Y-81508128D01*
X140906907Y-81508128D01*
X141138471Y-81276564D01*
X141263091Y-81209953D01*
X141398459Y-81098859D01*
X141509553Y-80963491D01*
X141592103Y-80809051D01*
X141642936Y-80641474D01*
X141660101Y-80467200D01*
X141655800Y-80423533D01*
X141655800Y-75657195D01*
X142642982Y-75657195D01*
X142686739Y-75976275D01*
X142791905Y-76280688D01*
X142884886Y-76454644D01*
X143149287Y-76550408D01*
X144105095Y-75594600D01*
X144464305Y-75594600D01*
X145420113Y-76550408D01*
X145684514Y-76454644D01*
X145825404Y-76165029D01*
X145907084Y-75853492D01*
X145918889Y-75657195D01*
X149142982Y-75657195D01*
X149186739Y-75976275D01*
X149291905Y-76280688D01*
X149384886Y-76454644D01*
X149649287Y-76550408D01*
X150605095Y-75594600D01*
X149649287Y-74638792D01*
X149384886Y-74734556D01*
X149243996Y-75024171D01*
X149162316Y-75335708D01*
X149142982Y-75657195D01*
X145918889Y-75657195D01*
X145926418Y-75532005D01*
X145882661Y-75212925D01*
X145777495Y-74908512D01*
X145684514Y-74734556D01*
X145420113Y-74638792D01*
X144464305Y-75594600D01*
X144105095Y-75594600D01*
X143149287Y-74638792D01*
X142884886Y-74734556D01*
X142743996Y-75024171D01*
X142662316Y-75335708D01*
X142642982Y-75657195D01*
X141655800Y-75657195D01*
X141655800Y-74817249D01*
X141681559Y-74800037D01*
X141881437Y-74600159D01*
X141975631Y-74459187D01*
X143328892Y-74459187D01*
X144284700Y-75414995D01*
X145240508Y-74459187D01*
X149828892Y-74459187D01*
X150784700Y-75414995D01*
X151740508Y-74459187D01*
X151644744Y-74194786D01*
X151355129Y-74053896D01*
X151043592Y-73972216D01*
X150722105Y-73952882D01*
X150403025Y-73996639D01*
X150098612Y-74101805D01*
X149924656Y-74194786D01*
X149828892Y-74459187D01*
X145240508Y-74459187D01*
X145144744Y-74194786D01*
X144855129Y-74053896D01*
X144543592Y-73972216D01*
X144222105Y-73952882D01*
X143903025Y-73996639D01*
X143598612Y-74101805D01*
X143424656Y-74194786D01*
X143328892Y-74459187D01*
X141975631Y-74459187D01*
X142038480Y-74365127D01*
X142146653Y-74103974D01*
X142201800Y-73826735D01*
X142201800Y-73544065D01*
X142146653Y-73266826D01*
X142038480Y-73005673D01*
X141881437Y-72770641D01*
X141681559Y-72570763D01*
X141449041Y-72415400D01*
X141681559Y-72260037D01*
X141881437Y-72060159D01*
X142038480Y-71825127D01*
X142146653Y-71563974D01*
X142201800Y-71286735D01*
X142201800Y-71004065D01*
X142146653Y-70726826D01*
X142038480Y-70465673D01*
X141881437Y-70230641D01*
X141681559Y-70030763D01*
X141676292Y-70027244D01*
X143032487Y-70034574D01*
X143014713Y-70052348D01*
X142835782Y-70320137D01*
X142712532Y-70617688D01*
X142649700Y-70933567D01*
X142649700Y-71255633D01*
X142712532Y-71571512D01*
X142835782Y-71869063D01*
X143014713Y-72136852D01*
X143242448Y-72364587D01*
X143510237Y-72543518D01*
X143807788Y-72666768D01*
X144123667Y-72729600D01*
X144445733Y-72729600D01*
X144761612Y-72666768D01*
X145059163Y-72543518D01*
X145326952Y-72364587D01*
X145554687Y-72136852D01*
X145733618Y-71869063D01*
X145856868Y-71571512D01*
X145919700Y-71255633D01*
X145919700Y-70933567D01*
X145856868Y-70617688D01*
X145733618Y-70320137D01*
X145554687Y-70052348D01*
X145550523Y-70048184D01*
X149503220Y-70069548D01*
X149335782Y-70320137D01*
X149212532Y-70617688D01*
X149149700Y-70933567D01*
X149149700Y-71255633D01*
X149212532Y-71571512D01*
X149335782Y-71869063D01*
X149514713Y-72136852D01*
X149742448Y-72364587D01*
X150010237Y-72543518D01*
X150307788Y-72666768D01*
X150623667Y-72729600D01*
X150945733Y-72729600D01*
X151261612Y-72666768D01*
X151559163Y-72543518D01*
X151826952Y-72364587D01*
X151991060Y-72200479D01*
X151991060Y-74664488D01*
X151920113Y-74638792D01*
X150964305Y-75594600D01*
X151920113Y-76550408D01*
X151991060Y-76524712D01*
X151991060Y-94595950D01*
X145358599Y-94595950D01*
X145450294Y-94546937D01*
X145546985Y-94467585D01*
X145626337Y-94370894D01*
X145685302Y-94260580D01*
X145721612Y-94140882D01*
X145733872Y-94016400D01*
X145733872Y-92216400D01*
X145721612Y-92091918D01*
X145685302Y-91972220D01*
X145626337Y-91861906D01*
X145546985Y-91765215D01*
X145450294Y-91685863D01*
X145339980Y-91626898D01*
X145321673Y-91621344D01*
X145388112Y-91554905D01*
X145556099Y-91303495D01*
X145671811Y-91024143D01*
X145730800Y-90727584D01*
X145730800Y-90425216D01*
X145671811Y-90128657D01*
X145556099Y-89849305D01*
X145388112Y-89597895D01*
X145174305Y-89384088D01*
X144922895Y-89216101D01*
X144643543Y-89100389D01*
X144346984Y-89041400D01*
X144044616Y-89041400D01*
X143748057Y-89100389D01*
X143468705Y-89216101D01*
X143217295Y-89384088D01*
X143003488Y-89597895D01*
X142835501Y-89849305D01*
X142719789Y-90128657D01*
X142660800Y-90425216D01*
X142660800Y-90727584D01*
X142719789Y-91024143D01*
X142835501Y-91303495D01*
X143003488Y-91554905D01*
X143069927Y-91621344D01*
X143051620Y-91626898D01*
X142941306Y-91685863D01*
X142844615Y-91765215D01*
X142765263Y-91861906D01*
X142706298Y-91972220D01*
X142669988Y-92091918D01*
X142657728Y-92216400D01*
X142657728Y-94016400D01*
X142669988Y-94140882D01*
X142706298Y-94260580D01*
X142765263Y-94370894D01*
X142844615Y-94467585D01*
X142941306Y-94546937D01*
X143033001Y-94595950D01*
X141737159Y-94595950D01*
X138540834Y-94574444D01*
X138592294Y-94546937D01*
X138688985Y-94467585D01*
X138768337Y-94370894D01*
X138827302Y-94260580D01*
X138863612Y-94140882D01*
X138875872Y-94016400D01*
X138875872Y-92216400D01*
X138863612Y-92091918D01*
X138827302Y-91972220D01*
X138768337Y-91861906D01*
X138688985Y-91765215D01*
X138592294Y-91685863D01*
X138481980Y-91626898D01*
X138463673Y-91621344D01*
X138530112Y-91554905D01*
X138698099Y-91303495D01*
X138813811Y-91024143D01*
X138872800Y-90727584D01*
X138872800Y-90425216D01*
X138813811Y-90128657D01*
X138698099Y-89849305D01*
X138530112Y-89597895D01*
X138316305Y-89384088D01*
X138064895Y-89216101D01*
X137785543Y-89100389D01*
X137488984Y-89041400D01*
X137186616Y-89041400D01*
X136890057Y-89100389D01*
X136610705Y-89216101D01*
X136359295Y-89384088D01*
X136145488Y-89597895D01*
X135977501Y-89849305D01*
X135861789Y-90128657D01*
X135802800Y-90425216D01*
X135802800Y-90727584D01*
X135861789Y-91024143D01*
X135977501Y-91303495D01*
X136145488Y-91554905D01*
X136211927Y-91621344D01*
X136193620Y-91626898D01*
X136083306Y-91685863D01*
X135986615Y-91765215D01*
X135907263Y-91861906D01*
X135848298Y-91972220D01*
X135811988Y-92091918D01*
X135799728Y-92216400D01*
X135799728Y-94016400D01*
X135811988Y-94140882D01*
X135848298Y-94260580D01*
X135907263Y-94370894D01*
X135986615Y-94467585D01*
X136083306Y-94546937D01*
X136104093Y-94558048D01*
X131882368Y-94529642D01*
X131957985Y-94467585D01*
X132037337Y-94370894D01*
X132096302Y-94260580D01*
X132132612Y-94140882D01*
X132144872Y-94016400D01*
X132144872Y-92216400D01*
X132132612Y-92091918D01*
X132096302Y-91972220D01*
X132037337Y-91861906D01*
X131957985Y-91765215D01*
X131861294Y-91685863D01*
X131750980Y-91626898D01*
X131732673Y-91621344D01*
X131799112Y-91554905D01*
X131967099Y-91303495D01*
X132082811Y-91024143D01*
X132141800Y-90727584D01*
X132141800Y-90425216D01*
X132082811Y-90128657D01*
X131967099Y-89849305D01*
X131799112Y-89597895D01*
X131585305Y-89384088D01*
X131333895Y-89216101D01*
X131054543Y-89100389D01*
X130757984Y-89041400D01*
X130455616Y-89041400D01*
X130159057Y-89100389D01*
X129879705Y-89216101D01*
X129628295Y-89384088D01*
X129414488Y-89597895D01*
X129246501Y-89849305D01*
X129130789Y-90128657D01*
X129071800Y-90425216D01*
X129071800Y-90727584D01*
X129130789Y-91024143D01*
X129246501Y-91303495D01*
X129414488Y-91554905D01*
X129480927Y-91621344D01*
X129462620Y-91626898D01*
X129352306Y-91685863D01*
X129255615Y-91765215D01*
X129176263Y-91861906D01*
X129117298Y-91972220D01*
X129080988Y-92091918D01*
X129068728Y-92216400D01*
X129068728Y-94016400D01*
X129080988Y-94140882D01*
X129117298Y-94260580D01*
X129176263Y-94370894D01*
X129255615Y-94467585D01*
X129310144Y-94512335D01*
X118314314Y-94438350D01*
X118616081Y-94378325D01*
X118931831Y-94247537D01*
X119215998Y-94057663D01*
X119457663Y-93815998D01*
X119647537Y-93531831D01*
X119778325Y-93216081D01*
X119789353Y-93160639D01*
X120883696Y-93160639D01*
X120924354Y-93294687D01*
X121044563Y-93549020D01*
X121212081Y-93775014D01*
X121420469Y-93963985D01*
X121661719Y-94108670D01*
X121926560Y-94203509D01*
X122148600Y-94082224D01*
X122148600Y-92938600D01*
X121005685Y-92938600D01*
X120883696Y-93160639D01*
X119789353Y-93160639D01*
X119845000Y-92880883D01*
X119845000Y-92539117D01*
X119829773Y-92462561D01*
X120883696Y-92462561D01*
X121005685Y-92684600D01*
X122148600Y-92684600D01*
X122148600Y-91540976D01*
X122402600Y-91540976D01*
X122402600Y-92684600D01*
X122422600Y-92684600D01*
X122422600Y-92938600D01*
X122402600Y-92938600D01*
X122402600Y-94082224D01*
X122624640Y-94203509D01*
X122889481Y-94108670D01*
X123130731Y-93963985D01*
X123339119Y-93775014D01*
X123506637Y-93549020D01*
X123539243Y-93480035D01*
X123543920Y-93491327D01*
X123700963Y-93726359D01*
X123900841Y-93926237D01*
X124135873Y-94083280D01*
X124397026Y-94191453D01*
X124674265Y-94246600D01*
X124956935Y-94246600D01*
X125234174Y-94191453D01*
X125495327Y-94083280D01*
X125730359Y-93926237D01*
X125930237Y-93726359D01*
X126087280Y-93491327D01*
X126195453Y-93230174D01*
X126250600Y-92952935D01*
X126250600Y-92670265D01*
X126195453Y-92393026D01*
X126087280Y-92131873D01*
X125930237Y-91896841D01*
X125730359Y-91696963D01*
X125495327Y-91539920D01*
X125234174Y-91431747D01*
X124956935Y-91376600D01*
X124674265Y-91376600D01*
X124397026Y-91431747D01*
X124135873Y-91539920D01*
X123900841Y-91696963D01*
X123700963Y-91896841D01*
X123543920Y-92131873D01*
X123539243Y-92143165D01*
X123506637Y-92074180D01*
X123339119Y-91848186D01*
X123130731Y-91659215D01*
X122889481Y-91514530D01*
X122624640Y-91419691D01*
X122402600Y-91540976D01*
X122148600Y-91540976D01*
X121926560Y-91419691D01*
X121661719Y-91514530D01*
X121420469Y-91659215D01*
X121212081Y-91848186D01*
X121044563Y-92074180D01*
X120924354Y-92328513D01*
X120883696Y-92462561D01*
X119829773Y-92462561D01*
X119778325Y-92203919D01*
X119647537Y-91888169D01*
X119457663Y-91604002D01*
X119215998Y-91362337D01*
X118931831Y-91172463D01*
X118616081Y-91041675D01*
X118290238Y-90976861D01*
X118305816Y-88212380D01*
X118337604Y-88372187D01*
X118491007Y-88742534D01*
X118713713Y-89075837D01*
X118997163Y-89359287D01*
X119330466Y-89581993D01*
X119700813Y-89735396D01*
X120093970Y-89813600D01*
X120494830Y-89813600D01*
X120887987Y-89735396D01*
X121258334Y-89581993D01*
X121591637Y-89359287D01*
X121875087Y-89075837D01*
X122097793Y-88742534D01*
X122251196Y-88372187D01*
X122329400Y-87979030D01*
X122329400Y-87744300D01*
X123831557Y-87744300D01*
X123837700Y-87806673D01*
X123837700Y-87869384D01*
X123849934Y-87930888D01*
X123856077Y-87993263D01*
X123874271Y-88053239D01*
X123886505Y-88114745D01*
X123910505Y-88172687D01*
X123928698Y-88232659D01*
X123958241Y-88287930D01*
X123982241Y-88345871D01*
X124017082Y-88398015D01*
X124046626Y-88453287D01*
X124086387Y-88501736D01*
X124121227Y-88553878D01*
X124165566Y-88598217D01*
X124205330Y-88646670D01*
X124253783Y-88686434D01*
X124298122Y-88730773D01*
X124350264Y-88765613D01*
X124398713Y-88805374D01*
X124453985Y-88834918D01*
X124506129Y-88869759D01*
X124564070Y-88893759D01*
X124619341Y-88923302D01*
X124679313Y-88941495D01*
X124737255Y-88965495D01*
X124798761Y-88977729D01*
X124858737Y-88995923D01*
X124921112Y-89002066D01*
X124982616Y-89014300D01*
X125045327Y-89014300D01*
X125107700Y-89020443D01*
X125170073Y-89014300D01*
X125232784Y-89014300D01*
X125294288Y-89002066D01*
X125356663Y-88995923D01*
X125416639Y-88977729D01*
X125478145Y-88965495D01*
X125536087Y-88941495D01*
X125596059Y-88923302D01*
X125651330Y-88893759D01*
X125709271Y-88869759D01*
X125761415Y-88834918D01*
X125816687Y-88805374D01*
X125865135Y-88765614D01*
X125917278Y-88730773D01*
X126075914Y-88572137D01*
X126124370Y-88532370D01*
X126283075Y-88338988D01*
X126401003Y-88118359D01*
X126473623Y-87878963D01*
X126492000Y-87692380D01*
X126498144Y-87630000D01*
X126492000Y-87567620D01*
X126492000Y-74287650D01*
X126510051Y-74269600D01*
X132395584Y-74269600D01*
X132457085Y-74257367D01*
X132519463Y-74251223D01*
X132579441Y-74233029D01*
X132640945Y-74220795D01*
X132698880Y-74196797D01*
X132758859Y-74178603D01*
X132814139Y-74149055D01*
X132872071Y-74125059D01*
X132924204Y-74090225D01*
X132979488Y-74060675D01*
X133027945Y-74020907D01*
X133080078Y-73986073D01*
X133124414Y-73941737D01*
X133172870Y-73901970D01*
X133212637Y-73853514D01*
X133256973Y-73809178D01*
X133291807Y-73757045D01*
X133331575Y-73708588D01*
X133361125Y-73653304D01*
X133395959Y-73601171D01*
X133419955Y-73543239D01*
X133449503Y-73487959D01*
X133467697Y-73427980D01*
X133491695Y-73370045D01*
X133503929Y-73308541D01*
X133522123Y-73248563D01*
X133528267Y-73186185D01*
X133540500Y-73124684D01*
X133540500Y-73061980D01*
X133546644Y-72999600D01*
X133540500Y-72937220D01*
X133540500Y-72874516D01*
X133528267Y-72813015D01*
X133522123Y-72750637D01*
X133503929Y-72690659D01*
X133491695Y-72629155D01*
X133467697Y-72571220D01*
X133449503Y-72511241D01*
X133419955Y-72455961D01*
X133395959Y-72398029D01*
X133361125Y-72345896D01*
X133331575Y-72290612D01*
X133291807Y-72242155D01*
X133256973Y-72190022D01*
X133212637Y-72145686D01*
X133172870Y-72097230D01*
X133124414Y-72057463D01*
X133080078Y-72013127D01*
X133027945Y-71978293D01*
X132979488Y-71938525D01*
X132924204Y-71908975D01*
X132872071Y-71874141D01*
X132814139Y-71850145D01*
X132758859Y-71820597D01*
X132698880Y-71802403D01*
X132640945Y-71778405D01*
X132579441Y-71766171D01*
X132519463Y-71747977D01*
X132457085Y-71741833D01*
X132395584Y-71729600D01*
X126046380Y-71729600D01*
X125984000Y-71723456D01*
X125921620Y-71729600D01*
X125735037Y-71747977D01*
X125495641Y-71820597D01*
X125275012Y-71938525D01*
X125081630Y-72097230D01*
X125041863Y-72145686D01*
X124368091Y-72819459D01*
X124319630Y-72859230D01*
X124160925Y-73052613D01*
X124042997Y-73273242D01*
X124013632Y-73370045D01*
X123970836Y-73511126D01*
X123970377Y-73512638D01*
X123952000Y-73699221D01*
X123952000Y-73699227D01*
X123945857Y-73761600D01*
X123952000Y-73823973D01*
X123952001Y-87212344D01*
X123928698Y-87255941D01*
X123910505Y-87315913D01*
X123886505Y-87373855D01*
X123874271Y-87435361D01*
X123856077Y-87495337D01*
X123849934Y-87557712D01*
X123837700Y-87619216D01*
X123837700Y-87681927D01*
X123831557Y-87744300D01*
X122329400Y-87744300D01*
X122329400Y-87578170D01*
X122251196Y-87185013D01*
X122097793Y-86814666D01*
X121875087Y-86481363D01*
X121591637Y-86197913D01*
X121258334Y-85975207D01*
X120887987Y-85821804D01*
X120494830Y-85743600D01*
X120093970Y-85743600D01*
X119700813Y-85821804D01*
X119330466Y-85975207D01*
X118997163Y-86197913D01*
X118713713Y-86481363D01*
X118491007Y-86814666D01*
X118337604Y-87185013D01*
X118310848Y-87319525D01*
X118326939Y-84464016D01*
X118363863Y-84533094D01*
X118443215Y-84629785D01*
X118539906Y-84709137D01*
X118650220Y-84768102D01*
X118769918Y-84804412D01*
X118894400Y-84816672D01*
X120008650Y-84813600D01*
X120167400Y-84654850D01*
X120167400Y-82905600D01*
X120421400Y-82905600D01*
X120421400Y-84654850D01*
X120580150Y-84813600D01*
X121694400Y-84816672D01*
X121818882Y-84804412D01*
X121938580Y-84768102D01*
X122048894Y-84709137D01*
X122145585Y-84629785D01*
X122224937Y-84533094D01*
X122283902Y-84422780D01*
X122320212Y-84303082D01*
X122332472Y-84178600D01*
X122329400Y-83064350D01*
X122170650Y-82905600D01*
X120421400Y-82905600D01*
X120167400Y-82905600D01*
X120147400Y-82905600D01*
X120147400Y-82651600D01*
X120167400Y-82651600D01*
X120167400Y-80902350D01*
X120421400Y-80902350D01*
X120421400Y-82651600D01*
X122170650Y-82651600D01*
X122329400Y-82492850D01*
X122332472Y-81378600D01*
X122320212Y-81254118D01*
X122283902Y-81134420D01*
X122224937Y-81024106D01*
X122145585Y-80927415D01*
X122048894Y-80848063D01*
X121938580Y-80789098D01*
X121818882Y-80752788D01*
X121694400Y-80740528D01*
X120580150Y-80743600D01*
X120421400Y-80902350D01*
X120167400Y-80902350D01*
X120008650Y-80743600D01*
X118894400Y-80740528D01*
X118769918Y-80752788D01*
X118650220Y-80789098D01*
X118539906Y-80848063D01*
X118443215Y-80927415D01*
X118363863Y-81024106D01*
X118346137Y-81057268D01*
X118355498Y-79396109D01*
X118465303Y-79286304D01*
X118536886Y-79530271D01*
X118792396Y-79651171D01*
X119066584Y-79719900D01*
X119348912Y-79733817D01*
X119628530Y-79692387D01*
X119894692Y-79597203D01*
X120019914Y-79530271D01*
X120091497Y-79286302D01*
X119278400Y-78473205D01*
X119264258Y-78487348D01*
X119084653Y-78307743D01*
X119098795Y-78293600D01*
X119458005Y-78293600D01*
X120271102Y-79106697D01*
X120515071Y-79035114D01*
X120635971Y-78779604D01*
X120704700Y-78505416D01*
X120718617Y-78223088D01*
X120677187Y-77943470D01*
X120582003Y-77677308D01*
X120515071Y-77552086D01*
X120271102Y-77480503D01*
X119458005Y-78293600D01*
X119098795Y-78293600D01*
X119084653Y-78279458D01*
X119264258Y-78099853D01*
X119278400Y-78113995D01*
X120091497Y-77300898D01*
X120071185Y-77231672D01*
X120078400Y-77231672D01*
X120202882Y-77219412D01*
X120322580Y-77183102D01*
X120432894Y-77124137D01*
X120529585Y-77044785D01*
X120608937Y-76948094D01*
X120667902Y-76837780D01*
X120704212Y-76718082D01*
X120716472Y-76593600D01*
X120716472Y-74993600D01*
X120704212Y-74869118D01*
X120667902Y-74749420D01*
X120608937Y-74639106D01*
X120529585Y-74542415D01*
X120432894Y-74463063D01*
X120322580Y-74404098D01*
X120202882Y-74367788D01*
X120078400Y-74355528D01*
X118478400Y-74355528D01*
X118383851Y-74364840D01*
X118388185Y-73595656D01*
X118616081Y-73550325D01*
X118931831Y-73419537D01*
X119215998Y-73229663D01*
X119457663Y-72987998D01*
X119647537Y-72703831D01*
X119778325Y-72388081D01*
X119845000Y-72052883D01*
X119845000Y-71711117D01*
X119778325Y-71375919D01*
X119647537Y-71060169D01*
X119457663Y-70776002D01*
X119215998Y-70534337D01*
X118931831Y-70344463D01*
X118616081Y-70213675D01*
X118407478Y-70172181D01*
X118408327Y-70021450D01*
X136500479Y-70021450D01*
X136486541Y-70030763D01*
G37*
G04 #@! TD.AperFunction*
M02*
