G04 #@! TF.GenerationSoftware,KiCad,Pcbnew,(5.1.12-1-10_14)*
G04 #@! TF.CreationDate,2021-11-28T09:31:38-08:00*
G04 #@! TF.ProjectId,24h-timer-switch,3234682d-7469-46d6-9572-2d7377697463,1*
G04 #@! TF.SameCoordinates,Original*
G04 #@! TF.FileFunction,Legend,Bot*
G04 #@! TF.FilePolarity,Positive*
%FSLAX46Y46*%
G04 Gerber Fmt 4.6, Leading zero omitted, Abs format (unit mm)*
G04 Created by KiCad (PCBNEW (5.1.12-1-10_14)) date 2021-11-28 09:31:38*
%MOMM*%
%LPD*%
G01*
G04 APERTURE LIST*
%ADD10C,0.381000*%
%ADD11C,0.050800*%
%ADD12C,0.254000*%
%ADD13C,1.800000*%
%ADD14R,1.800000X1.800000*%
%ADD15C,2.800000*%
%ADD16R,2.800000X2.800000*%
%ADD17C,2.200000*%
%ADD18O,1.600000X1.600000*%
%ADD19C,1.600000*%
%ADD20R,1.600000X1.600000*%
%ADD21C,2.000000*%
%ADD22R,3.500000X3.500000*%
G04 APERTURE END LIST*
D10*
X117329857Y-87115468D02*
X117329857Y-88276611D01*
X117910428Y-87696040D02*
X116749285Y-87696040D01*
X117385737Y-82055788D02*
X117385737Y-83216931D01*
D11*
X155171502Y-75151584D02*
X155582740Y-75151584D01*
X155631121Y-75127394D01*
X155655312Y-75103203D01*
X155679502Y-75054822D01*
X155679502Y-74982251D01*
X155655312Y-74933870D01*
X155485979Y-75151584D02*
X155510169Y-75103203D01*
X155510169Y-75006441D01*
X155485979Y-74958060D01*
X155461788Y-74933870D01*
X155413407Y-74909680D01*
X155268264Y-74909680D01*
X155219883Y-74933870D01*
X155195693Y-74958060D01*
X155171502Y-75006441D01*
X155171502Y-75103203D01*
X155195693Y-75151584D01*
X155510169Y-75393489D02*
X155171502Y-75393489D01*
X155002169Y-75393489D02*
X155026360Y-75369299D01*
X155050550Y-75393489D01*
X155026360Y-75417680D01*
X155002169Y-75393489D01*
X155050550Y-75393489D01*
X155171502Y-75562822D02*
X155171502Y-75756346D01*
X155002169Y-75635394D02*
X155437598Y-75635394D01*
X155485979Y-75659584D01*
X155510169Y-75707965D01*
X155510169Y-75756346D01*
X155510169Y-75925680D02*
X155002169Y-75925680D01*
X155510169Y-76143394D02*
X155244074Y-76143394D01*
X155195693Y-76119203D01*
X155171502Y-76070822D01*
X155171502Y-75998251D01*
X155195693Y-75949870D01*
X155219883Y-75925680D01*
X155171502Y-76603013D02*
X155510169Y-76603013D01*
X155171502Y-76385299D02*
X155437598Y-76385299D01*
X155485979Y-76409489D01*
X155510169Y-76457870D01*
X155510169Y-76530441D01*
X155485979Y-76578822D01*
X155461788Y-76603013D01*
X155510169Y-76844918D02*
X155002169Y-76844918D01*
X155195693Y-76844918D02*
X155171502Y-76893299D01*
X155171502Y-76990060D01*
X155195693Y-77038441D01*
X155219883Y-77062632D01*
X155268264Y-77086822D01*
X155413407Y-77086822D01*
X155461788Y-77062632D01*
X155485979Y-77038441D01*
X155510169Y-76990060D01*
X155510169Y-76893299D01*
X155485979Y-76844918D01*
X155461788Y-77304537D02*
X155485979Y-77328727D01*
X155510169Y-77304537D01*
X155485979Y-77280346D01*
X155461788Y-77304537D01*
X155510169Y-77304537D01*
X155485979Y-77764156D02*
X155510169Y-77715775D01*
X155510169Y-77619013D01*
X155485979Y-77570632D01*
X155461788Y-77546441D01*
X155413407Y-77522251D01*
X155268264Y-77522251D01*
X155219883Y-77546441D01*
X155195693Y-77570632D01*
X155171502Y-77619013D01*
X155171502Y-77715775D01*
X155195693Y-77764156D01*
X155510169Y-78054441D02*
X155485979Y-78006060D01*
X155461788Y-77981870D01*
X155413407Y-77957680D01*
X155268264Y-77957680D01*
X155219883Y-77981870D01*
X155195693Y-78006060D01*
X155171502Y-78054441D01*
X155171502Y-78127013D01*
X155195693Y-78175394D01*
X155219883Y-78199584D01*
X155268264Y-78223775D01*
X155413407Y-78223775D01*
X155461788Y-78199584D01*
X155485979Y-78175394D01*
X155510169Y-78127013D01*
X155510169Y-78054441D01*
X155510169Y-78441489D02*
X155171502Y-78441489D01*
X155219883Y-78441489D02*
X155195693Y-78465680D01*
X155171502Y-78514060D01*
X155171502Y-78586632D01*
X155195693Y-78635013D01*
X155244074Y-78659203D01*
X155510169Y-78659203D01*
X155244074Y-78659203D02*
X155195693Y-78683394D01*
X155171502Y-78731775D01*
X155171502Y-78804346D01*
X155195693Y-78852727D01*
X155244074Y-78876918D01*
X155510169Y-78876918D01*
X154977979Y-79481680D02*
X155631121Y-79046251D01*
X155510169Y-79651013D02*
X155171502Y-79651013D01*
X155002169Y-79651013D02*
X155026360Y-79626822D01*
X155050550Y-79651013D01*
X155026360Y-79675203D01*
X155002169Y-79651013D01*
X155050550Y-79651013D01*
X155510169Y-79892918D02*
X155002169Y-79892918D01*
X155316645Y-79941299D02*
X155510169Y-80086441D01*
X155171502Y-80086441D02*
X155365026Y-79892918D01*
X155510169Y-80521870D02*
X155244074Y-80521870D01*
X155195693Y-80497680D01*
X155171502Y-80449299D01*
X155171502Y-80352537D01*
X155195693Y-80304156D01*
X155485979Y-80521870D02*
X155510169Y-80473489D01*
X155510169Y-80352537D01*
X155485979Y-80304156D01*
X155437598Y-80279965D01*
X155389217Y-80279965D01*
X155340836Y-80304156D01*
X155316645Y-80352537D01*
X155316645Y-80473489D01*
X155292455Y-80521870D01*
X155171502Y-80691203D02*
X155171502Y-80884727D01*
X155002169Y-80763775D02*
X155437598Y-80763775D01*
X155485979Y-80787965D01*
X155510169Y-80836346D01*
X155510169Y-80884727D01*
X155510169Y-81054060D02*
X155002169Y-81054060D01*
X155316645Y-81102441D02*
X155510169Y-81247584D01*
X155171502Y-81247584D02*
X155365026Y-81054060D01*
X155510169Y-81537870D02*
X155485979Y-81489489D01*
X155461788Y-81465299D01*
X155413407Y-81441108D01*
X155268264Y-81441108D01*
X155219883Y-81465299D01*
X155195693Y-81489489D01*
X155171502Y-81537870D01*
X155171502Y-81610441D01*
X155195693Y-81658822D01*
X155219883Y-81683013D01*
X155268264Y-81707203D01*
X155413407Y-81707203D01*
X155461788Y-81683013D01*
X155485979Y-81658822D01*
X155510169Y-81610441D01*
X155510169Y-81537870D01*
X155171502Y-81876537D02*
X155510169Y-81997489D01*
X155171502Y-82118441D01*
X154977979Y-82674822D02*
X155631121Y-82239394D01*
X155050550Y-82819965D02*
X155026360Y-82844156D01*
X155002169Y-82892537D01*
X155002169Y-83013489D01*
X155026360Y-83061870D01*
X155050550Y-83086060D01*
X155098931Y-83110251D01*
X155147312Y-83110251D01*
X155219883Y-83086060D01*
X155510169Y-82795775D01*
X155510169Y-83110251D01*
X155171502Y-83545680D02*
X155510169Y-83545680D01*
X154977979Y-83424727D02*
X155340836Y-83303775D01*
X155340836Y-83618251D01*
X155510169Y-83811775D02*
X155002169Y-83811775D01*
X155510169Y-84029489D02*
X155244074Y-84029489D01*
X155195693Y-84005299D01*
X155171502Y-83956918D01*
X155171502Y-83884346D01*
X155195693Y-83835965D01*
X155219883Y-83811775D01*
X155316645Y-84271394D02*
X155316645Y-84658441D01*
X155171502Y-84827775D02*
X155171502Y-85021299D01*
X155002169Y-84900346D02*
X155437598Y-84900346D01*
X155485979Y-84924537D01*
X155510169Y-84972918D01*
X155510169Y-85021299D01*
X155510169Y-85190632D02*
X155171502Y-85190632D01*
X155002169Y-85190632D02*
X155026360Y-85166441D01*
X155050550Y-85190632D01*
X155026360Y-85214822D01*
X155002169Y-85190632D01*
X155050550Y-85190632D01*
X155510169Y-85432537D02*
X155171502Y-85432537D01*
X155219883Y-85432537D02*
X155195693Y-85456727D01*
X155171502Y-85505108D01*
X155171502Y-85577680D01*
X155195693Y-85626060D01*
X155244074Y-85650251D01*
X155510169Y-85650251D01*
X155244074Y-85650251D02*
X155195693Y-85674441D01*
X155171502Y-85722822D01*
X155171502Y-85795394D01*
X155195693Y-85843775D01*
X155244074Y-85867965D01*
X155510169Y-85867965D01*
X155485979Y-86303394D02*
X155510169Y-86255013D01*
X155510169Y-86158251D01*
X155485979Y-86109870D01*
X155437598Y-86085680D01*
X155244074Y-86085680D01*
X155195693Y-86109870D01*
X155171502Y-86158251D01*
X155171502Y-86255013D01*
X155195693Y-86303394D01*
X155244074Y-86327584D01*
X155292455Y-86327584D01*
X155340836Y-86085680D01*
X155510169Y-86545299D02*
X155171502Y-86545299D01*
X155268264Y-86545299D02*
X155219883Y-86569489D01*
X155195693Y-86593680D01*
X155171502Y-86642060D01*
X155171502Y-86690441D01*
X155316645Y-86859775D02*
X155316645Y-87246822D01*
X155485979Y-87464537D02*
X155510169Y-87512918D01*
X155510169Y-87609680D01*
X155485979Y-87658060D01*
X155437598Y-87682251D01*
X155413407Y-87682251D01*
X155365026Y-87658060D01*
X155340836Y-87609680D01*
X155340836Y-87537108D01*
X155316645Y-87488727D01*
X155268264Y-87464537D01*
X155244074Y-87464537D01*
X155195693Y-87488727D01*
X155171502Y-87537108D01*
X155171502Y-87609680D01*
X155195693Y-87658060D01*
X155171502Y-87851584D02*
X155510169Y-87948346D01*
X155268264Y-88045108D01*
X155510169Y-88141870D01*
X155171502Y-88238632D01*
X155510169Y-88432156D02*
X155171502Y-88432156D01*
X155002169Y-88432156D02*
X155026360Y-88407965D01*
X155050550Y-88432156D01*
X155026360Y-88456346D01*
X155002169Y-88432156D01*
X155050550Y-88432156D01*
X155171502Y-88601489D02*
X155171502Y-88795013D01*
X155002169Y-88674060D02*
X155437598Y-88674060D01*
X155485979Y-88698251D01*
X155510169Y-88746632D01*
X155510169Y-88795013D01*
X155485979Y-89182060D02*
X155510169Y-89133680D01*
X155510169Y-89036918D01*
X155485979Y-88988537D01*
X155461788Y-88964346D01*
X155413407Y-88940156D01*
X155268264Y-88940156D01*
X155219883Y-88964346D01*
X155195693Y-88988537D01*
X155171502Y-89036918D01*
X155171502Y-89133680D01*
X155195693Y-89182060D01*
X155510169Y-89399775D02*
X155002169Y-89399775D01*
X155510169Y-89617489D02*
X155244074Y-89617489D01*
X155195693Y-89593299D01*
X155171502Y-89544918D01*
X155171502Y-89472346D01*
X155195693Y-89423965D01*
X155219883Y-89399775D01*
D12*
X153027500Y-74679870D02*
X152979120Y-74728251D01*
X152930739Y-74825013D01*
X152930739Y-75066918D01*
X152979120Y-75163680D01*
X153027500Y-75212060D01*
X153124262Y-75260441D01*
X153221024Y-75260441D01*
X153366167Y-75212060D01*
X153946739Y-74631489D01*
X153946739Y-75260441D01*
X153269405Y-76131299D02*
X153946739Y-76131299D01*
X152882358Y-75889394D02*
X153608072Y-75647489D01*
X153608072Y-76276441D01*
X153946739Y-76663489D02*
X152930739Y-76663489D01*
X153946739Y-77098918D02*
X153414548Y-77098918D01*
X153317786Y-77050537D01*
X153269405Y-76953775D01*
X153269405Y-76808632D01*
X153317786Y-76711870D01*
X153366167Y-76663489D01*
X153269405Y-78211680D02*
X153269405Y-78598727D01*
X152930739Y-78356822D02*
X153801596Y-78356822D01*
X153898358Y-78405203D01*
X153946739Y-78501965D01*
X153946739Y-78598727D01*
X153946739Y-78937394D02*
X153269405Y-78937394D01*
X152930739Y-78937394D02*
X152979120Y-78889013D01*
X153027500Y-78937394D01*
X152979120Y-78985775D01*
X152930739Y-78937394D01*
X153027500Y-78937394D01*
X153946739Y-79421203D02*
X153269405Y-79421203D01*
X153366167Y-79421203D02*
X153317786Y-79469584D01*
X153269405Y-79566346D01*
X153269405Y-79711489D01*
X153317786Y-79808251D01*
X153414548Y-79856632D01*
X153946739Y-79856632D01*
X153414548Y-79856632D02*
X153317786Y-79905013D01*
X153269405Y-80001775D01*
X153269405Y-80146918D01*
X153317786Y-80243680D01*
X153414548Y-80292060D01*
X153946739Y-80292060D01*
X153898358Y-81162918D02*
X153946739Y-81066156D01*
X153946739Y-80872632D01*
X153898358Y-80775870D01*
X153801596Y-80727489D01*
X153414548Y-80727489D01*
X153317786Y-80775870D01*
X153269405Y-80872632D01*
X153269405Y-81066156D01*
X153317786Y-81162918D01*
X153414548Y-81211299D01*
X153511310Y-81211299D01*
X153608072Y-80727489D01*
X153946739Y-81646727D02*
X153269405Y-81646727D01*
X153462929Y-81646727D02*
X153366167Y-81695108D01*
X153317786Y-81743489D01*
X153269405Y-81840251D01*
X153269405Y-81937013D01*
X153898358Y-83001394D02*
X153946739Y-83098156D01*
X153946739Y-83291680D01*
X153898358Y-83388441D01*
X153801596Y-83436822D01*
X153753215Y-83436822D01*
X153656453Y-83388441D01*
X153608072Y-83291680D01*
X153608072Y-83146537D01*
X153559691Y-83049775D01*
X153462929Y-83001394D01*
X153414548Y-83001394D01*
X153317786Y-83049775D01*
X153269405Y-83146537D01*
X153269405Y-83291680D01*
X153317786Y-83388441D01*
X153269405Y-83775489D02*
X153946739Y-83969013D01*
X153462929Y-84162537D01*
X153946739Y-84356060D01*
X153269405Y-84549584D01*
X153946739Y-84936632D02*
X153269405Y-84936632D01*
X152930739Y-84936632D02*
X152979120Y-84888251D01*
X153027500Y-84936632D01*
X152979120Y-84985013D01*
X152930739Y-84936632D01*
X153027500Y-84936632D01*
X153269405Y-85275299D02*
X153269405Y-85662346D01*
X152930739Y-85420441D02*
X153801596Y-85420441D01*
X153898358Y-85468822D01*
X153946739Y-85565584D01*
X153946739Y-85662346D01*
X153898358Y-86436441D02*
X153946739Y-86339680D01*
X153946739Y-86146156D01*
X153898358Y-86049394D01*
X153849977Y-86001013D01*
X153753215Y-85952632D01*
X153462929Y-85952632D01*
X153366167Y-86001013D01*
X153317786Y-86049394D01*
X153269405Y-86146156D01*
X153269405Y-86339680D01*
X153317786Y-86436441D01*
X153946739Y-86871870D02*
X152930739Y-86871870D01*
X153946739Y-87307299D02*
X153414548Y-87307299D01*
X153317786Y-87258918D01*
X153269405Y-87162156D01*
X153269405Y-87017013D01*
X153317786Y-86920251D01*
X153366167Y-86871870D01*
X153269405Y-88468441D02*
X153946739Y-88710346D01*
X153269405Y-88952251D01*
X153946739Y-89871489D02*
X153946739Y-89290918D01*
X153946739Y-89581203D02*
X152930739Y-89581203D01*
X153075881Y-89484441D01*
X153172643Y-89387680D01*
X153221024Y-89290918D01*
%LPC*%
D13*
X144195800Y-90576400D03*
D14*
X144195800Y-93116400D03*
D13*
X137337800Y-90576400D03*
D14*
X137337800Y-93116400D03*
D13*
X130606800Y-90576400D03*
D14*
X130606800Y-93116400D03*
D15*
X120294400Y-87778600D03*
D16*
X120294400Y-82778600D03*
D17*
X154711400Y-92710000D03*
X154711400Y-71882000D03*
X118110000Y-71882000D03*
X118110000Y-92710000D03*
D18*
X137401300Y-73685400D03*
D19*
X137401300Y-71145400D03*
X119278400Y-78293600D03*
D20*
X119278400Y-75793600D03*
D18*
X130187700Y-79883000D03*
X137807700Y-87503000D03*
X132727700Y-79883000D03*
X135267700Y-87503000D03*
X135267700Y-79883000D03*
X132727700Y-87503000D03*
X137807700Y-79883000D03*
D20*
X130187700Y-87503000D03*
D21*
X150784700Y-71094600D03*
X150784700Y-75594600D03*
X144284700Y-71094600D03*
X144284700Y-75594600D03*
D18*
X122275600Y-92811600D03*
D19*
X124815600Y-92811600D03*
D18*
X140766800Y-73685400D03*
D19*
X140766800Y-71145400D03*
G36*
G01*
X147269400Y-78321200D02*
X147269400Y-80071200D01*
G75*
G02*
X146394400Y-80946200I-875000J0D01*
G01*
X144644400Y-80946200D01*
G75*
G02*
X143769400Y-80071200I0J875000D01*
G01*
X143769400Y-78321200D01*
G75*
G02*
X144644400Y-77446200I875000J0D01*
G01*
X146394400Y-77446200D01*
G75*
G02*
X147269400Y-78321200I0J-875000D01*
G01*
G37*
G36*
G01*
X150019400Y-82896200D02*
X150019400Y-84896200D01*
G75*
G02*
X149269400Y-85646200I-750000J0D01*
G01*
X147769400Y-85646200D01*
G75*
G02*
X147019400Y-84896200I0J750000D01*
G01*
X147019400Y-82896200D01*
G75*
G02*
X147769400Y-82146200I750000J0D01*
G01*
X149269400Y-82146200D01*
G75*
G02*
X150019400Y-82896200I0J-750000D01*
G01*
G37*
D22*
X142519400Y-83896200D03*
M02*
