G04 #@! TF.GenerationSoftware,KiCad,Pcbnew,(5.1.12-1-10_14)*
G04 #@! TF.CreationDate,2021-11-28T09:31:38-08:00*
G04 #@! TF.ProjectId,24h-timer-switch,3234682d-7469-46d6-9572-2d7377697463,1*
G04 #@! TF.SameCoordinates,Original*
G04 #@! TF.FileFunction,Copper,L1,Top*
G04 #@! TF.FilePolarity,Positive*
%FSLAX46Y46*%
G04 Gerber Fmt 4.6, Leading zero omitted, Abs format (unit mm)*
G04 Created by KiCad (PCBNEW (5.1.12-1-10_14)) date 2021-11-28 09:31:38*
%MOMM*%
%LPD*%
G01*
G04 APERTURE LIST*
G04 #@! TA.AperFunction,SMDPad,CuDef*
%ADD10R,1.500000X2.000000*%
G04 #@! TD*
G04 #@! TA.AperFunction,SMDPad,CuDef*
%ADD11R,3.800000X2.000000*%
G04 #@! TD*
G04 #@! TA.AperFunction,ComponentPad*
%ADD12C,1.800000*%
G04 #@! TD*
G04 #@! TA.AperFunction,ComponentPad*
%ADD13R,1.800000X1.800000*%
G04 #@! TD*
G04 #@! TA.AperFunction,ComponentPad*
%ADD14C,2.800000*%
G04 #@! TD*
G04 #@! TA.AperFunction,ComponentPad*
%ADD15R,2.800000X2.800000*%
G04 #@! TD*
G04 #@! TA.AperFunction,ComponentPad*
%ADD16O,1.600000X1.600000*%
G04 #@! TD*
G04 #@! TA.AperFunction,ComponentPad*
%ADD17C,1.600000*%
G04 #@! TD*
G04 #@! TA.AperFunction,ComponentPad*
%ADD18R,1.600000X1.600000*%
G04 #@! TD*
G04 #@! TA.AperFunction,ComponentPad*
%ADD19C,2.000000*%
G04 #@! TD*
G04 #@! TA.AperFunction,ComponentPad*
%ADD20R,3.500000X3.500000*%
G04 #@! TD*
G04 #@! TA.AperFunction,ViaPad*
%ADD21C,0.508000*%
G04 #@! TD*
G04 #@! TA.AperFunction,ViaPad*
%ADD22C,1.270000*%
G04 #@! TD*
G04 #@! TA.AperFunction,Conductor*
%ADD23C,1.270000*%
G04 #@! TD*
G04 #@! TA.AperFunction,Conductor*
%ADD24C,0.508000*%
G04 #@! TD*
G04 #@! TA.AperFunction,Conductor*
%ADD25C,0.762000*%
G04 #@! TD*
G04 #@! TA.AperFunction,Conductor*
%ADD26C,1.016000*%
G04 #@! TD*
G04 APERTURE END LIST*
D10*
X123455400Y-77114800D03*
X128055400Y-77114800D03*
X125755400Y-77114800D03*
D11*
X125755400Y-70814800D03*
D12*
X144195800Y-90576400D03*
D13*
X144195800Y-93116400D03*
D12*
X137337800Y-90576400D03*
D13*
X137337800Y-93116400D03*
D12*
X130606800Y-90576400D03*
D13*
X130606800Y-93116400D03*
D14*
X120294400Y-87778600D03*
D15*
X120294400Y-82778600D03*
D16*
X137401300Y-73685400D03*
D17*
X137401300Y-71145400D03*
X119278400Y-78293600D03*
D18*
X119278400Y-75793600D03*
D16*
X130187700Y-79883000D03*
X137807700Y-87503000D03*
X132727700Y-79883000D03*
X135267700Y-87503000D03*
X135267700Y-79883000D03*
X132727700Y-87503000D03*
X137807700Y-79883000D03*
D18*
X130187700Y-87503000D03*
D19*
X150784700Y-71094600D03*
X150784700Y-75594600D03*
X144284700Y-71094600D03*
X144284700Y-75594600D03*
D16*
X122275600Y-92811600D03*
D17*
X124815600Y-92811600D03*
D16*
X140766800Y-73685400D03*
D17*
X140766800Y-71145400D03*
G04 #@! TA.AperFunction,SMDPad,CuDef*
G36*
G01*
X131125100Y-71779000D02*
X130825100Y-71779000D01*
G75*
G02*
X130675100Y-71629000I0J150000D01*
G01*
X130675100Y-69979000D01*
G75*
G02*
X130825100Y-69829000I150000J0D01*
G01*
X131125100Y-69829000D01*
G75*
G02*
X131275100Y-69979000I0J-150000D01*
G01*
X131275100Y-71629000D01*
G75*
G02*
X131125100Y-71779000I-150000J0D01*
G01*
G37*
G04 #@! TD.AperFunction*
G04 #@! TA.AperFunction,SMDPad,CuDef*
G36*
G01*
X132395100Y-71779000D02*
X132095100Y-71779000D01*
G75*
G02*
X131945100Y-71629000I0J150000D01*
G01*
X131945100Y-69979000D01*
G75*
G02*
X132095100Y-69829000I150000J0D01*
G01*
X132395100Y-69829000D01*
G75*
G02*
X132545100Y-69979000I0J-150000D01*
G01*
X132545100Y-71629000D01*
G75*
G02*
X132395100Y-71779000I-150000J0D01*
G01*
G37*
G04 #@! TD.AperFunction*
G04 #@! TA.AperFunction,SMDPad,CuDef*
G36*
G01*
X133665100Y-71779000D02*
X133365100Y-71779000D01*
G75*
G02*
X133215100Y-71629000I0J150000D01*
G01*
X133215100Y-69979000D01*
G75*
G02*
X133365100Y-69829000I150000J0D01*
G01*
X133665100Y-69829000D01*
G75*
G02*
X133815100Y-69979000I0J-150000D01*
G01*
X133815100Y-71629000D01*
G75*
G02*
X133665100Y-71779000I-150000J0D01*
G01*
G37*
G04 #@! TD.AperFunction*
G04 #@! TA.AperFunction,SMDPad,CuDef*
G36*
G01*
X134935100Y-71779000D02*
X134635100Y-71779000D01*
G75*
G02*
X134485100Y-71629000I0J150000D01*
G01*
X134485100Y-69979000D01*
G75*
G02*
X134635100Y-69829000I150000J0D01*
G01*
X134935100Y-69829000D01*
G75*
G02*
X135085100Y-69979000I0J-150000D01*
G01*
X135085100Y-71629000D01*
G75*
G02*
X134935100Y-71779000I-150000J0D01*
G01*
G37*
G04 #@! TD.AperFunction*
G04 #@! TA.AperFunction,SMDPad,CuDef*
G36*
G01*
X134935100Y-76729000D02*
X134635100Y-76729000D01*
G75*
G02*
X134485100Y-76579000I0J150000D01*
G01*
X134485100Y-74929000D01*
G75*
G02*
X134635100Y-74779000I150000J0D01*
G01*
X134935100Y-74779000D01*
G75*
G02*
X135085100Y-74929000I0J-150000D01*
G01*
X135085100Y-76579000D01*
G75*
G02*
X134935100Y-76729000I-150000J0D01*
G01*
G37*
G04 #@! TD.AperFunction*
G04 #@! TA.AperFunction,SMDPad,CuDef*
G36*
G01*
X133665100Y-76729000D02*
X133365100Y-76729000D01*
G75*
G02*
X133215100Y-76579000I0J150000D01*
G01*
X133215100Y-74929000D01*
G75*
G02*
X133365100Y-74779000I150000J0D01*
G01*
X133665100Y-74779000D01*
G75*
G02*
X133815100Y-74929000I0J-150000D01*
G01*
X133815100Y-76579000D01*
G75*
G02*
X133665100Y-76729000I-150000J0D01*
G01*
G37*
G04 #@! TD.AperFunction*
G04 #@! TA.AperFunction,SMDPad,CuDef*
G36*
G01*
X132395100Y-76729000D02*
X132095100Y-76729000D01*
G75*
G02*
X131945100Y-76579000I0J150000D01*
G01*
X131945100Y-74929000D01*
G75*
G02*
X132095100Y-74779000I150000J0D01*
G01*
X132395100Y-74779000D01*
G75*
G02*
X132545100Y-74929000I0J-150000D01*
G01*
X132545100Y-76579000D01*
G75*
G02*
X132395100Y-76729000I-150000J0D01*
G01*
G37*
G04 #@! TD.AperFunction*
G04 #@! TA.AperFunction,SMDPad,CuDef*
G36*
G01*
X131125100Y-76729000D02*
X130825100Y-76729000D01*
G75*
G02*
X130675100Y-76579000I0J150000D01*
G01*
X130675100Y-74929000D01*
G75*
G02*
X130825100Y-74779000I150000J0D01*
G01*
X131125100Y-74779000D01*
G75*
G02*
X131275100Y-74929000I0J-150000D01*
G01*
X131275100Y-76579000D01*
G75*
G02*
X131125100Y-76729000I-150000J0D01*
G01*
G37*
G04 #@! TD.AperFunction*
G04 #@! TA.AperFunction,ComponentPad*
G36*
G01*
X147269400Y-78321200D02*
X147269400Y-80071200D01*
G75*
G02*
X146394400Y-80946200I-875000J0D01*
G01*
X144644400Y-80946200D01*
G75*
G02*
X143769400Y-80071200I0J875000D01*
G01*
X143769400Y-78321200D01*
G75*
G02*
X144644400Y-77446200I875000J0D01*
G01*
X146394400Y-77446200D01*
G75*
G02*
X147269400Y-78321200I0J-875000D01*
G01*
G37*
G04 #@! TD.AperFunction*
G04 #@! TA.AperFunction,ComponentPad*
G36*
G01*
X150019400Y-82896200D02*
X150019400Y-84896200D01*
G75*
G02*
X149269400Y-85646200I-750000J0D01*
G01*
X147769400Y-85646200D01*
G75*
G02*
X147019400Y-84896200I0J750000D01*
G01*
X147019400Y-82896200D01*
G75*
G02*
X147769400Y-82146200I750000J0D01*
G01*
X149269400Y-82146200D01*
G75*
G02*
X150019400Y-82896200I0J-750000D01*
G01*
G37*
G04 #@! TD.AperFunction*
D20*
X142519400Y-83896200D03*
D21*
X132257800Y-77647800D03*
D22*
X132270500Y-72999600D03*
X125107700Y-87744300D03*
D23*
X120294400Y-82778600D02*
X120294400Y-82092800D01*
X119492000Y-78080000D02*
X119278400Y-78293600D01*
X119278400Y-78293600D02*
X122937900Y-78293600D01*
X123455400Y-77776100D02*
X123455400Y-77114800D01*
X122937900Y-78293600D02*
X123455400Y-77776100D01*
D24*
X132257800Y-75817500D02*
X132257800Y-77647800D01*
D23*
X123291600Y-82778600D02*
X120294400Y-82778600D01*
X123455400Y-82614800D02*
X123291600Y-82778600D01*
X123455400Y-77114800D02*
X123455400Y-82614800D01*
X119744601Y-75327399D02*
X119770001Y-75327399D01*
X119278400Y-75793600D02*
X119744601Y-75327399D01*
X119770001Y-75327399D02*
X121170700Y-73926700D01*
X125755400Y-74844800D02*
X125755400Y-77114800D01*
X124837300Y-73926700D02*
X125755400Y-74844800D01*
X121170700Y-73926700D02*
X124837300Y-73926700D01*
X125755400Y-70814800D02*
X125755400Y-74844800D01*
X126075800Y-79705200D02*
X130200400Y-79705200D01*
X125755400Y-79384800D02*
X126075800Y-79705200D01*
X125755400Y-77114800D02*
X125755400Y-79384800D01*
D24*
X128130300Y-90576400D02*
X130606800Y-90576400D01*
X127876300Y-90322400D02*
X128130300Y-90576400D01*
X132765800Y-79705200D02*
X132765800Y-82410300D01*
X127876300Y-82410300D02*
X127876300Y-90322400D01*
X132765800Y-82410300D02*
X127876300Y-82410300D01*
X132740400Y-79705200D02*
X132765800Y-79705200D01*
D23*
X144195800Y-93116400D02*
X130606800Y-93116400D01*
X130302000Y-92811600D02*
X130606800Y-93116400D01*
X124815600Y-92811600D02*
X130302000Y-92811600D01*
X134797800Y-70867500D02*
X130987800Y-70867500D01*
X132257800Y-72986900D02*
X132270500Y-72999600D01*
X132257800Y-70867500D02*
X132257800Y-72986900D01*
X120328700Y-87744300D02*
X120294400Y-87778600D01*
X125107700Y-87744300D02*
X120328700Y-87744300D01*
D24*
X134772400Y-74815700D02*
X134797800Y-74841100D01*
X134797800Y-74841100D02*
X134797800Y-75817500D01*
X134772400Y-73774300D02*
X134772400Y-74815700D01*
X137401300Y-71145400D02*
X134772400Y-73774300D01*
D23*
X130987800Y-75817500D02*
X129352700Y-75817500D01*
X129352700Y-75817500D02*
X128055400Y-77114800D01*
D24*
X144233900Y-71145400D02*
X144284700Y-71094600D01*
X140766800Y-71145400D02*
X144233900Y-71145400D01*
X150784700Y-71094600D02*
X144284700Y-71094600D01*
X144145000Y-90525600D02*
X144195800Y-90576400D01*
X144145000Y-89052400D02*
X144145000Y-90525600D01*
X143979900Y-88887300D02*
X144145000Y-89052400D01*
X135280400Y-88887300D02*
X143979900Y-88887300D01*
X135280400Y-87325200D02*
X135280400Y-88887300D01*
X132765800Y-90576400D02*
X137337800Y-90576400D01*
X132740400Y-90551000D02*
X132765800Y-90576400D01*
X132740400Y-87325200D02*
X132740400Y-90551000D01*
D25*
X133477000Y-75614300D02*
X133477000Y-76645000D01*
D23*
X140119100Y-77787500D02*
X142519400Y-80187800D01*
X142519400Y-80187800D02*
X142519400Y-83896200D01*
D26*
X133578600Y-76746600D02*
X133477000Y-76645000D01*
X133959600Y-77787500D02*
X133578600Y-77406500D01*
X133578600Y-77406500D02*
X133578600Y-76746600D01*
X140119100Y-77787500D02*
X133959600Y-77787500D01*
M02*
