G04 #@! TF.GenerationSoftware,KiCad,Pcbnew,(5.1.12-1-10_14)*
G04 #@! TF.CreationDate,2021-12-20T00:17:04-08:00*
G04 #@! TF.ProjectId,24h-timer-switch,3234682d-7469-46d6-9572-2d7377697463,1*
G04 #@! TF.SameCoordinates,Original*
G04 #@! TF.FileFunction,Soldermask,Top*
G04 #@! TF.FilePolarity,Negative*
%FSLAX46Y46*%
G04 Gerber Fmt 4.6, Leading zero omitted, Abs format (unit mm)*
G04 Created by KiCad (PCBNEW (5.1.12-1-10_14)) date 2021-12-20 00:17:04*
%MOMM*%
%LPD*%
G01*
G04 APERTURE LIST*
%ADD10O,1.600000X1.600000*%
%ADD11C,1.600000*%
%ADD12R,1.500000X2.000000*%
%ADD13R,3.800000X2.000000*%
%ADD14C,1.800000*%
%ADD15R,1.800000X1.800000*%
%ADD16C,2.800000*%
%ADD17R,2.800000X2.800000*%
%ADD18R,1.600000X1.600000*%
%ADD19C,2.000000*%
%ADD20R,3.500000X3.500000*%
G04 APERTURE END LIST*
D10*
X139014200Y-71018400D03*
D11*
X136474200Y-71018400D03*
G36*
G01*
X131195400Y-73784600D02*
X131195400Y-73484600D01*
G75*
G02*
X131345400Y-73334600I150000J0D01*
G01*
X132995400Y-73334600D01*
G75*
G02*
X133145400Y-73484600I0J-150000D01*
G01*
X133145400Y-73784600D01*
G75*
G02*
X132995400Y-73934600I-150000J0D01*
G01*
X131345400Y-73934600D01*
G75*
G02*
X131195400Y-73784600I0J150000D01*
G01*
G37*
G36*
G01*
X131195400Y-75054600D02*
X131195400Y-74754600D01*
G75*
G02*
X131345400Y-74604600I150000J0D01*
G01*
X132995400Y-74604600D01*
G75*
G02*
X133145400Y-74754600I0J-150000D01*
G01*
X133145400Y-75054600D01*
G75*
G02*
X132995400Y-75204600I-150000J0D01*
G01*
X131345400Y-75204600D01*
G75*
G02*
X131195400Y-75054600I0J150000D01*
G01*
G37*
G36*
G01*
X131195400Y-76324600D02*
X131195400Y-76024600D01*
G75*
G02*
X131345400Y-75874600I150000J0D01*
G01*
X132995400Y-75874600D01*
G75*
G02*
X133145400Y-76024600I0J-150000D01*
G01*
X133145400Y-76324600D01*
G75*
G02*
X132995400Y-76474600I-150000J0D01*
G01*
X131345400Y-76474600D01*
G75*
G02*
X131195400Y-76324600I0J150000D01*
G01*
G37*
G36*
G01*
X131195400Y-77594600D02*
X131195400Y-77294600D01*
G75*
G02*
X131345400Y-77144600I150000J0D01*
G01*
X132995400Y-77144600D01*
G75*
G02*
X133145400Y-77294600I0J-150000D01*
G01*
X133145400Y-77594600D01*
G75*
G02*
X132995400Y-77744600I-150000J0D01*
G01*
X131345400Y-77744600D01*
G75*
G02*
X131195400Y-77594600I0J150000D01*
G01*
G37*
G36*
G01*
X136145400Y-77594600D02*
X136145400Y-77294600D01*
G75*
G02*
X136295400Y-77144600I150000J0D01*
G01*
X137945400Y-77144600D01*
G75*
G02*
X138095400Y-77294600I0J-150000D01*
G01*
X138095400Y-77594600D01*
G75*
G02*
X137945400Y-77744600I-150000J0D01*
G01*
X136295400Y-77744600D01*
G75*
G02*
X136145400Y-77594600I0J150000D01*
G01*
G37*
G36*
G01*
X136145400Y-76324600D02*
X136145400Y-76024600D01*
G75*
G02*
X136295400Y-75874600I150000J0D01*
G01*
X137945400Y-75874600D01*
G75*
G02*
X138095400Y-76024600I0J-150000D01*
G01*
X138095400Y-76324600D01*
G75*
G02*
X137945400Y-76474600I-150000J0D01*
G01*
X136295400Y-76474600D01*
G75*
G02*
X136145400Y-76324600I0J150000D01*
G01*
G37*
G36*
G01*
X136145400Y-75054600D02*
X136145400Y-74754600D01*
G75*
G02*
X136295400Y-74604600I150000J0D01*
G01*
X137945400Y-74604600D01*
G75*
G02*
X138095400Y-74754600I0J-150000D01*
G01*
X138095400Y-75054600D01*
G75*
G02*
X137945400Y-75204600I-150000J0D01*
G01*
X136295400Y-75204600D01*
G75*
G02*
X136145400Y-75054600I0J150000D01*
G01*
G37*
G36*
G01*
X136145400Y-73784600D02*
X136145400Y-73484600D01*
G75*
G02*
X136295400Y-73334600I150000J0D01*
G01*
X137945400Y-73334600D01*
G75*
G02*
X138095400Y-73484600I0J-150000D01*
G01*
X138095400Y-73784600D01*
G75*
G02*
X137945400Y-73934600I-150000J0D01*
G01*
X136295400Y-73934600D01*
G75*
G02*
X136145400Y-73784600I0J150000D01*
G01*
G37*
D12*
X122871200Y-77140200D03*
X127471200Y-77140200D03*
X125171200Y-77140200D03*
D13*
X125171200Y-70840200D03*
D14*
X144170400Y-90779600D03*
D15*
X144170400Y-93319600D03*
D14*
X137388600Y-90779600D03*
D15*
X137388600Y-93319600D03*
D14*
X130581400Y-90779600D03*
D15*
X130581400Y-93319600D03*
D16*
X120269000Y-87981800D03*
D17*
X120269000Y-82981800D03*
D10*
X130810000Y-71018400D03*
D11*
X133350000Y-71018400D03*
X118389400Y-78369800D03*
D18*
X118389400Y-75869800D03*
D10*
X130187700Y-79883000D03*
X137807700Y-87503000D03*
X132727700Y-79883000D03*
X135267700Y-87503000D03*
X135267700Y-79883000D03*
X132727700Y-87503000D03*
X137807700Y-79883000D03*
D18*
X130187700Y-87503000D03*
D19*
X148460600Y-71043800D03*
X148460600Y-75543800D03*
X141960600Y-71043800D03*
X141960600Y-75543800D03*
D10*
X149275800Y-90805000D03*
D11*
X149275800Y-93345000D03*
D10*
X151257000Y-75387200D03*
D11*
X153797000Y-75387200D03*
D20*
X142519400Y-83896200D03*
G36*
G01*
X150019400Y-82896200D02*
X150019400Y-84896200D01*
G75*
G02*
X149269400Y-85646200I-750000J0D01*
G01*
X147769400Y-85646200D01*
G75*
G02*
X147019400Y-84896200I0J750000D01*
G01*
X147019400Y-82896200D01*
G75*
G02*
X147769400Y-82146200I750000J0D01*
G01*
X149269400Y-82146200D01*
G75*
G02*
X150019400Y-82896200I0J-750000D01*
G01*
G37*
G36*
G01*
X147269400Y-78321200D02*
X147269400Y-80071200D01*
G75*
G02*
X146394400Y-80946200I-875000J0D01*
G01*
X144644400Y-80946200D01*
G75*
G02*
X143769400Y-80071200I0J875000D01*
G01*
X143769400Y-78321200D01*
G75*
G02*
X144644400Y-77446200I875000J0D01*
G01*
X146394400Y-77446200D01*
G75*
G02*
X147269400Y-78321200I0J-875000D01*
G01*
G37*
M02*
