G04 #@! TF.GenerationSoftware,KiCad,Pcbnew,(5.1.12-1-10_14)*
G04 #@! TF.CreationDate,2021-11-28T09:31:38-08:00*
G04 #@! TF.ProjectId,24h-timer-switch,3234682d-7469-46d6-9572-2d7377697463,1*
G04 #@! TF.SameCoordinates,Original*
G04 #@! TF.FileFunction,Legend,Top*
G04 #@! TF.FilePolarity,Positive*
%FSLAX46Y46*%
G04 Gerber Fmt 4.6, Leading zero omitted, Abs format (unit mm)*
G04 Created by KiCad (PCBNEW (5.1.12-1-10_14)) date 2021-11-28 09:31:38*
%MOMM*%
%LPD*%
G01*
G04 APERTURE LIST*
%ADD10C,0.254000*%
%ADD11C,0.127000*%
%ADD12C,0.120000*%
%ADD13C,0.150000*%
%ADD14R,1.500000X2.000000*%
%ADD15R,3.800000X2.000000*%
%ADD16C,1.800000*%
%ADD17R,1.800000X1.800000*%
%ADD18C,2.800000*%
%ADD19R,2.800000X2.800000*%
%ADD20C,2.200000*%
%ADD21O,1.600000X1.600000*%
%ADD22C,1.600000*%
%ADD23R,1.600000X1.600000*%
%ADD24C,2.000000*%
%ADD25R,3.500000X3.500000*%
G04 APERTURE END LIST*
D10*
X148107883Y-90850599D02*
X148107883Y-89834599D01*
X148688455Y-90850599D02*
X148253026Y-90270027D01*
X148688455Y-89834599D02*
X148107883Y-90415170D01*
X149123883Y-90850599D02*
X149123883Y-89834599D01*
X149462550Y-90560313D01*
X149801217Y-89834599D01*
X149801217Y-90850599D01*
X150720455Y-89834599D02*
X150526931Y-89834599D01*
X150430169Y-89882980D01*
X150381788Y-89931360D01*
X150285026Y-90076503D01*
X150236645Y-90270027D01*
X150236645Y-90657075D01*
X150285026Y-90753837D01*
X150333407Y-90802218D01*
X150430169Y-90850599D01*
X150623693Y-90850599D01*
X150720455Y-90802218D01*
X150768836Y-90753837D01*
X150817217Y-90657075D01*
X150817217Y-90415170D01*
X150768836Y-90318408D01*
X150720455Y-90270027D01*
X150623693Y-90221646D01*
X150430169Y-90221646D01*
X150333407Y-90270027D01*
X150285026Y-90318408D01*
X150236645Y-90415170D01*
X151591312Y-90318408D02*
X151736455Y-90366789D01*
X151784836Y-90415170D01*
X151833217Y-90511932D01*
X151833217Y-90657075D01*
X151784836Y-90753837D01*
X151736455Y-90802218D01*
X151639693Y-90850599D01*
X151252645Y-90850599D01*
X151252645Y-89834599D01*
X151591312Y-89834599D01*
X151688074Y-89882980D01*
X151736455Y-89931360D01*
X151784836Y-90028122D01*
X151784836Y-90124884D01*
X151736455Y-90221646D01*
X151688074Y-90270027D01*
X151591312Y-90318408D01*
X151252645Y-90318408D01*
X152220264Y-90802218D02*
X152365407Y-90850599D01*
X152607312Y-90850599D01*
X152704074Y-90802218D01*
X152752455Y-90753837D01*
X152800836Y-90657075D01*
X152800836Y-90560313D01*
X152752455Y-90463551D01*
X152704074Y-90415170D01*
X152607312Y-90366789D01*
X152413788Y-90318408D01*
X152317026Y-90270027D01*
X152268645Y-90221646D01*
X152220264Y-90124884D01*
X152220264Y-90028122D01*
X152268645Y-89931360D01*
X152317026Y-89882980D01*
X152413788Y-89834599D01*
X152655693Y-89834599D01*
X152800836Y-89882980D01*
X153913598Y-90947360D02*
X153816836Y-90898980D01*
X153720074Y-90802218D01*
X153574931Y-90657075D01*
X153478169Y-90608694D01*
X153381407Y-90608694D01*
X153429788Y-90850599D02*
X153333026Y-90802218D01*
X153236264Y-90705456D01*
X153187883Y-90511932D01*
X153187883Y-90173265D01*
X153236264Y-89979741D01*
X153333026Y-89882980D01*
X153429788Y-89834599D01*
X153623312Y-89834599D01*
X153720074Y-89882980D01*
X153816836Y-89979741D01*
X153865217Y-90173265D01*
X153865217Y-90511932D01*
X153816836Y-90705456D01*
X153720074Y-90802218D01*
X153623312Y-90850599D01*
X153429788Y-90850599D01*
D11*
X131064000Y-73649114D02*
X131064000Y-73830542D01*
X130882571Y-73757971D02*
X131064000Y-73830542D01*
X131245428Y-73757971D01*
X130955142Y-73975685D02*
X131064000Y-73830542D01*
X131172857Y-73975685D01*
D10*
X117275428Y-83776699D02*
X117275428Y-81841460D01*
X116172100Y-87913028D02*
X118107339Y-87913028D01*
X117139720Y-88880647D02*
X117139720Y-86945409D01*
D11*
X131064000Y-84799714D02*
X131064000Y-84981142D01*
X130882571Y-84908571D02*
X131064000Y-84981142D01*
X131245428Y-84908571D01*
X130955142Y-85126285D02*
X131064000Y-84981142D01*
X131172857Y-85126285D01*
X133072414Y-89157628D02*
X133652985Y-89157628D01*
X133362700Y-89447914D02*
X133362700Y-88867342D01*
X139714514Y-89183028D02*
X140295085Y-89183028D01*
X140004800Y-89473314D02*
X140004800Y-88892742D01*
X146470914Y-89195728D02*
X147051485Y-89195728D01*
X146761200Y-89486014D02*
X146761200Y-88905442D01*
D12*
X129165400Y-72054800D02*
X127905400Y-72054800D01*
X122345400Y-72054800D02*
X123605400Y-72054800D01*
X129165400Y-75814800D02*
X129165400Y-72054800D01*
X122345400Y-78064800D02*
X122345400Y-72054800D01*
X146695800Y-91846400D02*
G75*
G03*
X146695800Y-91846400I-2500000J0D01*
G01*
X142650800Y-94406400D02*
X145740800Y-94406400D01*
X144195338Y-88856400D02*
G75*
G02*
X145740630Y-94406400I462J-2990000D01*
G01*
X144196262Y-88856400D02*
G75*
G03*
X142650970Y-94406400I-462J-2990000D01*
G01*
X139837800Y-91846400D02*
G75*
G03*
X139837800Y-91846400I-2500000J0D01*
G01*
X135792800Y-94406400D02*
X138882800Y-94406400D01*
X137337338Y-88856400D02*
G75*
G02*
X138882630Y-94406400I462J-2990000D01*
G01*
X137338262Y-88856400D02*
G75*
G03*
X135792970Y-94406400I-462J-2990000D01*
G01*
X133106800Y-91846400D02*
G75*
G03*
X133106800Y-91846400I-2500000J0D01*
G01*
X129061800Y-94406400D02*
X132151800Y-94406400D01*
X130606338Y-88856400D02*
G75*
G02*
X132151630Y-94406400I462J-2990000D01*
G01*
X130607262Y-88856400D02*
G75*
G03*
X129061970Y-94406400I-462J-2990000D01*
G01*
X122074400Y-87778600D02*
G75*
G03*
X122074400Y-87778600I-1780000J0D01*
G01*
X118294400Y-80218600D02*
X118294400Y-90338600D01*
X122294400Y-80218600D02*
X122294400Y-90338600D01*
X123294400Y-80218600D02*
X123294400Y-90338600D01*
X126854400Y-80218600D02*
X126854400Y-90338600D01*
X116234400Y-80218600D02*
X116234400Y-90338600D01*
X126854400Y-80218600D02*
X116234400Y-80218600D01*
X126854400Y-90338600D02*
X116234400Y-90338600D01*
X121427400Y-89128600D02*
X121377400Y-89079600D01*
X118969400Y-86670600D02*
X118944400Y-86646600D01*
X121644400Y-88911600D02*
X121620400Y-88886600D01*
X119211400Y-86478600D02*
X119161400Y-86428600D01*
X118234400Y-79978600D02*
X115994400Y-79978600D01*
X115994400Y-79978600D02*
X115994400Y-81978600D01*
X118514011Y-82809414D02*
G75*
G02*
X118655400Y-82082600I1780389J30814D01*
G01*
X119598884Y-81139395D02*
G75*
G02*
X120990400Y-81139600I695516J-1639205D01*
G01*
X121933605Y-82083084D02*
G75*
G02*
X121933400Y-83474600I-1639205J-695516D01*
G01*
X120989916Y-84417805D02*
G75*
G02*
X119598400Y-84417600I-695516J1639205D01*
G01*
X118655901Y-83474101D02*
G75*
G02*
X118514400Y-82778600I1638499J695501D01*
G01*
X138771300Y-71145400D02*
G75*
G03*
X138771300Y-71145400I-1370000J0D01*
G01*
X137401300Y-72515400D02*
X137401300Y-72585400D01*
X121898400Y-77043600D02*
G75*
G03*
X121898400Y-77043600I-2620000J0D01*
G01*
X121858400Y-77043600D02*
X116698400Y-77043600D01*
X121858400Y-77083600D02*
X116698400Y-77083600D01*
X121857400Y-77123600D02*
X116699400Y-77123600D01*
X121856400Y-77163600D02*
X116700400Y-77163600D01*
X121854400Y-77203600D02*
X116702400Y-77203600D01*
X121851400Y-77243600D02*
X116705400Y-77243600D01*
X121847400Y-77283600D02*
X120318400Y-77283600D01*
X118238400Y-77283600D02*
X116709400Y-77283600D01*
X121843400Y-77323600D02*
X120318400Y-77323600D01*
X118238400Y-77323600D02*
X116713400Y-77323600D01*
X121839400Y-77363600D02*
X120318400Y-77363600D01*
X118238400Y-77363600D02*
X116717400Y-77363600D01*
X121834400Y-77403600D02*
X120318400Y-77403600D01*
X118238400Y-77403600D02*
X116722400Y-77403600D01*
X121828400Y-77443600D02*
X120318400Y-77443600D01*
X118238400Y-77443600D02*
X116728400Y-77443600D01*
X121821400Y-77483600D02*
X120318400Y-77483600D01*
X118238400Y-77483600D02*
X116735400Y-77483600D01*
X121814400Y-77523600D02*
X120318400Y-77523600D01*
X118238400Y-77523600D02*
X116742400Y-77523600D01*
X121806400Y-77563600D02*
X120318400Y-77563600D01*
X118238400Y-77563600D02*
X116750400Y-77563600D01*
X121798400Y-77603600D02*
X120318400Y-77603600D01*
X118238400Y-77603600D02*
X116758400Y-77603600D01*
X121789400Y-77643600D02*
X120318400Y-77643600D01*
X118238400Y-77643600D02*
X116767400Y-77643600D01*
X121779400Y-77683600D02*
X120318400Y-77683600D01*
X118238400Y-77683600D02*
X116777400Y-77683600D01*
X121769400Y-77723600D02*
X120318400Y-77723600D01*
X118238400Y-77723600D02*
X116787400Y-77723600D01*
X121758400Y-77764600D02*
X120318400Y-77764600D01*
X118238400Y-77764600D02*
X116798400Y-77764600D01*
X121746400Y-77804600D02*
X120318400Y-77804600D01*
X118238400Y-77804600D02*
X116810400Y-77804600D01*
X121733400Y-77844600D02*
X120318400Y-77844600D01*
X118238400Y-77844600D02*
X116823400Y-77844600D01*
X121720400Y-77884600D02*
X120318400Y-77884600D01*
X118238400Y-77884600D02*
X116836400Y-77884600D01*
X121706400Y-77924600D02*
X120318400Y-77924600D01*
X118238400Y-77924600D02*
X116850400Y-77924600D01*
X121692400Y-77964600D02*
X120318400Y-77964600D01*
X118238400Y-77964600D02*
X116864400Y-77964600D01*
X121676400Y-78004600D02*
X120318400Y-78004600D01*
X118238400Y-78004600D02*
X116880400Y-78004600D01*
X121660400Y-78044600D02*
X120318400Y-78044600D01*
X118238400Y-78044600D02*
X116896400Y-78044600D01*
X121643400Y-78084600D02*
X120318400Y-78084600D01*
X118238400Y-78084600D02*
X116913400Y-78084600D01*
X121626400Y-78124600D02*
X120318400Y-78124600D01*
X118238400Y-78124600D02*
X116930400Y-78124600D01*
X121607400Y-78164600D02*
X120318400Y-78164600D01*
X118238400Y-78164600D02*
X116949400Y-78164600D01*
X121588400Y-78204600D02*
X120318400Y-78204600D01*
X118238400Y-78204600D02*
X116968400Y-78204600D01*
X121568400Y-78244600D02*
X120318400Y-78244600D01*
X118238400Y-78244600D02*
X116988400Y-78244600D01*
X121546400Y-78284600D02*
X120318400Y-78284600D01*
X118238400Y-78284600D02*
X117010400Y-78284600D01*
X121525400Y-78324600D02*
X120318400Y-78324600D01*
X118238400Y-78324600D02*
X117031400Y-78324600D01*
X121502400Y-78364600D02*
X120318400Y-78364600D01*
X118238400Y-78364600D02*
X117054400Y-78364600D01*
X121478400Y-78404600D02*
X120318400Y-78404600D01*
X118238400Y-78404600D02*
X117078400Y-78404600D01*
X121453400Y-78444600D02*
X120318400Y-78444600D01*
X118238400Y-78444600D02*
X117103400Y-78444600D01*
X121427400Y-78484600D02*
X120318400Y-78484600D01*
X118238400Y-78484600D02*
X117129400Y-78484600D01*
X121400400Y-78524600D02*
X120318400Y-78524600D01*
X118238400Y-78524600D02*
X117156400Y-78524600D01*
X121373400Y-78564600D02*
X120318400Y-78564600D01*
X118238400Y-78564600D02*
X117183400Y-78564600D01*
X121343400Y-78604600D02*
X120318400Y-78604600D01*
X118238400Y-78604600D02*
X117213400Y-78604600D01*
X121313400Y-78644600D02*
X120318400Y-78644600D01*
X118238400Y-78644600D02*
X117243400Y-78644600D01*
X121282400Y-78684600D02*
X120318400Y-78684600D01*
X118238400Y-78684600D02*
X117274400Y-78684600D01*
X121249400Y-78724600D02*
X120318400Y-78724600D01*
X118238400Y-78724600D02*
X117307400Y-78724600D01*
X121215400Y-78764600D02*
X120318400Y-78764600D01*
X118238400Y-78764600D02*
X117341400Y-78764600D01*
X121179400Y-78804600D02*
X120318400Y-78804600D01*
X118238400Y-78804600D02*
X117377400Y-78804600D01*
X121142400Y-78844600D02*
X120318400Y-78844600D01*
X118238400Y-78844600D02*
X117414400Y-78844600D01*
X121104400Y-78884600D02*
X120318400Y-78884600D01*
X118238400Y-78884600D02*
X117452400Y-78884600D01*
X121063400Y-78924600D02*
X120318400Y-78924600D01*
X118238400Y-78924600D02*
X117493400Y-78924600D01*
X121021400Y-78964600D02*
X120318400Y-78964600D01*
X118238400Y-78964600D02*
X117535400Y-78964600D01*
X120977400Y-79004600D02*
X120318400Y-79004600D01*
X118238400Y-79004600D02*
X117579400Y-79004600D01*
X120931400Y-79044600D02*
X120318400Y-79044600D01*
X118238400Y-79044600D02*
X117625400Y-79044600D01*
X120883400Y-79084600D02*
X120318400Y-79084600D01*
X118238400Y-79084600D02*
X117673400Y-79084600D01*
X120832400Y-79124600D02*
X120318400Y-79124600D01*
X118238400Y-79124600D02*
X117724400Y-79124600D01*
X120778400Y-79164600D02*
X120318400Y-79164600D01*
X118238400Y-79164600D02*
X117778400Y-79164600D01*
X120721400Y-79204600D02*
X120318400Y-79204600D01*
X118238400Y-79204600D02*
X117835400Y-79204600D01*
X120661400Y-79244600D02*
X120318400Y-79244600D01*
X118238400Y-79244600D02*
X117895400Y-79244600D01*
X120597400Y-79284600D02*
X120318400Y-79284600D01*
X118238400Y-79284600D02*
X117959400Y-79284600D01*
X120529400Y-79324600D02*
X120318400Y-79324600D01*
X118238400Y-79324600D02*
X118027400Y-79324600D01*
X120456400Y-79364600D02*
X118100400Y-79364600D01*
X120376400Y-79404600D02*
X118180400Y-79404600D01*
X120289400Y-79444600D02*
X118267400Y-79444600D01*
X120193400Y-79484600D02*
X118363400Y-79484600D01*
X120083400Y-79524600D02*
X118473400Y-79524600D01*
X119955400Y-79564600D02*
X118601400Y-79564600D01*
X119796400Y-79604600D02*
X118760400Y-79604600D01*
X119562400Y-79644600D02*
X118994400Y-79644600D01*
X120753400Y-74238825D02*
X120753400Y-74738825D01*
X121003400Y-74488825D02*
X120503400Y-74488825D01*
X128857700Y-84693000D02*
X128857700Y-86343000D01*
X128857700Y-86343000D02*
X139137700Y-86343000D01*
X139137700Y-86343000D02*
X139137700Y-81043000D01*
X139137700Y-81043000D02*
X128857700Y-81043000D01*
X128857700Y-81043000D02*
X128857700Y-82693000D01*
X128857700Y-82693000D02*
G75*
G02*
X128857700Y-84693000I0J-1000000D01*
G01*
X145284700Y-76594600D02*
X149784700Y-76594600D01*
X144034700Y-72594600D02*
X144034700Y-74094600D01*
X149784700Y-70094600D02*
X145284700Y-70094600D01*
X151034700Y-74094600D02*
X151034700Y-72594600D01*
X126185600Y-92811600D02*
G75*
G03*
X126185600Y-92811600I-1370000J0D01*
G01*
X123445600Y-92811600D02*
X123375600Y-92811600D01*
X142136800Y-71145400D02*
G75*
G03*
X142136800Y-71145400I-1370000J0D01*
G01*
X140766800Y-72515400D02*
X140766800Y-72585400D01*
X135440100Y-73279000D02*
X135440100Y-71329000D01*
X135440100Y-73279000D02*
X135440100Y-75229000D01*
X130320100Y-73279000D02*
X130320100Y-71329000D01*
X130320100Y-73279000D02*
X130320100Y-76729000D01*
X141419400Y-87646200D02*
X141419400Y-88696200D01*
X142469400Y-88696200D02*
X141419400Y-88696200D01*
X147519400Y-79296200D02*
X156319400Y-79296200D01*
X156319400Y-79296200D02*
X156319400Y-88496200D01*
X141619400Y-81996200D02*
X141619400Y-79296200D01*
X141619400Y-79296200D02*
X143519400Y-79296200D01*
X156319400Y-88496200D02*
X141619400Y-88496200D01*
X141619400Y-88496200D02*
X141619400Y-85896200D01*
D13*
X121554335Y-70196460D02*
X121554335Y-71005984D01*
X121601954Y-71101222D01*
X121649573Y-71148841D01*
X121744811Y-71196460D01*
X121935287Y-71196460D01*
X122030525Y-71148841D01*
X122078144Y-71101222D01*
X122125763Y-71005984D01*
X122125763Y-70196460D01*
X123125763Y-71196460D02*
X122554335Y-71196460D01*
X122840049Y-71196460D02*
X122840049Y-70196460D01*
X122744811Y-70339318D01*
X122649573Y-70434556D01*
X122554335Y-70482175D01*
X144602460Y-92350815D02*
X143602460Y-92350815D01*
X143602460Y-92112720D01*
X143650080Y-91969862D01*
X143745318Y-91874624D01*
X143840556Y-91827005D01*
X144031032Y-91779386D01*
X144173889Y-91779386D01*
X144364365Y-91827005D01*
X144459603Y-91874624D01*
X144554841Y-91969862D01*
X144602460Y-92112720D01*
X144602460Y-92350815D01*
X143602460Y-91446053D02*
X143602460Y-90827005D01*
X143983413Y-91160339D01*
X143983413Y-91017481D01*
X144031032Y-90922243D01*
X144078651Y-90874624D01*
X144173889Y-90827005D01*
X144411984Y-90827005D01*
X144507222Y-90874624D01*
X144554841Y-90922243D01*
X144602460Y-91017481D01*
X144602460Y-91303196D01*
X144554841Y-91398434D01*
X144507222Y-91446053D01*
X137734300Y-92350815D02*
X136734300Y-92350815D01*
X136734300Y-92112720D01*
X136781920Y-91969862D01*
X136877158Y-91874624D01*
X136972396Y-91827005D01*
X137162872Y-91779386D01*
X137305729Y-91779386D01*
X137496205Y-91827005D01*
X137591443Y-91874624D01*
X137686681Y-91969862D01*
X137734300Y-92112720D01*
X137734300Y-92350815D01*
X136829539Y-91398434D02*
X136781920Y-91350815D01*
X136734300Y-91255577D01*
X136734300Y-91017481D01*
X136781920Y-90922243D01*
X136829539Y-90874624D01*
X136924777Y-90827005D01*
X137020015Y-90827005D01*
X137162872Y-90874624D01*
X137734300Y-91446053D01*
X137734300Y-90827005D01*
X130972820Y-92401615D02*
X129972820Y-92401615D01*
X129972820Y-92163520D01*
X130020440Y-92020662D01*
X130115678Y-91925424D01*
X130210916Y-91877805D01*
X130401392Y-91830186D01*
X130544249Y-91830186D01*
X130734725Y-91877805D01*
X130829963Y-91925424D01*
X130925201Y-92020662D01*
X130972820Y-92163520D01*
X130972820Y-92401615D01*
X130972820Y-90877805D02*
X130972820Y-91449234D01*
X130972820Y-91163520D02*
X129972820Y-91163520D01*
X130115678Y-91258758D01*
X130210916Y-91353996D01*
X130258535Y-91449234D01*
X137955280Y-76150766D02*
X137479090Y-76484100D01*
X137955280Y-76722195D02*
X136955280Y-76722195D01*
X136955280Y-76341242D01*
X137002900Y-76246004D01*
X137050519Y-76198385D01*
X137145757Y-76150766D01*
X137288614Y-76150766D01*
X137383852Y-76198385D01*
X137431471Y-76246004D01*
X137479090Y-76341242D01*
X137479090Y-76722195D01*
X137955280Y-75198385D02*
X137955280Y-75769814D01*
X137955280Y-75484100D02*
X136955280Y-75484100D01*
X137098138Y-75579338D01*
X137193376Y-75674576D01*
X137240995Y-75769814D01*
X119035533Y-76155822D02*
X118987914Y-76203441D01*
X118845057Y-76251060D01*
X118749819Y-76251060D01*
X118606961Y-76203441D01*
X118511723Y-76108203D01*
X118464104Y-76012965D01*
X118416485Y-75822489D01*
X118416485Y-75679632D01*
X118464104Y-75489156D01*
X118511723Y-75393918D01*
X118606961Y-75298680D01*
X118749819Y-75251060D01*
X118845057Y-75251060D01*
X118987914Y-75298680D01*
X119035533Y-75346299D01*
X119987914Y-76251060D02*
X119416485Y-76251060D01*
X119702200Y-76251060D02*
X119702200Y-75251060D01*
X119606961Y-75393918D01*
X119511723Y-75489156D01*
X119416485Y-75536775D01*
X139481655Y-80148180D02*
X139481655Y-80957704D01*
X139529274Y-81052942D01*
X139576893Y-81100561D01*
X139672131Y-81148180D01*
X139862607Y-81148180D01*
X139957845Y-81100561D01*
X140005464Y-81052942D01*
X140053083Y-80957704D01*
X140053083Y-80148180D01*
X140481655Y-80243419D02*
X140529274Y-80195800D01*
X140624512Y-80148180D01*
X140862607Y-80148180D01*
X140957845Y-80195800D01*
X141005464Y-80243419D01*
X141053083Y-80338657D01*
X141053083Y-80433895D01*
X141005464Y-80576752D01*
X140434036Y-81148180D01*
X141053083Y-81148180D01*
X146448946Y-73798061D02*
X146591803Y-73845680D01*
X146829899Y-73845680D01*
X146925137Y-73798061D01*
X146972756Y-73750442D01*
X147020375Y-73655204D01*
X147020375Y-73559966D01*
X146972756Y-73464728D01*
X146925137Y-73417109D01*
X146829899Y-73369490D01*
X146639422Y-73321871D01*
X146544184Y-73274252D01*
X146496565Y-73226633D01*
X146448946Y-73131395D01*
X146448946Y-73036157D01*
X146496565Y-72940919D01*
X146544184Y-72893300D01*
X146639422Y-72845680D01*
X146877518Y-72845680D01*
X147020375Y-72893300D01*
X147353708Y-72845680D02*
X147591803Y-73845680D01*
X147782280Y-73131395D01*
X147972756Y-73845680D01*
X148210851Y-72845680D01*
X149115613Y-73845680D02*
X148544184Y-73845680D01*
X148829899Y-73845680D02*
X148829899Y-72845680D01*
X148734660Y-72988538D01*
X148639422Y-73083776D01*
X148544184Y-73131395D01*
X120330933Y-91780620D02*
X119997600Y-91304430D01*
X119759504Y-91780620D02*
X119759504Y-90780620D01*
X120140457Y-90780620D01*
X120235695Y-90828240D01*
X120283314Y-90875859D01*
X120330933Y-90971097D01*
X120330933Y-91113954D01*
X120283314Y-91209192D01*
X120235695Y-91256811D01*
X120140457Y-91304430D01*
X119759504Y-91304430D01*
X120664266Y-90780620D02*
X121283314Y-90780620D01*
X120949980Y-91161573D01*
X121092838Y-91161573D01*
X121188076Y-91209192D01*
X121235695Y-91256811D01*
X121283314Y-91352049D01*
X121283314Y-91590144D01*
X121235695Y-91685382D01*
X121188076Y-91733001D01*
X121092838Y-91780620D01*
X120807123Y-91780620D01*
X120711885Y-91733001D01*
X120664266Y-91685382D01*
X141308080Y-76112666D02*
X140831890Y-76446000D01*
X141308080Y-76684095D02*
X140308080Y-76684095D01*
X140308080Y-76303142D01*
X140355700Y-76207904D01*
X140403319Y-76160285D01*
X140498557Y-76112666D01*
X140641414Y-76112666D01*
X140736652Y-76160285D01*
X140784271Y-76207904D01*
X140831890Y-76303142D01*
X140831890Y-76684095D01*
X140403319Y-75731714D02*
X140355700Y-75684095D01*
X140308080Y-75588857D01*
X140308080Y-75350761D01*
X140355700Y-75255523D01*
X140403319Y-75207904D01*
X140498557Y-75160285D01*
X140593795Y-75160285D01*
X140736652Y-75207904D01*
X141308080Y-75779333D01*
X141308080Y-75160285D01*
X129282201Y-71347579D02*
X129186963Y-71299960D01*
X129091725Y-71204721D01*
X128948868Y-71061864D01*
X128853630Y-71014245D01*
X128758392Y-71014245D01*
X128806011Y-71252340D02*
X128710773Y-71204721D01*
X128615535Y-71109483D01*
X128567916Y-70919007D01*
X128567916Y-70585674D01*
X128615535Y-70395198D01*
X128710773Y-70299960D01*
X128806011Y-70252340D01*
X128996487Y-70252340D01*
X129091725Y-70299960D01*
X129186963Y-70395198D01*
X129234582Y-70585674D01*
X129234582Y-70919007D01*
X129186963Y-71109483D01*
X129091725Y-71204721D01*
X128996487Y-71252340D01*
X128806011Y-71252340D01*
X130186963Y-71252340D02*
X129615535Y-71252340D01*
X129901249Y-71252340D02*
X129901249Y-70252340D01*
X129806011Y-70395198D01*
X129710773Y-70490436D01*
X129615535Y-70538055D01*
%LPC*%
D14*
X123455400Y-77114800D03*
X128055400Y-77114800D03*
X125755400Y-77114800D03*
D15*
X125755400Y-70814800D03*
D16*
X144195800Y-90576400D03*
D17*
X144195800Y-93116400D03*
D16*
X137337800Y-90576400D03*
D17*
X137337800Y-93116400D03*
D16*
X130606800Y-90576400D03*
D17*
X130606800Y-93116400D03*
D18*
X120294400Y-87778600D03*
D19*
X120294400Y-82778600D03*
D20*
X154711400Y-92710000D03*
X154711400Y-71882000D03*
X118110000Y-71882000D03*
X118110000Y-92710000D03*
D21*
X137401300Y-73685400D03*
D22*
X137401300Y-71145400D03*
X119278400Y-78293600D03*
D23*
X119278400Y-75793600D03*
D21*
X130187700Y-79883000D03*
X137807700Y-87503000D03*
X132727700Y-79883000D03*
X135267700Y-87503000D03*
X135267700Y-79883000D03*
X132727700Y-87503000D03*
X137807700Y-79883000D03*
D23*
X130187700Y-87503000D03*
D24*
X150784700Y-71094600D03*
X150784700Y-75594600D03*
X144284700Y-71094600D03*
X144284700Y-75594600D03*
D21*
X122275600Y-92811600D03*
D22*
X124815600Y-92811600D03*
D21*
X140766800Y-73685400D03*
D22*
X140766800Y-71145400D03*
G36*
G01*
X131125100Y-71779000D02*
X130825100Y-71779000D01*
G75*
G02*
X130675100Y-71629000I0J150000D01*
G01*
X130675100Y-69979000D01*
G75*
G02*
X130825100Y-69829000I150000J0D01*
G01*
X131125100Y-69829000D01*
G75*
G02*
X131275100Y-69979000I0J-150000D01*
G01*
X131275100Y-71629000D01*
G75*
G02*
X131125100Y-71779000I-150000J0D01*
G01*
G37*
G36*
G01*
X132395100Y-71779000D02*
X132095100Y-71779000D01*
G75*
G02*
X131945100Y-71629000I0J150000D01*
G01*
X131945100Y-69979000D01*
G75*
G02*
X132095100Y-69829000I150000J0D01*
G01*
X132395100Y-69829000D01*
G75*
G02*
X132545100Y-69979000I0J-150000D01*
G01*
X132545100Y-71629000D01*
G75*
G02*
X132395100Y-71779000I-150000J0D01*
G01*
G37*
G36*
G01*
X133665100Y-71779000D02*
X133365100Y-71779000D01*
G75*
G02*
X133215100Y-71629000I0J150000D01*
G01*
X133215100Y-69979000D01*
G75*
G02*
X133365100Y-69829000I150000J0D01*
G01*
X133665100Y-69829000D01*
G75*
G02*
X133815100Y-69979000I0J-150000D01*
G01*
X133815100Y-71629000D01*
G75*
G02*
X133665100Y-71779000I-150000J0D01*
G01*
G37*
G36*
G01*
X134935100Y-71779000D02*
X134635100Y-71779000D01*
G75*
G02*
X134485100Y-71629000I0J150000D01*
G01*
X134485100Y-69979000D01*
G75*
G02*
X134635100Y-69829000I150000J0D01*
G01*
X134935100Y-69829000D01*
G75*
G02*
X135085100Y-69979000I0J-150000D01*
G01*
X135085100Y-71629000D01*
G75*
G02*
X134935100Y-71779000I-150000J0D01*
G01*
G37*
G36*
G01*
X134935100Y-76729000D02*
X134635100Y-76729000D01*
G75*
G02*
X134485100Y-76579000I0J150000D01*
G01*
X134485100Y-74929000D01*
G75*
G02*
X134635100Y-74779000I150000J0D01*
G01*
X134935100Y-74779000D01*
G75*
G02*
X135085100Y-74929000I0J-150000D01*
G01*
X135085100Y-76579000D01*
G75*
G02*
X134935100Y-76729000I-150000J0D01*
G01*
G37*
G36*
G01*
X133665100Y-76729000D02*
X133365100Y-76729000D01*
G75*
G02*
X133215100Y-76579000I0J150000D01*
G01*
X133215100Y-74929000D01*
G75*
G02*
X133365100Y-74779000I150000J0D01*
G01*
X133665100Y-74779000D01*
G75*
G02*
X133815100Y-74929000I0J-150000D01*
G01*
X133815100Y-76579000D01*
G75*
G02*
X133665100Y-76729000I-150000J0D01*
G01*
G37*
G36*
G01*
X132395100Y-76729000D02*
X132095100Y-76729000D01*
G75*
G02*
X131945100Y-76579000I0J150000D01*
G01*
X131945100Y-74929000D01*
G75*
G02*
X132095100Y-74779000I150000J0D01*
G01*
X132395100Y-74779000D01*
G75*
G02*
X132545100Y-74929000I0J-150000D01*
G01*
X132545100Y-76579000D01*
G75*
G02*
X132395100Y-76729000I-150000J0D01*
G01*
G37*
G36*
G01*
X131125100Y-76729000D02*
X130825100Y-76729000D01*
G75*
G02*
X130675100Y-76579000I0J150000D01*
G01*
X130675100Y-74929000D01*
G75*
G02*
X130825100Y-74779000I150000J0D01*
G01*
X131125100Y-74779000D01*
G75*
G02*
X131275100Y-74929000I0J-150000D01*
G01*
X131275100Y-76579000D01*
G75*
G02*
X131125100Y-76729000I-150000J0D01*
G01*
G37*
G36*
G01*
X147269400Y-78321200D02*
X147269400Y-80071200D01*
G75*
G02*
X146394400Y-80946200I-875000J0D01*
G01*
X144644400Y-80946200D01*
G75*
G02*
X143769400Y-80071200I0J875000D01*
G01*
X143769400Y-78321200D01*
G75*
G02*
X144644400Y-77446200I875000J0D01*
G01*
X146394400Y-77446200D01*
G75*
G02*
X147269400Y-78321200I0J-875000D01*
G01*
G37*
G36*
G01*
X150019400Y-82896200D02*
X150019400Y-84896200D01*
G75*
G02*
X149269400Y-85646200I-750000J0D01*
G01*
X147769400Y-85646200D01*
G75*
G02*
X147019400Y-84896200I0J750000D01*
G01*
X147019400Y-82896200D01*
G75*
G02*
X147769400Y-82146200I750000J0D01*
G01*
X149269400Y-82146200D01*
G75*
G02*
X150019400Y-82896200I0J-750000D01*
G01*
G37*
D25*
X142519400Y-83896200D03*
M02*
