G04 #@! TF.GenerationSoftware,KiCad,Pcbnew,(5.1.12-1-10_14)*
G04 #@! TF.CreationDate,2021-11-28T09:31:38-08:00*
G04 #@! TF.ProjectId,24h-timer-switch,3234682d-7469-46d6-9572-2d7377697463,1*
G04 #@! TF.SameCoordinates,Original*
G04 #@! TF.FileFunction,Paste,Top*
G04 #@! TF.FilePolarity,Positive*
%FSLAX46Y46*%
G04 Gerber Fmt 4.6, Leading zero omitted, Abs format (unit mm)*
G04 Created by KiCad (PCBNEW (5.1.12-1-10_14)) date 2021-11-28 09:31:38*
%MOMM*%
%LPD*%
G01*
G04 APERTURE LIST*
%ADD10R,1.500000X2.000000*%
%ADD11R,3.800000X2.000000*%
G04 APERTURE END LIST*
D10*
X123455400Y-77114800D03*
X128055400Y-77114800D03*
X125755400Y-77114800D03*
D11*
X125755400Y-70814800D03*
G36*
G01*
X131125100Y-71779000D02*
X130825100Y-71779000D01*
G75*
G02*
X130675100Y-71629000I0J150000D01*
G01*
X130675100Y-69979000D01*
G75*
G02*
X130825100Y-69829000I150000J0D01*
G01*
X131125100Y-69829000D01*
G75*
G02*
X131275100Y-69979000I0J-150000D01*
G01*
X131275100Y-71629000D01*
G75*
G02*
X131125100Y-71779000I-150000J0D01*
G01*
G37*
G36*
G01*
X132395100Y-71779000D02*
X132095100Y-71779000D01*
G75*
G02*
X131945100Y-71629000I0J150000D01*
G01*
X131945100Y-69979000D01*
G75*
G02*
X132095100Y-69829000I150000J0D01*
G01*
X132395100Y-69829000D01*
G75*
G02*
X132545100Y-69979000I0J-150000D01*
G01*
X132545100Y-71629000D01*
G75*
G02*
X132395100Y-71779000I-150000J0D01*
G01*
G37*
G36*
G01*
X133665100Y-71779000D02*
X133365100Y-71779000D01*
G75*
G02*
X133215100Y-71629000I0J150000D01*
G01*
X133215100Y-69979000D01*
G75*
G02*
X133365100Y-69829000I150000J0D01*
G01*
X133665100Y-69829000D01*
G75*
G02*
X133815100Y-69979000I0J-150000D01*
G01*
X133815100Y-71629000D01*
G75*
G02*
X133665100Y-71779000I-150000J0D01*
G01*
G37*
G36*
G01*
X134935100Y-71779000D02*
X134635100Y-71779000D01*
G75*
G02*
X134485100Y-71629000I0J150000D01*
G01*
X134485100Y-69979000D01*
G75*
G02*
X134635100Y-69829000I150000J0D01*
G01*
X134935100Y-69829000D01*
G75*
G02*
X135085100Y-69979000I0J-150000D01*
G01*
X135085100Y-71629000D01*
G75*
G02*
X134935100Y-71779000I-150000J0D01*
G01*
G37*
G36*
G01*
X134935100Y-76729000D02*
X134635100Y-76729000D01*
G75*
G02*
X134485100Y-76579000I0J150000D01*
G01*
X134485100Y-74929000D01*
G75*
G02*
X134635100Y-74779000I150000J0D01*
G01*
X134935100Y-74779000D01*
G75*
G02*
X135085100Y-74929000I0J-150000D01*
G01*
X135085100Y-76579000D01*
G75*
G02*
X134935100Y-76729000I-150000J0D01*
G01*
G37*
G36*
G01*
X133665100Y-76729000D02*
X133365100Y-76729000D01*
G75*
G02*
X133215100Y-76579000I0J150000D01*
G01*
X133215100Y-74929000D01*
G75*
G02*
X133365100Y-74779000I150000J0D01*
G01*
X133665100Y-74779000D01*
G75*
G02*
X133815100Y-74929000I0J-150000D01*
G01*
X133815100Y-76579000D01*
G75*
G02*
X133665100Y-76729000I-150000J0D01*
G01*
G37*
G36*
G01*
X132395100Y-76729000D02*
X132095100Y-76729000D01*
G75*
G02*
X131945100Y-76579000I0J150000D01*
G01*
X131945100Y-74929000D01*
G75*
G02*
X132095100Y-74779000I150000J0D01*
G01*
X132395100Y-74779000D01*
G75*
G02*
X132545100Y-74929000I0J-150000D01*
G01*
X132545100Y-76579000D01*
G75*
G02*
X132395100Y-76729000I-150000J0D01*
G01*
G37*
G36*
G01*
X131125100Y-76729000D02*
X130825100Y-76729000D01*
G75*
G02*
X130675100Y-76579000I0J150000D01*
G01*
X130675100Y-74929000D01*
G75*
G02*
X130825100Y-74779000I150000J0D01*
G01*
X131125100Y-74779000D01*
G75*
G02*
X131275100Y-74929000I0J-150000D01*
G01*
X131275100Y-76579000D01*
G75*
G02*
X131125100Y-76729000I-150000J0D01*
G01*
G37*
M02*
