M48
; DRILL file {KiCad (5.1.12-1-10_14)} date Monday, December 20, 2021 at 12:17:06 AM
; FORMAT={-:-/ absolute / inch / decimal}
; #@! TF.CreationDate,2021-12-20T00:17:06-08:00
; #@! TF.GenerationSoftware,Kicad,Pcbnew,(5.1.12-1-10_14)
; #@! TF.FileFunction,Plated,1,2,PTH
FMAT,2
INCH
T1C0.0100
T2C0.0300
T3C0.0315
T4C0.0354
T5C0.0394
T6C0.0433
T7C0.0551
%
G90
G05
T1
X4.837Y-3.107
X5.115Y-3.049
X5.3255Y-2.9715
X5.399Y-3.078
T2
X4.9255Y-3.4545
X5.117Y-2.899
T3
X4.661Y-2.987
X4.661Y-3.0854
X5.1255Y-3.145
X5.1255Y-3.445
X5.15Y-2.796
X5.2255Y-3.145
X5.2255Y-3.445
X5.25Y-2.796
X5.3255Y-3.145
X5.3255Y-3.445
X5.373Y-2.796
X5.4255Y-3.145
X5.4255Y-3.445
X5.473Y-2.796
X5.877Y-3.575
X5.877Y-3.675
X5.955Y-2.968
X6.055Y-2.968
T4
X5.141Y-3.574
X5.141Y-3.674
X5.409Y-3.574
X5.409Y-3.674
X5.676Y-3.574
X5.676Y-3.674
T6
X5.589Y-2.797
X5.589Y-2.9742
X5.8449Y-2.797
X5.8449Y-2.9742
T7
X4.735Y-3.267
X4.735Y-3.4639
T5
G00X5.611Y-3.3424
M15
G01X5.611Y-3.2636
M16
G05
G00X5.7685Y-3.118
M15
G01X5.6897Y-3.118
M16
G05
G00X5.8472Y-3.3424
M15
G01X5.8472Y-3.2636
M16
G05
T0
M30
