M48
; DRILL file {KiCad (5.1.12-1-10_14)} date Sunday, November 28, 2021 at 01:21:26 AM
; FORMAT={-:-/ absolute / inch / decimal}
; #@! TF.CreationDate,2021-11-28T01:21:26-08:00
; #@! TF.GenerationSoftware,Kicad,Pcbnew,(5.1.12-1-10_14)
; #@! TF.FileFunction,Plated,1,2,PTH
FMAT,2
INCH
T1C0.0100
T2C0.0300
T3C0.0315
T4C0.0354
T5C0.0394
T6C0.0433
T7C0.0551
%
G90
G05
T1
X5.1255Y-3.361
X5.207Y-3.057
X5.504Y-3.438
T2
X4.9255Y-3.4545
X5.2075Y-2.874
T3
X4.696Y-2.984
X4.696Y-3.0824
X4.814Y-3.654
X4.914Y-3.654
X5.1255Y-3.145
X5.1255Y-3.445
X5.2255Y-3.145
X5.2255Y-3.445
X5.3255Y-3.145
X5.3255Y-3.445
X5.4095Y-2.801
X5.4095Y-2.901
X5.4255Y-3.145
X5.4255Y-3.445
X5.542Y-2.801
X5.542Y-2.901
T4
X5.142Y-3.566
X5.142Y-3.666
X5.407Y-3.566
X5.407Y-3.666
X5.677Y-3.566
X5.677Y-3.666
T6
X5.6805Y-2.799
X5.6805Y-2.9762
X5.9364Y-2.799
X5.9364Y-2.9762
T7
X4.736Y-3.259
X4.736Y-3.4559
T5
G00X5.611Y-3.3424
M15
G01X5.611Y-3.2636
M16
G05
G00X5.7685Y-3.118
M15
G01X5.6897Y-3.118
M16
G05
G00X5.8472Y-3.3424
M15
G01X5.8472Y-3.2636
M16
G05
T0
M30
