G04 #@! TF.GenerationSoftware,KiCad,Pcbnew,(5.1.12-1-10_14)*
G04 #@! TF.CreationDate,2021-12-20T00:17:04-08:00*
G04 #@! TF.ProjectId,24h-timer-switch,3234682d-7469-46d6-9572-2d7377697463,1*
G04 #@! TF.SameCoordinates,Original*
G04 #@! TF.FileFunction,Legend,Top*
G04 #@! TF.FilePolarity,Positive*
%FSLAX46Y46*%
G04 Gerber Fmt 4.6, Leading zero omitted, Abs format (unit mm)*
G04 Created by KiCad (PCBNEW (5.1.12-1-10_14)) date 2021-12-20 00:17:04*
%MOMM*%
%LPD*%
G01*
G04 APERTURE LIST*
%ADD10C,0.254000*%
%ADD11C,0.127000*%
%ADD12C,0.120000*%
%ADD13C,0.150000*%
%ADD14O,1.600000X1.600000*%
%ADD15C,1.600000*%
%ADD16R,1.500000X2.000000*%
%ADD17R,3.800000X2.000000*%
%ADD18C,1.800000*%
%ADD19R,1.800000X1.800000*%
%ADD20C,2.800000*%
%ADD21R,2.800000X2.800000*%
%ADD22R,1.600000X1.600000*%
%ADD23C,2.000000*%
%ADD24R,3.500000X3.500000*%
G04 APERTURE END LIST*
D10*
X149817303Y-78305539D02*
X149817303Y-77289539D01*
X150397875Y-78305539D02*
X149962446Y-77724967D01*
X150397875Y-77289539D02*
X149817303Y-77870110D01*
X150833303Y-78305539D02*
X150833303Y-77289539D01*
X151171970Y-78015253D01*
X151510637Y-77289539D01*
X151510637Y-78305539D01*
X152429875Y-77289539D02*
X152236351Y-77289539D01*
X152139589Y-77337920D01*
X152091208Y-77386300D01*
X151994446Y-77531443D01*
X151946065Y-77724967D01*
X151946065Y-78112015D01*
X151994446Y-78208777D01*
X152042827Y-78257158D01*
X152139589Y-78305539D01*
X152333113Y-78305539D01*
X152429875Y-78257158D01*
X152478256Y-78208777D01*
X152526637Y-78112015D01*
X152526637Y-77870110D01*
X152478256Y-77773348D01*
X152429875Y-77724967D01*
X152333113Y-77676586D01*
X152139589Y-77676586D01*
X152042827Y-77724967D01*
X151994446Y-77773348D01*
X151946065Y-77870110D01*
X153300732Y-77773348D02*
X153445875Y-77821729D01*
X153494256Y-77870110D01*
X153542637Y-77966872D01*
X153542637Y-78112015D01*
X153494256Y-78208777D01*
X153445875Y-78257158D01*
X153349113Y-78305539D01*
X152962065Y-78305539D01*
X152962065Y-77289539D01*
X153300732Y-77289539D01*
X153397494Y-77337920D01*
X153445875Y-77386300D01*
X153494256Y-77483062D01*
X153494256Y-77579824D01*
X153445875Y-77676586D01*
X153397494Y-77724967D01*
X153300732Y-77773348D01*
X152962065Y-77773348D01*
X153929684Y-78257158D02*
X154074827Y-78305539D01*
X154316732Y-78305539D01*
X154413494Y-78257158D01*
X154461875Y-78208777D01*
X154510256Y-78112015D01*
X154510256Y-78015253D01*
X154461875Y-77918491D01*
X154413494Y-77870110D01*
X154316732Y-77821729D01*
X154123208Y-77773348D01*
X154026446Y-77724967D01*
X153978065Y-77676586D01*
X153929684Y-77579824D01*
X153929684Y-77483062D01*
X153978065Y-77386300D01*
X154026446Y-77337920D01*
X154123208Y-77289539D01*
X154365113Y-77289539D01*
X154510256Y-77337920D01*
X155623018Y-78402300D02*
X155526256Y-78353920D01*
X155429494Y-78257158D01*
X155284351Y-78112015D01*
X155187589Y-78063634D01*
X155090827Y-78063634D01*
X155139208Y-78305539D02*
X155042446Y-78257158D01*
X154945684Y-78160396D01*
X154897303Y-77966872D01*
X154897303Y-77628205D01*
X154945684Y-77434681D01*
X155042446Y-77337920D01*
X155139208Y-77289539D01*
X155332732Y-77289539D01*
X155429494Y-77337920D01*
X155526256Y-77434681D01*
X155574637Y-77628205D01*
X155574637Y-77966872D01*
X155526256Y-78160396D01*
X155429494Y-78257158D01*
X155332732Y-78305539D01*
X155139208Y-78305539D01*
D11*
X133435634Y-73626980D02*
X133617062Y-73626980D01*
X133544491Y-73808408D02*
X133617062Y-73626980D01*
X133544491Y-73445551D01*
X133762205Y-73735837D02*
X133617062Y-73626980D01*
X133762205Y-73518122D01*
D10*
X117275428Y-83776699D02*
X117275428Y-81841460D01*
X116172100Y-87913028D02*
X118107339Y-87913028D01*
X117139720Y-88880647D02*
X117139720Y-86945409D01*
D11*
X131064000Y-84799714D02*
X131064000Y-84981142D01*
X130882571Y-84908571D02*
X131064000Y-84981142D01*
X131245428Y-84908571D01*
X130955142Y-85126285D02*
X131064000Y-84981142D01*
X131172857Y-85126285D01*
X133072414Y-89157628D02*
X133652985Y-89157628D01*
X133362700Y-89447914D02*
X133362700Y-88867342D01*
X139714514Y-89183028D02*
X140295085Y-89183028D01*
X140004800Y-89473314D02*
X140004800Y-88892742D01*
X146470914Y-89195728D02*
X147051485Y-89195728D01*
X146761200Y-89486014D02*
X146761200Y-88905442D01*
D12*
X137844200Y-71018400D02*
G75*
G03*
X137844200Y-71018400I-1370000J0D01*
G01*
X137844200Y-71018400D02*
X137914200Y-71018400D01*
X134645400Y-72979600D02*
X131195400Y-72979600D01*
X134645400Y-72979600D02*
X136595400Y-72979600D01*
X134645400Y-78099600D02*
X132695400Y-78099600D01*
X134645400Y-78099600D02*
X136595400Y-78099600D01*
X128581200Y-72080200D02*
X127321200Y-72080200D01*
X121761200Y-72080200D02*
X123021200Y-72080200D01*
X128581200Y-75840200D02*
X128581200Y-72080200D01*
X121761200Y-78090200D02*
X121761200Y-72080200D01*
X146670400Y-92049600D02*
G75*
G03*
X146670400Y-92049600I-2500000J0D01*
G01*
X142625400Y-94609600D02*
X145715400Y-94609600D01*
X144169938Y-89059600D02*
G75*
G02*
X145715230Y-94609600I462J-2990000D01*
G01*
X144170862Y-89059600D02*
G75*
G03*
X142625570Y-94609600I-462J-2990000D01*
G01*
X139888600Y-92049600D02*
G75*
G03*
X139888600Y-92049600I-2500000J0D01*
G01*
X135843600Y-94609600D02*
X138933600Y-94609600D01*
X137388138Y-89059600D02*
G75*
G02*
X138933430Y-94609600I462J-2990000D01*
G01*
X137389062Y-89059600D02*
G75*
G03*
X135843770Y-94609600I-462J-2990000D01*
G01*
X133081400Y-92049600D02*
G75*
G03*
X133081400Y-92049600I-2500000J0D01*
G01*
X129036400Y-94609600D02*
X132126400Y-94609600D01*
X130580938Y-89059600D02*
G75*
G02*
X132126230Y-94609600I462J-2990000D01*
G01*
X130581862Y-89059600D02*
G75*
G03*
X129036570Y-94609600I-462J-2990000D01*
G01*
X122049000Y-87981800D02*
G75*
G03*
X122049000Y-87981800I-1780000J0D01*
G01*
X118269000Y-80421800D02*
X118269000Y-90541800D01*
X122269000Y-80421800D02*
X122269000Y-90541800D01*
X123269000Y-80421800D02*
X123269000Y-90541800D01*
X126829000Y-80421800D02*
X126829000Y-90541800D01*
X116209000Y-80421800D02*
X116209000Y-90541800D01*
X126829000Y-80421800D02*
X116209000Y-80421800D01*
X126829000Y-90541800D02*
X116209000Y-90541800D01*
X121402000Y-89331800D02*
X121352000Y-89282800D01*
X118944000Y-86873800D02*
X118919000Y-86849800D01*
X121619000Y-89114800D02*
X121595000Y-89089800D01*
X119186000Y-86681800D02*
X119136000Y-86631800D01*
X118209000Y-80181800D02*
X115969000Y-80181800D01*
X115969000Y-80181800D02*
X115969000Y-82181800D01*
X118488611Y-83012614D02*
G75*
G02*
X118630000Y-82285800I1780389J30814D01*
G01*
X119573484Y-81342595D02*
G75*
G02*
X120965000Y-81342800I695516J-1639205D01*
G01*
X121908205Y-82286284D02*
G75*
G02*
X121908000Y-83677800I-1639205J-695516D01*
G01*
X120964516Y-84621005D02*
G75*
G02*
X119573000Y-84620800I-695516J1639205D01*
G01*
X118630501Y-83677301D02*
G75*
G02*
X118489000Y-82981800I1638499J695501D01*
G01*
X134720000Y-71018400D02*
G75*
G03*
X134720000Y-71018400I-1370000J0D01*
G01*
X131980000Y-71018400D02*
X131910000Y-71018400D01*
X121009400Y-77119800D02*
G75*
G03*
X121009400Y-77119800I-2620000J0D01*
G01*
X120969400Y-77119800D02*
X115809400Y-77119800D01*
X120969400Y-77159800D02*
X115809400Y-77159800D01*
X120968400Y-77199800D02*
X115810400Y-77199800D01*
X120967400Y-77239800D02*
X115811400Y-77239800D01*
X120965400Y-77279800D02*
X115813400Y-77279800D01*
X120962400Y-77319800D02*
X115816400Y-77319800D01*
X120958400Y-77359800D02*
X119429400Y-77359800D01*
X117349400Y-77359800D02*
X115820400Y-77359800D01*
X120954400Y-77399800D02*
X119429400Y-77399800D01*
X117349400Y-77399800D02*
X115824400Y-77399800D01*
X120950400Y-77439800D02*
X119429400Y-77439800D01*
X117349400Y-77439800D02*
X115828400Y-77439800D01*
X120945400Y-77479800D02*
X119429400Y-77479800D01*
X117349400Y-77479800D02*
X115833400Y-77479800D01*
X120939400Y-77519800D02*
X119429400Y-77519800D01*
X117349400Y-77519800D02*
X115839400Y-77519800D01*
X120932400Y-77559800D02*
X119429400Y-77559800D01*
X117349400Y-77559800D02*
X115846400Y-77559800D01*
X120925400Y-77599800D02*
X119429400Y-77599800D01*
X117349400Y-77599800D02*
X115853400Y-77599800D01*
X120917400Y-77639800D02*
X119429400Y-77639800D01*
X117349400Y-77639800D02*
X115861400Y-77639800D01*
X120909400Y-77679800D02*
X119429400Y-77679800D01*
X117349400Y-77679800D02*
X115869400Y-77679800D01*
X120900400Y-77719800D02*
X119429400Y-77719800D01*
X117349400Y-77719800D02*
X115878400Y-77719800D01*
X120890400Y-77759800D02*
X119429400Y-77759800D01*
X117349400Y-77759800D02*
X115888400Y-77759800D01*
X120880400Y-77799800D02*
X119429400Y-77799800D01*
X117349400Y-77799800D02*
X115898400Y-77799800D01*
X120869400Y-77840800D02*
X119429400Y-77840800D01*
X117349400Y-77840800D02*
X115909400Y-77840800D01*
X120857400Y-77880800D02*
X119429400Y-77880800D01*
X117349400Y-77880800D02*
X115921400Y-77880800D01*
X120844400Y-77920800D02*
X119429400Y-77920800D01*
X117349400Y-77920800D02*
X115934400Y-77920800D01*
X120831400Y-77960800D02*
X119429400Y-77960800D01*
X117349400Y-77960800D02*
X115947400Y-77960800D01*
X120817400Y-78000800D02*
X119429400Y-78000800D01*
X117349400Y-78000800D02*
X115961400Y-78000800D01*
X120803400Y-78040800D02*
X119429400Y-78040800D01*
X117349400Y-78040800D02*
X115975400Y-78040800D01*
X120787400Y-78080800D02*
X119429400Y-78080800D01*
X117349400Y-78080800D02*
X115991400Y-78080800D01*
X120771400Y-78120800D02*
X119429400Y-78120800D01*
X117349400Y-78120800D02*
X116007400Y-78120800D01*
X120754400Y-78160800D02*
X119429400Y-78160800D01*
X117349400Y-78160800D02*
X116024400Y-78160800D01*
X120737400Y-78200800D02*
X119429400Y-78200800D01*
X117349400Y-78200800D02*
X116041400Y-78200800D01*
X120718400Y-78240800D02*
X119429400Y-78240800D01*
X117349400Y-78240800D02*
X116060400Y-78240800D01*
X120699400Y-78280800D02*
X119429400Y-78280800D01*
X117349400Y-78280800D02*
X116079400Y-78280800D01*
X120679400Y-78320800D02*
X119429400Y-78320800D01*
X117349400Y-78320800D02*
X116099400Y-78320800D01*
X120657400Y-78360800D02*
X119429400Y-78360800D01*
X117349400Y-78360800D02*
X116121400Y-78360800D01*
X120636400Y-78400800D02*
X119429400Y-78400800D01*
X117349400Y-78400800D02*
X116142400Y-78400800D01*
X120613400Y-78440800D02*
X119429400Y-78440800D01*
X117349400Y-78440800D02*
X116165400Y-78440800D01*
X120589400Y-78480800D02*
X119429400Y-78480800D01*
X117349400Y-78480800D02*
X116189400Y-78480800D01*
X120564400Y-78520800D02*
X119429400Y-78520800D01*
X117349400Y-78520800D02*
X116214400Y-78520800D01*
X120538400Y-78560800D02*
X119429400Y-78560800D01*
X117349400Y-78560800D02*
X116240400Y-78560800D01*
X120511400Y-78600800D02*
X119429400Y-78600800D01*
X117349400Y-78600800D02*
X116267400Y-78600800D01*
X120484400Y-78640800D02*
X119429400Y-78640800D01*
X117349400Y-78640800D02*
X116294400Y-78640800D01*
X120454400Y-78680800D02*
X119429400Y-78680800D01*
X117349400Y-78680800D02*
X116324400Y-78680800D01*
X120424400Y-78720800D02*
X119429400Y-78720800D01*
X117349400Y-78720800D02*
X116354400Y-78720800D01*
X120393400Y-78760800D02*
X119429400Y-78760800D01*
X117349400Y-78760800D02*
X116385400Y-78760800D01*
X120360400Y-78800800D02*
X119429400Y-78800800D01*
X117349400Y-78800800D02*
X116418400Y-78800800D01*
X120326400Y-78840800D02*
X119429400Y-78840800D01*
X117349400Y-78840800D02*
X116452400Y-78840800D01*
X120290400Y-78880800D02*
X119429400Y-78880800D01*
X117349400Y-78880800D02*
X116488400Y-78880800D01*
X120253400Y-78920800D02*
X119429400Y-78920800D01*
X117349400Y-78920800D02*
X116525400Y-78920800D01*
X120215400Y-78960800D02*
X119429400Y-78960800D01*
X117349400Y-78960800D02*
X116563400Y-78960800D01*
X120174400Y-79000800D02*
X119429400Y-79000800D01*
X117349400Y-79000800D02*
X116604400Y-79000800D01*
X120132400Y-79040800D02*
X119429400Y-79040800D01*
X117349400Y-79040800D02*
X116646400Y-79040800D01*
X120088400Y-79080800D02*
X119429400Y-79080800D01*
X117349400Y-79080800D02*
X116690400Y-79080800D01*
X120042400Y-79120800D02*
X119429400Y-79120800D01*
X117349400Y-79120800D02*
X116736400Y-79120800D01*
X119994400Y-79160800D02*
X119429400Y-79160800D01*
X117349400Y-79160800D02*
X116784400Y-79160800D01*
X119943400Y-79200800D02*
X119429400Y-79200800D01*
X117349400Y-79200800D02*
X116835400Y-79200800D01*
X119889400Y-79240800D02*
X119429400Y-79240800D01*
X117349400Y-79240800D02*
X116889400Y-79240800D01*
X119832400Y-79280800D02*
X119429400Y-79280800D01*
X117349400Y-79280800D02*
X116946400Y-79280800D01*
X119772400Y-79320800D02*
X119429400Y-79320800D01*
X117349400Y-79320800D02*
X117006400Y-79320800D01*
X119708400Y-79360800D02*
X119429400Y-79360800D01*
X117349400Y-79360800D02*
X117070400Y-79360800D01*
X119640400Y-79400800D02*
X119429400Y-79400800D01*
X117349400Y-79400800D02*
X117138400Y-79400800D01*
X119567400Y-79440800D02*
X117211400Y-79440800D01*
X119487400Y-79480800D02*
X117291400Y-79480800D01*
X119400400Y-79520800D02*
X117378400Y-79520800D01*
X119304400Y-79560800D02*
X117474400Y-79560800D01*
X119194400Y-79600800D02*
X117584400Y-79600800D01*
X119066400Y-79640800D02*
X117712400Y-79640800D01*
X118907400Y-79680800D02*
X117871400Y-79680800D01*
X118673400Y-79720800D02*
X118105400Y-79720800D01*
X119864400Y-74315025D02*
X119864400Y-74815025D01*
X120114400Y-74565025D02*
X119614400Y-74565025D01*
X128857700Y-84693000D02*
X128857700Y-86343000D01*
X128857700Y-86343000D02*
X139137700Y-86343000D01*
X139137700Y-86343000D02*
X139137700Y-81043000D01*
X139137700Y-81043000D02*
X128857700Y-81043000D01*
X128857700Y-81043000D02*
X128857700Y-82693000D01*
X128857700Y-82693000D02*
G75*
G02*
X128857700Y-84693000I0J-1000000D01*
G01*
X142960600Y-76543800D02*
X147460600Y-76543800D01*
X141710600Y-72543800D02*
X141710600Y-74043800D01*
X147460600Y-70043800D02*
X142960600Y-70043800D01*
X148710600Y-74043800D02*
X148710600Y-72543800D01*
X150645800Y-93345000D02*
G75*
G03*
X150645800Y-93345000I-1370000J0D01*
G01*
X149275800Y-91975000D02*
X149275800Y-91905000D01*
X155167000Y-75387200D02*
G75*
G03*
X155167000Y-75387200I-1370000J0D01*
G01*
X152427000Y-75387200D02*
X152357000Y-75387200D01*
X141619400Y-88496200D02*
X141619400Y-85896200D01*
X156319400Y-88496200D02*
X141619400Y-88496200D01*
X141619400Y-79296200D02*
X143519400Y-79296200D01*
X141619400Y-81996200D02*
X141619400Y-79296200D01*
X156319400Y-79296200D02*
X156319400Y-88496200D01*
X147519400Y-79296200D02*
X156319400Y-79296200D01*
X142469400Y-88696200D02*
X141419400Y-88696200D01*
X141419400Y-87646200D02*
X141419400Y-88696200D01*
D13*
X137836613Y-72837300D02*
X137503280Y-72361110D01*
X137265184Y-72837300D02*
X137265184Y-71837300D01*
X137646137Y-71837300D01*
X137741375Y-71884920D01*
X137788994Y-71932539D01*
X137836613Y-72027777D01*
X137836613Y-72170634D01*
X137788994Y-72265872D01*
X137741375Y-72313491D01*
X137646137Y-72361110D01*
X137265184Y-72361110D01*
X138693756Y-72170634D02*
X138693756Y-72837300D01*
X138455660Y-71789681D02*
X138217565Y-72503967D01*
X138836613Y-72503967D01*
X134748281Y-75853539D02*
X134653043Y-75805920D01*
X134557805Y-75710681D01*
X134414948Y-75567824D01*
X134319710Y-75520205D01*
X134224472Y-75520205D01*
X134272091Y-75758300D02*
X134176853Y-75710681D01*
X134081615Y-75615443D01*
X134033996Y-75424967D01*
X134033996Y-75091634D01*
X134081615Y-74901158D01*
X134176853Y-74805920D01*
X134272091Y-74758300D01*
X134462567Y-74758300D01*
X134557805Y-74805920D01*
X134653043Y-74901158D01*
X134700662Y-75091634D01*
X134700662Y-75424967D01*
X134653043Y-75615443D01*
X134557805Y-75710681D01*
X134462567Y-75758300D01*
X134272091Y-75758300D01*
X135653043Y-75758300D02*
X135081615Y-75758300D01*
X135367329Y-75758300D02*
X135367329Y-74758300D01*
X135272091Y-74901158D01*
X135176853Y-74996396D01*
X135081615Y-75044015D01*
X124282295Y-73569580D02*
X124282295Y-74379104D01*
X124329914Y-74474342D01*
X124377533Y-74521961D01*
X124472771Y-74569580D01*
X124663247Y-74569580D01*
X124758485Y-74521961D01*
X124806104Y-74474342D01*
X124853723Y-74379104D01*
X124853723Y-73569580D01*
X125853723Y-74569580D02*
X125282295Y-74569580D01*
X125568009Y-74569580D02*
X125568009Y-73569580D01*
X125472771Y-73712438D01*
X125377533Y-73807676D01*
X125282295Y-73855295D01*
X144577060Y-92554015D02*
X143577060Y-92554015D01*
X143577060Y-92315920D01*
X143624680Y-92173062D01*
X143719918Y-92077824D01*
X143815156Y-92030205D01*
X144005632Y-91982586D01*
X144148489Y-91982586D01*
X144338965Y-92030205D01*
X144434203Y-92077824D01*
X144529441Y-92173062D01*
X144577060Y-92315920D01*
X144577060Y-92554015D01*
X143577060Y-91649253D02*
X143577060Y-91030205D01*
X143958013Y-91363539D01*
X143958013Y-91220681D01*
X144005632Y-91125443D01*
X144053251Y-91077824D01*
X144148489Y-91030205D01*
X144386584Y-91030205D01*
X144481822Y-91077824D01*
X144529441Y-91125443D01*
X144577060Y-91220681D01*
X144577060Y-91506396D01*
X144529441Y-91601634D01*
X144481822Y-91649253D01*
X137785100Y-92554015D02*
X136785100Y-92554015D01*
X136785100Y-92315920D01*
X136832720Y-92173062D01*
X136927958Y-92077824D01*
X137023196Y-92030205D01*
X137213672Y-91982586D01*
X137356529Y-91982586D01*
X137547005Y-92030205D01*
X137642243Y-92077824D01*
X137737481Y-92173062D01*
X137785100Y-92315920D01*
X137785100Y-92554015D01*
X136880339Y-91601634D02*
X136832720Y-91554015D01*
X136785100Y-91458777D01*
X136785100Y-91220681D01*
X136832720Y-91125443D01*
X136880339Y-91077824D01*
X136975577Y-91030205D01*
X137070815Y-91030205D01*
X137213672Y-91077824D01*
X137785100Y-91649253D01*
X137785100Y-91030205D01*
X130947420Y-92604815D02*
X129947420Y-92604815D01*
X129947420Y-92366720D01*
X129995040Y-92223862D01*
X130090278Y-92128624D01*
X130185516Y-92081005D01*
X130375992Y-92033386D01*
X130518849Y-92033386D01*
X130709325Y-92081005D01*
X130804563Y-92128624D01*
X130899801Y-92223862D01*
X130947420Y-92366720D01*
X130947420Y-92604815D01*
X130947420Y-91081005D02*
X130947420Y-91652434D01*
X130947420Y-91366720D02*
X129947420Y-91366720D01*
X130090278Y-91461958D01*
X130185516Y-91557196D01*
X130233135Y-91652434D01*
X132050493Y-72809360D02*
X131717160Y-72333170D01*
X131479064Y-72809360D02*
X131479064Y-71809360D01*
X131860017Y-71809360D01*
X131955255Y-71856980D01*
X132002874Y-71904599D01*
X132050493Y-71999837D01*
X132050493Y-72142694D01*
X132002874Y-72237932D01*
X131955255Y-72285551D01*
X131860017Y-72333170D01*
X131479064Y-72333170D01*
X133002874Y-72809360D02*
X132431445Y-72809360D01*
X132717160Y-72809360D02*
X132717160Y-71809360D01*
X132621921Y-71952218D01*
X132526683Y-72047456D01*
X132431445Y-72095075D01*
X118146533Y-76232022D02*
X118098914Y-76279641D01*
X117956057Y-76327260D01*
X117860819Y-76327260D01*
X117717961Y-76279641D01*
X117622723Y-76184403D01*
X117575104Y-76089165D01*
X117527485Y-75898689D01*
X117527485Y-75755832D01*
X117575104Y-75565356D01*
X117622723Y-75470118D01*
X117717961Y-75374880D01*
X117860819Y-75327260D01*
X117956057Y-75327260D01*
X118098914Y-75374880D01*
X118146533Y-75422499D01*
X119098914Y-76327260D02*
X118527485Y-76327260D01*
X118813200Y-76327260D02*
X118813200Y-75327260D01*
X118717961Y-75470118D01*
X118622723Y-75565356D01*
X118527485Y-75612975D01*
X133959695Y-83526380D02*
X133959695Y-84335904D01*
X134007314Y-84431142D01*
X134054933Y-84478761D01*
X134150171Y-84526380D01*
X134340647Y-84526380D01*
X134435885Y-84478761D01*
X134483504Y-84431142D01*
X134531123Y-84335904D01*
X134531123Y-83526380D01*
X134959695Y-83621619D02*
X135007314Y-83574000D01*
X135102552Y-83526380D01*
X135340647Y-83526380D01*
X135435885Y-83574000D01*
X135483504Y-83621619D01*
X135531123Y-83716857D01*
X135531123Y-83812095D01*
X135483504Y-83954952D01*
X134912076Y-84526380D01*
X135531123Y-84526380D01*
X144124846Y-73747261D02*
X144267703Y-73794880D01*
X144505799Y-73794880D01*
X144601037Y-73747261D01*
X144648656Y-73699642D01*
X144696275Y-73604404D01*
X144696275Y-73509166D01*
X144648656Y-73413928D01*
X144601037Y-73366309D01*
X144505799Y-73318690D01*
X144315322Y-73271071D01*
X144220084Y-73223452D01*
X144172465Y-73175833D01*
X144124846Y-73080595D01*
X144124846Y-72985357D01*
X144172465Y-72890119D01*
X144220084Y-72842500D01*
X144315322Y-72794880D01*
X144553418Y-72794880D01*
X144696275Y-72842500D01*
X145029608Y-72794880D02*
X145267703Y-73794880D01*
X145458180Y-73080595D01*
X145648656Y-73794880D01*
X145886751Y-72794880D01*
X146791513Y-73794880D02*
X146220084Y-73794880D01*
X146505799Y-73794880D02*
X146505799Y-72794880D01*
X146410560Y-72937738D01*
X146315322Y-73032976D01*
X146220084Y-73080595D01*
X152006560Y-90984366D02*
X151530370Y-91317700D01*
X152006560Y-91555795D02*
X151006560Y-91555795D01*
X151006560Y-91174842D01*
X151054180Y-91079604D01*
X151101799Y-91031985D01*
X151197037Y-90984366D01*
X151339894Y-90984366D01*
X151435132Y-91031985D01*
X151482751Y-91079604D01*
X151530370Y-91174842D01*
X151530370Y-91555795D01*
X151006560Y-90651033D02*
X151006560Y-90031985D01*
X151387513Y-90365319D01*
X151387513Y-90222461D01*
X151435132Y-90127223D01*
X151482751Y-90079604D01*
X151577989Y-90031985D01*
X151816084Y-90031985D01*
X151911322Y-90079604D01*
X151958941Y-90127223D01*
X152006560Y-90222461D01*
X152006560Y-90508176D01*
X151958941Y-90603414D01*
X151911322Y-90651033D01*
X152261273Y-73619620D02*
X151927940Y-73143430D01*
X151689844Y-73619620D02*
X151689844Y-72619620D01*
X152070797Y-72619620D01*
X152166035Y-72667240D01*
X152213654Y-72714859D01*
X152261273Y-72810097D01*
X152261273Y-72952954D01*
X152213654Y-73048192D01*
X152166035Y-73095811D01*
X152070797Y-73143430D01*
X151689844Y-73143430D01*
X152642225Y-72714859D02*
X152689844Y-72667240D01*
X152785082Y-72619620D01*
X153023178Y-72619620D01*
X153118416Y-72667240D01*
X153166035Y-72714859D01*
X153213654Y-72810097D01*
X153213654Y-72905335D01*
X153166035Y-73048192D01*
X152594606Y-73619620D01*
X153213654Y-73619620D01*
%LPC*%
D14*
X139014200Y-71018400D03*
D15*
X136474200Y-71018400D03*
G36*
G01*
X131195400Y-73784600D02*
X131195400Y-73484600D01*
G75*
G02*
X131345400Y-73334600I150000J0D01*
G01*
X132995400Y-73334600D01*
G75*
G02*
X133145400Y-73484600I0J-150000D01*
G01*
X133145400Y-73784600D01*
G75*
G02*
X132995400Y-73934600I-150000J0D01*
G01*
X131345400Y-73934600D01*
G75*
G02*
X131195400Y-73784600I0J150000D01*
G01*
G37*
G36*
G01*
X131195400Y-75054600D02*
X131195400Y-74754600D01*
G75*
G02*
X131345400Y-74604600I150000J0D01*
G01*
X132995400Y-74604600D01*
G75*
G02*
X133145400Y-74754600I0J-150000D01*
G01*
X133145400Y-75054600D01*
G75*
G02*
X132995400Y-75204600I-150000J0D01*
G01*
X131345400Y-75204600D01*
G75*
G02*
X131195400Y-75054600I0J150000D01*
G01*
G37*
G36*
G01*
X131195400Y-76324600D02*
X131195400Y-76024600D01*
G75*
G02*
X131345400Y-75874600I150000J0D01*
G01*
X132995400Y-75874600D01*
G75*
G02*
X133145400Y-76024600I0J-150000D01*
G01*
X133145400Y-76324600D01*
G75*
G02*
X132995400Y-76474600I-150000J0D01*
G01*
X131345400Y-76474600D01*
G75*
G02*
X131195400Y-76324600I0J150000D01*
G01*
G37*
G36*
G01*
X131195400Y-77594600D02*
X131195400Y-77294600D01*
G75*
G02*
X131345400Y-77144600I150000J0D01*
G01*
X132995400Y-77144600D01*
G75*
G02*
X133145400Y-77294600I0J-150000D01*
G01*
X133145400Y-77594600D01*
G75*
G02*
X132995400Y-77744600I-150000J0D01*
G01*
X131345400Y-77744600D01*
G75*
G02*
X131195400Y-77594600I0J150000D01*
G01*
G37*
G36*
G01*
X136145400Y-77594600D02*
X136145400Y-77294600D01*
G75*
G02*
X136295400Y-77144600I150000J0D01*
G01*
X137945400Y-77144600D01*
G75*
G02*
X138095400Y-77294600I0J-150000D01*
G01*
X138095400Y-77594600D01*
G75*
G02*
X137945400Y-77744600I-150000J0D01*
G01*
X136295400Y-77744600D01*
G75*
G02*
X136145400Y-77594600I0J150000D01*
G01*
G37*
G36*
G01*
X136145400Y-76324600D02*
X136145400Y-76024600D01*
G75*
G02*
X136295400Y-75874600I150000J0D01*
G01*
X137945400Y-75874600D01*
G75*
G02*
X138095400Y-76024600I0J-150000D01*
G01*
X138095400Y-76324600D01*
G75*
G02*
X137945400Y-76474600I-150000J0D01*
G01*
X136295400Y-76474600D01*
G75*
G02*
X136145400Y-76324600I0J150000D01*
G01*
G37*
G36*
G01*
X136145400Y-75054600D02*
X136145400Y-74754600D01*
G75*
G02*
X136295400Y-74604600I150000J0D01*
G01*
X137945400Y-74604600D01*
G75*
G02*
X138095400Y-74754600I0J-150000D01*
G01*
X138095400Y-75054600D01*
G75*
G02*
X137945400Y-75204600I-150000J0D01*
G01*
X136295400Y-75204600D01*
G75*
G02*
X136145400Y-75054600I0J150000D01*
G01*
G37*
G36*
G01*
X136145400Y-73784600D02*
X136145400Y-73484600D01*
G75*
G02*
X136295400Y-73334600I150000J0D01*
G01*
X137945400Y-73334600D01*
G75*
G02*
X138095400Y-73484600I0J-150000D01*
G01*
X138095400Y-73784600D01*
G75*
G02*
X137945400Y-73934600I-150000J0D01*
G01*
X136295400Y-73934600D01*
G75*
G02*
X136145400Y-73784600I0J150000D01*
G01*
G37*
D16*
X122871200Y-77140200D03*
X127471200Y-77140200D03*
X125171200Y-77140200D03*
D17*
X125171200Y-70840200D03*
D18*
X144170400Y-90779600D03*
D19*
X144170400Y-93319600D03*
D18*
X137388600Y-90779600D03*
D19*
X137388600Y-93319600D03*
D18*
X130581400Y-90779600D03*
D19*
X130581400Y-93319600D03*
D20*
X120269000Y-87981800D03*
D21*
X120269000Y-82981800D03*
D14*
X130810000Y-71018400D03*
D15*
X133350000Y-71018400D03*
X118389400Y-78369800D03*
D22*
X118389400Y-75869800D03*
D14*
X130187700Y-79883000D03*
X137807700Y-87503000D03*
X132727700Y-79883000D03*
X135267700Y-87503000D03*
X135267700Y-79883000D03*
X132727700Y-87503000D03*
X137807700Y-79883000D03*
D22*
X130187700Y-87503000D03*
D23*
X148460600Y-71043800D03*
X148460600Y-75543800D03*
X141960600Y-71043800D03*
X141960600Y-75543800D03*
D14*
X149275800Y-90805000D03*
D15*
X149275800Y-93345000D03*
D14*
X151257000Y-75387200D03*
D15*
X153797000Y-75387200D03*
D24*
X142519400Y-83896200D03*
G36*
G01*
X150019400Y-82896200D02*
X150019400Y-84896200D01*
G75*
G02*
X149269400Y-85646200I-750000J0D01*
G01*
X147769400Y-85646200D01*
G75*
G02*
X147019400Y-84896200I0J750000D01*
G01*
X147019400Y-82896200D01*
G75*
G02*
X147769400Y-82146200I750000J0D01*
G01*
X149269400Y-82146200D01*
G75*
G02*
X150019400Y-82896200I0J-750000D01*
G01*
G37*
G36*
G01*
X147269400Y-78321200D02*
X147269400Y-80071200D01*
G75*
G02*
X146394400Y-80946200I-875000J0D01*
G01*
X144644400Y-80946200D01*
G75*
G02*
X143769400Y-80071200I0J875000D01*
G01*
X143769400Y-78321200D01*
G75*
G02*
X144644400Y-77446200I875000J0D01*
G01*
X146394400Y-77446200D01*
G75*
G02*
X147269400Y-78321200I0J-875000D01*
G01*
G37*
M02*
