G04 #@! TF.GenerationSoftware,KiCad,Pcbnew,(5.1.12-1-10_14)*
G04 #@! TF.CreationDate,2021-12-20T00:17:04-08:00*
G04 #@! TF.ProjectId,24h-timer-switch,3234682d-7469-46d6-9572-2d7377697463,1*
G04 #@! TF.SameCoordinates,Original*
G04 #@! TF.FileFunction,Legend,Bot*
G04 #@! TF.FilePolarity,Positive*
%FSLAX46Y46*%
G04 Gerber Fmt 4.6, Leading zero omitted, Abs format (unit mm)*
G04 Created by KiCad (PCBNEW (5.1.12-1-10_14)) date 2021-12-20 00:17:04*
%MOMM*%
%LPD*%
G01*
G04 APERTURE LIST*
%ADD10C,0.381000*%
%ADD11C,0.050800*%
%ADD12C,0.100000*%
%ADD13O,1.600000X1.600000*%
%ADD14C,1.600000*%
%ADD15C,1.800000*%
%ADD16R,1.800000X1.800000*%
%ADD17C,2.800000*%
%ADD18R,2.800000X2.800000*%
%ADD19R,1.600000X1.600000*%
%ADD20C,2.000000*%
%ADD21R,3.500000X3.500000*%
G04 APERTURE END LIST*
D10*
X117329857Y-87115468D02*
X117329857Y-88276611D01*
X117910428Y-87696040D02*
X116749285Y-87696040D01*
X117385737Y-82055788D02*
X117385737Y-83216931D01*
D11*
X154319514Y-71736857D02*
X154936371Y-71736857D01*
X155008942Y-71700571D01*
X155045228Y-71664285D01*
X155081514Y-71591714D01*
X155081514Y-71482857D01*
X155045228Y-71410285D01*
X154791228Y-71736857D02*
X154827514Y-71664285D01*
X154827514Y-71519142D01*
X154791228Y-71446571D01*
X154754942Y-71410285D01*
X154682371Y-71374000D01*
X154464657Y-71374000D01*
X154392085Y-71410285D01*
X154355800Y-71446571D01*
X154319514Y-71519142D01*
X154319514Y-71664285D01*
X154355800Y-71736857D01*
X154827514Y-72099714D02*
X154319514Y-72099714D01*
X154065514Y-72099714D02*
X154101800Y-72063428D01*
X154138085Y-72099714D01*
X154101800Y-72136000D01*
X154065514Y-72099714D01*
X154138085Y-72099714D01*
X154319514Y-72353714D02*
X154319514Y-72644000D01*
X154065514Y-72462571D02*
X154718657Y-72462571D01*
X154791228Y-72498857D01*
X154827514Y-72571428D01*
X154827514Y-72644000D01*
X154827514Y-72898000D02*
X154065514Y-72898000D01*
X154827514Y-73224571D02*
X154428371Y-73224571D01*
X154355800Y-73188285D01*
X154319514Y-73115714D01*
X154319514Y-73006857D01*
X154355800Y-72934285D01*
X154392085Y-72898000D01*
X154319514Y-73914000D02*
X154827514Y-73914000D01*
X154319514Y-73587428D02*
X154718657Y-73587428D01*
X154791228Y-73623714D01*
X154827514Y-73696285D01*
X154827514Y-73805142D01*
X154791228Y-73877714D01*
X154754942Y-73914000D01*
X154827514Y-74276857D02*
X154065514Y-74276857D01*
X154355800Y-74276857D02*
X154319514Y-74349428D01*
X154319514Y-74494571D01*
X154355800Y-74567142D01*
X154392085Y-74603428D01*
X154464657Y-74639714D01*
X154682371Y-74639714D01*
X154754942Y-74603428D01*
X154791228Y-74567142D01*
X154827514Y-74494571D01*
X154827514Y-74349428D01*
X154791228Y-74276857D01*
X154754942Y-74966285D02*
X154791228Y-75002571D01*
X154827514Y-74966285D01*
X154791228Y-74930000D01*
X154754942Y-74966285D01*
X154827514Y-74966285D01*
X154791228Y-75655714D02*
X154827514Y-75583142D01*
X154827514Y-75438000D01*
X154791228Y-75365428D01*
X154754942Y-75329142D01*
X154682371Y-75292857D01*
X154464657Y-75292857D01*
X154392085Y-75329142D01*
X154355800Y-75365428D01*
X154319514Y-75438000D01*
X154319514Y-75583142D01*
X154355800Y-75655714D01*
X154827514Y-76091142D02*
X154791228Y-76018571D01*
X154754942Y-75982285D01*
X154682371Y-75946000D01*
X154464657Y-75946000D01*
X154392085Y-75982285D01*
X154355800Y-76018571D01*
X154319514Y-76091142D01*
X154319514Y-76200000D01*
X154355800Y-76272571D01*
X154392085Y-76308857D01*
X154464657Y-76345142D01*
X154682371Y-76345142D01*
X154754942Y-76308857D01*
X154791228Y-76272571D01*
X154827514Y-76200000D01*
X154827514Y-76091142D01*
X154827514Y-76671714D02*
X154319514Y-76671714D01*
X154392085Y-76671714D02*
X154355800Y-76708000D01*
X154319514Y-76780571D01*
X154319514Y-76889428D01*
X154355800Y-76962000D01*
X154428371Y-76998285D01*
X154827514Y-76998285D01*
X154428371Y-76998285D02*
X154355800Y-77034571D01*
X154319514Y-77107142D01*
X154319514Y-77216000D01*
X154355800Y-77288571D01*
X154428371Y-77324857D01*
X154827514Y-77324857D01*
X154029228Y-78232000D02*
X155008942Y-77578857D01*
X154827514Y-78486000D02*
X154319514Y-78486000D01*
X154065514Y-78486000D02*
X154101800Y-78449714D01*
X154138085Y-78486000D01*
X154101800Y-78522285D01*
X154065514Y-78486000D01*
X154138085Y-78486000D01*
X154827514Y-78848857D02*
X154065514Y-78848857D01*
X154537228Y-78921428D02*
X154827514Y-79139142D01*
X154319514Y-79139142D02*
X154609800Y-78848857D01*
X154827514Y-79792285D02*
X154428371Y-79792285D01*
X154355800Y-79756000D01*
X154319514Y-79683428D01*
X154319514Y-79538285D01*
X154355800Y-79465714D01*
X154791228Y-79792285D02*
X154827514Y-79719714D01*
X154827514Y-79538285D01*
X154791228Y-79465714D01*
X154718657Y-79429428D01*
X154646085Y-79429428D01*
X154573514Y-79465714D01*
X154537228Y-79538285D01*
X154537228Y-79719714D01*
X154500942Y-79792285D01*
X154319514Y-80046285D02*
X154319514Y-80336571D01*
X154065514Y-80155142D02*
X154718657Y-80155142D01*
X154791228Y-80191428D01*
X154827514Y-80264000D01*
X154827514Y-80336571D01*
X154827514Y-80590571D02*
X154065514Y-80590571D01*
X154537228Y-80663142D02*
X154827514Y-80880857D01*
X154319514Y-80880857D02*
X154609800Y-80590571D01*
X154827514Y-81316285D02*
X154791228Y-81243714D01*
X154754942Y-81207428D01*
X154682371Y-81171142D01*
X154464657Y-81171142D01*
X154392085Y-81207428D01*
X154355800Y-81243714D01*
X154319514Y-81316285D01*
X154319514Y-81425142D01*
X154355800Y-81497714D01*
X154392085Y-81534000D01*
X154464657Y-81570285D01*
X154682371Y-81570285D01*
X154754942Y-81534000D01*
X154791228Y-81497714D01*
X154827514Y-81425142D01*
X154827514Y-81316285D01*
X154319514Y-81824285D02*
X154827514Y-82005714D01*
X154319514Y-82187142D01*
X154029228Y-83021714D02*
X155008942Y-82368571D01*
X154138085Y-83239428D02*
X154101800Y-83275714D01*
X154065514Y-83348285D01*
X154065514Y-83529714D01*
X154101800Y-83602285D01*
X154138085Y-83638571D01*
X154210657Y-83674857D01*
X154283228Y-83674857D01*
X154392085Y-83638571D01*
X154827514Y-83203142D01*
X154827514Y-83674857D01*
X154319514Y-84328000D02*
X154827514Y-84328000D01*
X154029228Y-84146571D02*
X154573514Y-83965142D01*
X154573514Y-84436857D01*
X154827514Y-84727142D02*
X154065514Y-84727142D01*
X154827514Y-85053714D02*
X154428371Y-85053714D01*
X154355800Y-85017428D01*
X154319514Y-84944857D01*
X154319514Y-84836000D01*
X154355800Y-84763428D01*
X154392085Y-84727142D01*
X154537228Y-85416571D02*
X154537228Y-85997142D01*
X154319514Y-86251142D02*
X154319514Y-86541428D01*
X154065514Y-86360000D02*
X154718657Y-86360000D01*
X154791228Y-86396285D01*
X154827514Y-86468857D01*
X154827514Y-86541428D01*
X154827514Y-86795428D02*
X154319514Y-86795428D01*
X154065514Y-86795428D02*
X154101800Y-86759142D01*
X154138085Y-86795428D01*
X154101800Y-86831714D01*
X154065514Y-86795428D01*
X154138085Y-86795428D01*
X154827514Y-87158285D02*
X154319514Y-87158285D01*
X154392085Y-87158285D02*
X154355800Y-87194571D01*
X154319514Y-87267142D01*
X154319514Y-87376000D01*
X154355800Y-87448571D01*
X154428371Y-87484857D01*
X154827514Y-87484857D01*
X154428371Y-87484857D02*
X154355800Y-87521142D01*
X154319514Y-87593714D01*
X154319514Y-87702571D01*
X154355800Y-87775142D01*
X154428371Y-87811428D01*
X154827514Y-87811428D01*
X154791228Y-88464571D02*
X154827514Y-88392000D01*
X154827514Y-88246857D01*
X154791228Y-88174285D01*
X154718657Y-88138000D01*
X154428371Y-88138000D01*
X154355800Y-88174285D01*
X154319514Y-88246857D01*
X154319514Y-88392000D01*
X154355800Y-88464571D01*
X154428371Y-88500857D01*
X154500942Y-88500857D01*
X154573514Y-88138000D01*
X154827514Y-88827428D02*
X154319514Y-88827428D01*
X154464657Y-88827428D02*
X154392085Y-88863714D01*
X154355800Y-88900000D01*
X154319514Y-88972571D01*
X154319514Y-89045142D01*
X154537228Y-89299142D02*
X154537228Y-89879714D01*
X154791228Y-90206285D02*
X154827514Y-90278857D01*
X154827514Y-90424000D01*
X154791228Y-90496571D01*
X154718657Y-90532857D01*
X154682371Y-90532857D01*
X154609800Y-90496571D01*
X154573514Y-90424000D01*
X154573514Y-90315142D01*
X154537228Y-90242571D01*
X154464657Y-90206285D01*
X154428371Y-90206285D01*
X154355800Y-90242571D01*
X154319514Y-90315142D01*
X154319514Y-90424000D01*
X154355800Y-90496571D01*
X154319514Y-90786857D02*
X154827514Y-90932000D01*
X154464657Y-91077142D01*
X154827514Y-91222285D01*
X154319514Y-91367428D01*
X154827514Y-91657714D02*
X154319514Y-91657714D01*
X154065514Y-91657714D02*
X154101800Y-91621428D01*
X154138085Y-91657714D01*
X154101800Y-91694000D01*
X154065514Y-91657714D01*
X154138085Y-91657714D01*
X154319514Y-91911714D02*
X154319514Y-92202000D01*
X154065514Y-92020571D02*
X154718657Y-92020571D01*
X154791228Y-92056857D01*
X154827514Y-92129428D01*
X154827514Y-92202000D01*
X154791228Y-92782571D02*
X154827514Y-92710000D01*
X154827514Y-92564857D01*
X154791228Y-92492285D01*
X154754942Y-92456000D01*
X154682371Y-92419714D01*
X154464657Y-92419714D01*
X154392085Y-92456000D01*
X154355800Y-92492285D01*
X154319514Y-92564857D01*
X154319514Y-92710000D01*
X154355800Y-92782571D01*
X154827514Y-93109142D02*
X154065514Y-93109142D01*
X154827514Y-93435714D02*
X154428371Y-93435714D01*
X154355800Y-93399428D01*
X154319514Y-93326857D01*
X154319514Y-93218000D01*
X154355800Y-93145428D01*
X154392085Y-93109142D01*
D12*
X152703180Y-78306990D02*
X152654800Y-78355371D01*
X152606419Y-78452133D01*
X152606419Y-78694038D01*
X152654800Y-78790800D01*
X152703180Y-78839180D01*
X152799942Y-78887561D01*
X152896704Y-78887561D01*
X153041847Y-78839180D01*
X153622419Y-78258609D01*
X153622419Y-78887561D01*
X152945085Y-79758419D02*
X153622419Y-79758419D01*
X152558038Y-79516514D02*
X153283752Y-79274609D01*
X153283752Y-79903561D01*
X153622419Y-80290609D02*
X152606419Y-80290609D01*
X153622419Y-80726038D02*
X153090228Y-80726038D01*
X152993466Y-80677657D01*
X152945085Y-80580895D01*
X152945085Y-80435752D01*
X152993466Y-80338990D01*
X153041847Y-80290609D01*
X152945085Y-81838800D02*
X152945085Y-82225847D01*
X152606419Y-81983942D02*
X153477276Y-81983942D01*
X153574038Y-82032323D01*
X153622419Y-82129085D01*
X153622419Y-82225847D01*
X153622419Y-82564514D02*
X152945085Y-82564514D01*
X152606419Y-82564514D02*
X152654800Y-82516133D01*
X152703180Y-82564514D01*
X152654800Y-82612895D01*
X152606419Y-82564514D01*
X152703180Y-82564514D01*
X153622419Y-83048323D02*
X152945085Y-83048323D01*
X153041847Y-83048323D02*
X152993466Y-83096704D01*
X152945085Y-83193466D01*
X152945085Y-83338609D01*
X152993466Y-83435371D01*
X153090228Y-83483752D01*
X153622419Y-83483752D01*
X153090228Y-83483752D02*
X152993466Y-83532133D01*
X152945085Y-83628895D01*
X152945085Y-83774038D01*
X152993466Y-83870800D01*
X153090228Y-83919180D01*
X153622419Y-83919180D01*
X153574038Y-84790038D02*
X153622419Y-84693276D01*
X153622419Y-84499752D01*
X153574038Y-84402990D01*
X153477276Y-84354609D01*
X153090228Y-84354609D01*
X152993466Y-84402990D01*
X152945085Y-84499752D01*
X152945085Y-84693276D01*
X152993466Y-84790038D01*
X153090228Y-84838419D01*
X153186990Y-84838419D01*
X153283752Y-84354609D01*
X153622419Y-85273847D02*
X152945085Y-85273847D01*
X153138609Y-85273847D02*
X153041847Y-85322228D01*
X152993466Y-85370609D01*
X152945085Y-85467371D01*
X152945085Y-85564133D01*
X153574038Y-86628514D02*
X153622419Y-86725276D01*
X153622419Y-86918800D01*
X153574038Y-87015561D01*
X153477276Y-87063942D01*
X153428895Y-87063942D01*
X153332133Y-87015561D01*
X153283752Y-86918800D01*
X153283752Y-86773657D01*
X153235371Y-86676895D01*
X153138609Y-86628514D01*
X153090228Y-86628514D01*
X152993466Y-86676895D01*
X152945085Y-86773657D01*
X152945085Y-86918800D01*
X152993466Y-87015561D01*
X152945085Y-87402609D02*
X153622419Y-87596133D01*
X153138609Y-87789657D01*
X153622419Y-87983180D01*
X152945085Y-88176704D01*
X153622419Y-88563752D02*
X152945085Y-88563752D01*
X152606419Y-88563752D02*
X152654800Y-88515371D01*
X152703180Y-88563752D01*
X152654800Y-88612133D01*
X152606419Y-88563752D01*
X152703180Y-88563752D01*
X152945085Y-88902419D02*
X152945085Y-89289466D01*
X152606419Y-89047561D02*
X153477276Y-89047561D01*
X153574038Y-89095942D01*
X153622419Y-89192704D01*
X153622419Y-89289466D01*
X153574038Y-90063561D02*
X153622419Y-89966800D01*
X153622419Y-89773276D01*
X153574038Y-89676514D01*
X153525657Y-89628133D01*
X153428895Y-89579752D01*
X153138609Y-89579752D01*
X153041847Y-89628133D01*
X152993466Y-89676514D01*
X152945085Y-89773276D01*
X152945085Y-89966800D01*
X152993466Y-90063561D01*
X153622419Y-90498990D02*
X152606419Y-90498990D01*
X153622419Y-90934419D02*
X153090228Y-90934419D01*
X152993466Y-90886038D01*
X152945085Y-90789276D01*
X152945085Y-90644133D01*
X152993466Y-90547371D01*
X153041847Y-90498990D01*
X152945085Y-92095561D02*
X153622419Y-92337466D01*
X152945085Y-92579371D01*
X152606419Y-92869657D02*
X152606419Y-93498609D01*
X152993466Y-93159942D01*
X152993466Y-93305085D01*
X153041847Y-93401847D01*
X153090228Y-93450228D01*
X153186990Y-93498609D01*
X153428895Y-93498609D01*
X153525657Y-93450228D01*
X153574038Y-93401847D01*
X153622419Y-93305085D01*
X153622419Y-93014800D01*
X153574038Y-92918038D01*
X153525657Y-92869657D01*
%LPC*%
D13*
X139014200Y-71018400D03*
D14*
X136474200Y-71018400D03*
D15*
X144170400Y-90779600D03*
D16*
X144170400Y-93319600D03*
D15*
X137388600Y-90779600D03*
D16*
X137388600Y-93319600D03*
D15*
X130581400Y-90779600D03*
D16*
X130581400Y-93319600D03*
D17*
X120269000Y-87981800D03*
D18*
X120269000Y-82981800D03*
D13*
X130810000Y-71018400D03*
D14*
X133350000Y-71018400D03*
X118389400Y-78369800D03*
D19*
X118389400Y-75869800D03*
D13*
X130187700Y-79883000D03*
X137807700Y-87503000D03*
X132727700Y-79883000D03*
X135267700Y-87503000D03*
X135267700Y-79883000D03*
X132727700Y-87503000D03*
X137807700Y-79883000D03*
D19*
X130187700Y-87503000D03*
D20*
X148460600Y-71043800D03*
X148460600Y-75543800D03*
X141960600Y-71043800D03*
X141960600Y-75543800D03*
D13*
X149275800Y-90805000D03*
D14*
X149275800Y-93345000D03*
D13*
X151257000Y-75387200D03*
D14*
X153797000Y-75387200D03*
D21*
X142519400Y-83896200D03*
G36*
G01*
X150019400Y-82896200D02*
X150019400Y-84896200D01*
G75*
G02*
X149269400Y-85646200I-750000J0D01*
G01*
X147769400Y-85646200D01*
G75*
G02*
X147019400Y-84896200I0J750000D01*
G01*
X147019400Y-82896200D01*
G75*
G02*
X147769400Y-82146200I750000J0D01*
G01*
X149269400Y-82146200D01*
G75*
G02*
X150019400Y-82896200I0J-750000D01*
G01*
G37*
G36*
G01*
X147269400Y-78321200D02*
X147269400Y-80071200D01*
G75*
G02*
X146394400Y-80946200I-875000J0D01*
G01*
X144644400Y-80946200D01*
G75*
G02*
X143769400Y-80071200I0J875000D01*
G01*
X143769400Y-78321200D01*
G75*
G02*
X144644400Y-77446200I875000J0D01*
G01*
X146394400Y-77446200D01*
G75*
G02*
X147269400Y-78321200I0J-875000D01*
G01*
G37*
M02*
