G04 #@! TF.GenerationSoftware,KiCad,Pcbnew,(5.1.12-1-10_14)*
G04 #@! TF.CreationDate,2021-12-20T00:17:04-08:00*
G04 #@! TF.ProjectId,24h-timer-switch,3234682d-7469-46d6-9572-2d7377697463,1*
G04 #@! TF.SameCoordinates,Original*
G04 #@! TF.FileFunction,Paste,Top*
G04 #@! TF.FilePolarity,Positive*
%FSLAX46Y46*%
G04 Gerber Fmt 4.6, Leading zero omitted, Abs format (unit mm)*
G04 Created by KiCad (PCBNEW (5.1.12-1-10_14)) date 2021-12-20 00:17:04*
%MOMM*%
%LPD*%
G01*
G04 APERTURE LIST*
%ADD10R,1.500000X2.000000*%
%ADD11R,3.800000X2.000000*%
G04 APERTURE END LIST*
G36*
G01*
X131195400Y-73784600D02*
X131195400Y-73484600D01*
G75*
G02*
X131345400Y-73334600I150000J0D01*
G01*
X132995400Y-73334600D01*
G75*
G02*
X133145400Y-73484600I0J-150000D01*
G01*
X133145400Y-73784600D01*
G75*
G02*
X132995400Y-73934600I-150000J0D01*
G01*
X131345400Y-73934600D01*
G75*
G02*
X131195400Y-73784600I0J150000D01*
G01*
G37*
G36*
G01*
X131195400Y-75054600D02*
X131195400Y-74754600D01*
G75*
G02*
X131345400Y-74604600I150000J0D01*
G01*
X132995400Y-74604600D01*
G75*
G02*
X133145400Y-74754600I0J-150000D01*
G01*
X133145400Y-75054600D01*
G75*
G02*
X132995400Y-75204600I-150000J0D01*
G01*
X131345400Y-75204600D01*
G75*
G02*
X131195400Y-75054600I0J150000D01*
G01*
G37*
G36*
G01*
X131195400Y-76324600D02*
X131195400Y-76024600D01*
G75*
G02*
X131345400Y-75874600I150000J0D01*
G01*
X132995400Y-75874600D01*
G75*
G02*
X133145400Y-76024600I0J-150000D01*
G01*
X133145400Y-76324600D01*
G75*
G02*
X132995400Y-76474600I-150000J0D01*
G01*
X131345400Y-76474600D01*
G75*
G02*
X131195400Y-76324600I0J150000D01*
G01*
G37*
G36*
G01*
X131195400Y-77594600D02*
X131195400Y-77294600D01*
G75*
G02*
X131345400Y-77144600I150000J0D01*
G01*
X132995400Y-77144600D01*
G75*
G02*
X133145400Y-77294600I0J-150000D01*
G01*
X133145400Y-77594600D01*
G75*
G02*
X132995400Y-77744600I-150000J0D01*
G01*
X131345400Y-77744600D01*
G75*
G02*
X131195400Y-77594600I0J150000D01*
G01*
G37*
G36*
G01*
X136145400Y-77594600D02*
X136145400Y-77294600D01*
G75*
G02*
X136295400Y-77144600I150000J0D01*
G01*
X137945400Y-77144600D01*
G75*
G02*
X138095400Y-77294600I0J-150000D01*
G01*
X138095400Y-77594600D01*
G75*
G02*
X137945400Y-77744600I-150000J0D01*
G01*
X136295400Y-77744600D01*
G75*
G02*
X136145400Y-77594600I0J150000D01*
G01*
G37*
G36*
G01*
X136145400Y-76324600D02*
X136145400Y-76024600D01*
G75*
G02*
X136295400Y-75874600I150000J0D01*
G01*
X137945400Y-75874600D01*
G75*
G02*
X138095400Y-76024600I0J-150000D01*
G01*
X138095400Y-76324600D01*
G75*
G02*
X137945400Y-76474600I-150000J0D01*
G01*
X136295400Y-76474600D01*
G75*
G02*
X136145400Y-76324600I0J150000D01*
G01*
G37*
G36*
G01*
X136145400Y-75054600D02*
X136145400Y-74754600D01*
G75*
G02*
X136295400Y-74604600I150000J0D01*
G01*
X137945400Y-74604600D01*
G75*
G02*
X138095400Y-74754600I0J-150000D01*
G01*
X138095400Y-75054600D01*
G75*
G02*
X137945400Y-75204600I-150000J0D01*
G01*
X136295400Y-75204600D01*
G75*
G02*
X136145400Y-75054600I0J150000D01*
G01*
G37*
G36*
G01*
X136145400Y-73784600D02*
X136145400Y-73484600D01*
G75*
G02*
X136295400Y-73334600I150000J0D01*
G01*
X137945400Y-73334600D01*
G75*
G02*
X138095400Y-73484600I0J-150000D01*
G01*
X138095400Y-73784600D01*
G75*
G02*
X137945400Y-73934600I-150000J0D01*
G01*
X136295400Y-73934600D01*
G75*
G02*
X136145400Y-73784600I0J150000D01*
G01*
G37*
D10*
X122871200Y-77140200D03*
X127471200Y-77140200D03*
X125171200Y-77140200D03*
D11*
X125171200Y-70840200D03*
M02*
