G04 #@! TF.GenerationSoftware,KiCad,Pcbnew,(5.1.12-1-10_14)*
G04 #@! TF.CreationDate,2021-11-28T09:31:38-08:00*
G04 #@! TF.ProjectId,24h-timer-switch,3234682d-7469-46d6-9572-2d7377697463,1*
G04 #@! TF.SameCoordinates,Original*
G04 #@! TF.FileFunction,Soldermask,Bot*
G04 #@! TF.FilePolarity,Negative*
%FSLAX46Y46*%
G04 Gerber Fmt 4.6, Leading zero omitted, Abs format (unit mm)*
G04 Created by KiCad (PCBNEW (5.1.12-1-10_14)) date 2021-11-28 09:31:38*
%MOMM*%
%LPD*%
G01*
G04 APERTURE LIST*
%ADD10C,1.800000*%
%ADD11R,1.800000X1.800000*%
%ADD12C,2.800000*%
%ADD13R,2.800000X2.800000*%
%ADD14C,2.200000*%
%ADD15O,1.600000X1.600000*%
%ADD16C,1.600000*%
%ADD17R,1.600000X1.600000*%
%ADD18C,2.000000*%
%ADD19R,3.500000X3.500000*%
G04 APERTURE END LIST*
D10*
X144195800Y-90576400D03*
D11*
X144195800Y-93116400D03*
D10*
X137337800Y-90576400D03*
D11*
X137337800Y-93116400D03*
D10*
X130606800Y-90576400D03*
D11*
X130606800Y-93116400D03*
D12*
X120294400Y-87778600D03*
D13*
X120294400Y-82778600D03*
D14*
X154711400Y-92710000D03*
X154711400Y-71882000D03*
X118110000Y-71882000D03*
X118110000Y-92710000D03*
D15*
X137401300Y-73685400D03*
D16*
X137401300Y-71145400D03*
X119278400Y-78293600D03*
D17*
X119278400Y-75793600D03*
D15*
X130187700Y-79883000D03*
X137807700Y-87503000D03*
X132727700Y-79883000D03*
X135267700Y-87503000D03*
X135267700Y-79883000D03*
X132727700Y-87503000D03*
X137807700Y-79883000D03*
D17*
X130187700Y-87503000D03*
D18*
X150784700Y-71094600D03*
X150784700Y-75594600D03*
X144284700Y-71094600D03*
X144284700Y-75594600D03*
D15*
X122275600Y-92811600D03*
D16*
X124815600Y-92811600D03*
D15*
X140766800Y-73685400D03*
D16*
X140766800Y-71145400D03*
G36*
G01*
X147269400Y-78321200D02*
X147269400Y-80071200D01*
G75*
G02*
X146394400Y-80946200I-875000J0D01*
G01*
X144644400Y-80946200D01*
G75*
G02*
X143769400Y-80071200I0J875000D01*
G01*
X143769400Y-78321200D01*
G75*
G02*
X144644400Y-77446200I875000J0D01*
G01*
X146394400Y-77446200D01*
G75*
G02*
X147269400Y-78321200I0J-875000D01*
G01*
G37*
G36*
G01*
X150019400Y-82896200D02*
X150019400Y-84896200D01*
G75*
G02*
X149269400Y-85646200I-750000J0D01*
G01*
X147769400Y-85646200D01*
G75*
G02*
X147019400Y-84896200I0J750000D01*
G01*
X147019400Y-82896200D01*
G75*
G02*
X147769400Y-82146200I750000J0D01*
G01*
X149269400Y-82146200D01*
G75*
G02*
X150019400Y-82896200I0J-750000D01*
G01*
G37*
D19*
X142519400Y-83896200D03*
M02*
