G04 #@! TF.GenerationSoftware,KiCad,Pcbnew,(5.1.12-1-10_14)*
G04 #@! TF.CreationDate,2021-12-19T00:22:50-08:00*
G04 #@! TF.ProjectId,24h-timer-switch,3234682d-7469-46d6-9572-2d7377697463,1*
G04 #@! TF.SameCoordinates,Original*
G04 #@! TF.FileFunction,Legend,Bot*
G04 #@! TF.FilePolarity,Positive*
%FSLAX46Y46*%
G04 Gerber Fmt 4.6, Leading zero omitted, Abs format (unit mm)*
G04 Created by KiCad (PCBNEW (5.1.12-1-10_14)) date 2021-12-19 00:22:50*
%MOMM*%
%LPD*%
G01*
G04 APERTURE LIST*
%ADD10C,0.381000*%
%ADD11C,0.050800*%
%ADD12C,0.100000*%
%ADD13C,2.200000*%
%ADD14O,1.600000X1.600000*%
%ADD15C,1.600000*%
%ADD16C,1.800000*%
%ADD17R,1.800000X1.800000*%
%ADD18C,2.800000*%
%ADD19R,2.800000X2.800000*%
%ADD20R,1.600000X1.600000*%
%ADD21C,2.000000*%
%ADD22R,3.500000X3.500000*%
G04 APERTURE END LIST*
D10*
X117329857Y-87115468D02*
X117329857Y-88276611D01*
X117910428Y-87696040D02*
X116749285Y-87696040D01*
X117385737Y-82055788D02*
X117385737Y-83216931D01*
D11*
X151152134Y-72219457D02*
X151768991Y-72219457D01*
X151841562Y-72183171D01*
X151877848Y-72146885D01*
X151914134Y-72074314D01*
X151914134Y-71965457D01*
X151877848Y-71892885D01*
X151623848Y-72219457D02*
X151660134Y-72146885D01*
X151660134Y-72001742D01*
X151623848Y-71929171D01*
X151587562Y-71892885D01*
X151514991Y-71856600D01*
X151297277Y-71856600D01*
X151224705Y-71892885D01*
X151188420Y-71929171D01*
X151152134Y-72001742D01*
X151152134Y-72146885D01*
X151188420Y-72219457D01*
X151660134Y-72582314D02*
X151152134Y-72582314D01*
X150898134Y-72582314D02*
X150934420Y-72546028D01*
X150970705Y-72582314D01*
X150934420Y-72618600D01*
X150898134Y-72582314D01*
X150970705Y-72582314D01*
X151152134Y-72836314D02*
X151152134Y-73126600D01*
X150898134Y-72945171D02*
X151551277Y-72945171D01*
X151623848Y-72981457D01*
X151660134Y-73054028D01*
X151660134Y-73126600D01*
X151660134Y-73380600D02*
X150898134Y-73380600D01*
X151660134Y-73707171D02*
X151260991Y-73707171D01*
X151188420Y-73670885D01*
X151152134Y-73598314D01*
X151152134Y-73489457D01*
X151188420Y-73416885D01*
X151224705Y-73380600D01*
X151152134Y-74396600D02*
X151660134Y-74396600D01*
X151152134Y-74070028D02*
X151551277Y-74070028D01*
X151623848Y-74106314D01*
X151660134Y-74178885D01*
X151660134Y-74287742D01*
X151623848Y-74360314D01*
X151587562Y-74396600D01*
X151660134Y-74759457D02*
X150898134Y-74759457D01*
X151188420Y-74759457D02*
X151152134Y-74832028D01*
X151152134Y-74977171D01*
X151188420Y-75049742D01*
X151224705Y-75086028D01*
X151297277Y-75122314D01*
X151514991Y-75122314D01*
X151587562Y-75086028D01*
X151623848Y-75049742D01*
X151660134Y-74977171D01*
X151660134Y-74832028D01*
X151623848Y-74759457D01*
X151587562Y-75448885D02*
X151623848Y-75485171D01*
X151660134Y-75448885D01*
X151623848Y-75412600D01*
X151587562Y-75448885D01*
X151660134Y-75448885D01*
X151623848Y-76138314D02*
X151660134Y-76065742D01*
X151660134Y-75920600D01*
X151623848Y-75848028D01*
X151587562Y-75811742D01*
X151514991Y-75775457D01*
X151297277Y-75775457D01*
X151224705Y-75811742D01*
X151188420Y-75848028D01*
X151152134Y-75920600D01*
X151152134Y-76065742D01*
X151188420Y-76138314D01*
X151660134Y-76573742D02*
X151623848Y-76501171D01*
X151587562Y-76464885D01*
X151514991Y-76428600D01*
X151297277Y-76428600D01*
X151224705Y-76464885D01*
X151188420Y-76501171D01*
X151152134Y-76573742D01*
X151152134Y-76682600D01*
X151188420Y-76755171D01*
X151224705Y-76791457D01*
X151297277Y-76827742D01*
X151514991Y-76827742D01*
X151587562Y-76791457D01*
X151623848Y-76755171D01*
X151660134Y-76682600D01*
X151660134Y-76573742D01*
X151660134Y-77154314D02*
X151152134Y-77154314D01*
X151224705Y-77154314D02*
X151188420Y-77190600D01*
X151152134Y-77263171D01*
X151152134Y-77372028D01*
X151188420Y-77444600D01*
X151260991Y-77480885D01*
X151660134Y-77480885D01*
X151260991Y-77480885D02*
X151188420Y-77517171D01*
X151152134Y-77589742D01*
X151152134Y-77698600D01*
X151188420Y-77771171D01*
X151260991Y-77807457D01*
X151660134Y-77807457D01*
X150861848Y-78714600D02*
X151841562Y-78061457D01*
X151660134Y-78968600D02*
X151152134Y-78968600D01*
X150898134Y-78968600D02*
X150934420Y-78932314D01*
X150970705Y-78968600D01*
X150934420Y-79004885D01*
X150898134Y-78968600D01*
X150970705Y-78968600D01*
X151660134Y-79331457D02*
X150898134Y-79331457D01*
X151369848Y-79404028D02*
X151660134Y-79621742D01*
X151152134Y-79621742D02*
X151442420Y-79331457D01*
X151660134Y-80274885D02*
X151260991Y-80274885D01*
X151188420Y-80238600D01*
X151152134Y-80166028D01*
X151152134Y-80020885D01*
X151188420Y-79948314D01*
X151623848Y-80274885D02*
X151660134Y-80202314D01*
X151660134Y-80020885D01*
X151623848Y-79948314D01*
X151551277Y-79912028D01*
X151478705Y-79912028D01*
X151406134Y-79948314D01*
X151369848Y-80020885D01*
X151369848Y-80202314D01*
X151333562Y-80274885D01*
X151152134Y-80528885D02*
X151152134Y-80819171D01*
X150898134Y-80637742D02*
X151551277Y-80637742D01*
X151623848Y-80674028D01*
X151660134Y-80746600D01*
X151660134Y-80819171D01*
X151660134Y-81073171D02*
X150898134Y-81073171D01*
X151369848Y-81145742D02*
X151660134Y-81363457D01*
X151152134Y-81363457D02*
X151442420Y-81073171D01*
X151660134Y-81798885D02*
X151623848Y-81726314D01*
X151587562Y-81690028D01*
X151514991Y-81653742D01*
X151297277Y-81653742D01*
X151224705Y-81690028D01*
X151188420Y-81726314D01*
X151152134Y-81798885D01*
X151152134Y-81907742D01*
X151188420Y-81980314D01*
X151224705Y-82016600D01*
X151297277Y-82052885D01*
X151514991Y-82052885D01*
X151587562Y-82016600D01*
X151623848Y-81980314D01*
X151660134Y-81907742D01*
X151660134Y-81798885D01*
X151152134Y-82306885D02*
X151660134Y-82488314D01*
X151152134Y-82669742D01*
X150861848Y-83504314D02*
X151841562Y-82851171D01*
X150970705Y-83722028D02*
X150934420Y-83758314D01*
X150898134Y-83830885D01*
X150898134Y-84012314D01*
X150934420Y-84084885D01*
X150970705Y-84121171D01*
X151043277Y-84157457D01*
X151115848Y-84157457D01*
X151224705Y-84121171D01*
X151660134Y-83685742D01*
X151660134Y-84157457D01*
X151152134Y-84810600D02*
X151660134Y-84810600D01*
X150861848Y-84629171D02*
X151406134Y-84447742D01*
X151406134Y-84919457D01*
X151660134Y-85209742D02*
X150898134Y-85209742D01*
X151660134Y-85536314D02*
X151260991Y-85536314D01*
X151188420Y-85500028D01*
X151152134Y-85427457D01*
X151152134Y-85318600D01*
X151188420Y-85246028D01*
X151224705Y-85209742D01*
X151369848Y-85899171D02*
X151369848Y-86479742D01*
X151152134Y-86733742D02*
X151152134Y-87024028D01*
X150898134Y-86842600D02*
X151551277Y-86842600D01*
X151623848Y-86878885D01*
X151660134Y-86951457D01*
X151660134Y-87024028D01*
X151660134Y-87278028D02*
X151152134Y-87278028D01*
X150898134Y-87278028D02*
X150934420Y-87241742D01*
X150970705Y-87278028D01*
X150934420Y-87314314D01*
X150898134Y-87278028D01*
X150970705Y-87278028D01*
X151660134Y-87640885D02*
X151152134Y-87640885D01*
X151224705Y-87640885D02*
X151188420Y-87677171D01*
X151152134Y-87749742D01*
X151152134Y-87858600D01*
X151188420Y-87931171D01*
X151260991Y-87967457D01*
X151660134Y-87967457D01*
X151260991Y-87967457D02*
X151188420Y-88003742D01*
X151152134Y-88076314D01*
X151152134Y-88185171D01*
X151188420Y-88257742D01*
X151260991Y-88294028D01*
X151660134Y-88294028D01*
X151623848Y-88947171D02*
X151660134Y-88874600D01*
X151660134Y-88729457D01*
X151623848Y-88656885D01*
X151551277Y-88620600D01*
X151260991Y-88620600D01*
X151188420Y-88656885D01*
X151152134Y-88729457D01*
X151152134Y-88874600D01*
X151188420Y-88947171D01*
X151260991Y-88983457D01*
X151333562Y-88983457D01*
X151406134Y-88620600D01*
X151660134Y-89310028D02*
X151152134Y-89310028D01*
X151297277Y-89310028D02*
X151224705Y-89346314D01*
X151188420Y-89382600D01*
X151152134Y-89455171D01*
X151152134Y-89527742D01*
X151369848Y-89781742D02*
X151369848Y-90362314D01*
X151623848Y-90688885D02*
X151660134Y-90761457D01*
X151660134Y-90906600D01*
X151623848Y-90979171D01*
X151551277Y-91015457D01*
X151514991Y-91015457D01*
X151442420Y-90979171D01*
X151406134Y-90906600D01*
X151406134Y-90797742D01*
X151369848Y-90725171D01*
X151297277Y-90688885D01*
X151260991Y-90688885D01*
X151188420Y-90725171D01*
X151152134Y-90797742D01*
X151152134Y-90906600D01*
X151188420Y-90979171D01*
X151152134Y-91269457D02*
X151660134Y-91414600D01*
X151297277Y-91559742D01*
X151660134Y-91704885D01*
X151152134Y-91850028D01*
X151660134Y-92140314D02*
X151152134Y-92140314D01*
X150898134Y-92140314D02*
X150934420Y-92104028D01*
X150970705Y-92140314D01*
X150934420Y-92176600D01*
X150898134Y-92140314D01*
X150970705Y-92140314D01*
X151152134Y-92394314D02*
X151152134Y-92684600D01*
X150898134Y-92503171D02*
X151551277Y-92503171D01*
X151623848Y-92539457D01*
X151660134Y-92612028D01*
X151660134Y-92684600D01*
X151623848Y-93265171D02*
X151660134Y-93192600D01*
X151660134Y-93047457D01*
X151623848Y-92974885D01*
X151587562Y-92938600D01*
X151514991Y-92902314D01*
X151297277Y-92902314D01*
X151224705Y-92938600D01*
X151188420Y-92974885D01*
X151152134Y-93047457D01*
X151152134Y-93192600D01*
X151188420Y-93265171D01*
X151660134Y-93591742D02*
X150898134Y-93591742D01*
X151660134Y-93918314D02*
X151260991Y-93918314D01*
X151188420Y-93882028D01*
X151152134Y-93809457D01*
X151152134Y-93700600D01*
X151188420Y-93628028D01*
X151224705Y-93591742D01*
D12*
X153317860Y-74702730D02*
X153269480Y-74751111D01*
X153221099Y-74847873D01*
X153221099Y-75089778D01*
X153269480Y-75186540D01*
X153317860Y-75234920D01*
X153414622Y-75283301D01*
X153511384Y-75283301D01*
X153656527Y-75234920D01*
X154237099Y-74654349D01*
X154237099Y-75283301D01*
X153559765Y-76154159D02*
X154237099Y-76154159D01*
X153172718Y-75912254D02*
X153898432Y-75670349D01*
X153898432Y-76299301D01*
X154237099Y-76686349D02*
X153221099Y-76686349D01*
X154237099Y-77121778D02*
X153704908Y-77121778D01*
X153608146Y-77073397D01*
X153559765Y-76976635D01*
X153559765Y-76831492D01*
X153608146Y-76734730D01*
X153656527Y-76686349D01*
X153559765Y-78234540D02*
X153559765Y-78621587D01*
X153221099Y-78379682D02*
X154091956Y-78379682D01*
X154188718Y-78428063D01*
X154237099Y-78524825D01*
X154237099Y-78621587D01*
X154237099Y-78960254D02*
X153559765Y-78960254D01*
X153221099Y-78960254D02*
X153269480Y-78911873D01*
X153317860Y-78960254D01*
X153269480Y-79008635D01*
X153221099Y-78960254D01*
X153317860Y-78960254D01*
X154237099Y-79444063D02*
X153559765Y-79444063D01*
X153656527Y-79444063D02*
X153608146Y-79492444D01*
X153559765Y-79589206D01*
X153559765Y-79734349D01*
X153608146Y-79831111D01*
X153704908Y-79879492D01*
X154237099Y-79879492D01*
X153704908Y-79879492D02*
X153608146Y-79927873D01*
X153559765Y-80024635D01*
X153559765Y-80169778D01*
X153608146Y-80266540D01*
X153704908Y-80314920D01*
X154237099Y-80314920D01*
X154188718Y-81185778D02*
X154237099Y-81089016D01*
X154237099Y-80895492D01*
X154188718Y-80798730D01*
X154091956Y-80750349D01*
X153704908Y-80750349D01*
X153608146Y-80798730D01*
X153559765Y-80895492D01*
X153559765Y-81089016D01*
X153608146Y-81185778D01*
X153704908Y-81234159D01*
X153801670Y-81234159D01*
X153898432Y-80750349D01*
X154237099Y-81669587D02*
X153559765Y-81669587D01*
X153753289Y-81669587D02*
X153656527Y-81717968D01*
X153608146Y-81766349D01*
X153559765Y-81863111D01*
X153559765Y-81959873D01*
X154188718Y-83024254D02*
X154237099Y-83121016D01*
X154237099Y-83314540D01*
X154188718Y-83411301D01*
X154091956Y-83459682D01*
X154043575Y-83459682D01*
X153946813Y-83411301D01*
X153898432Y-83314540D01*
X153898432Y-83169397D01*
X153850051Y-83072635D01*
X153753289Y-83024254D01*
X153704908Y-83024254D01*
X153608146Y-83072635D01*
X153559765Y-83169397D01*
X153559765Y-83314540D01*
X153608146Y-83411301D01*
X153559765Y-83798349D02*
X154237099Y-83991873D01*
X153753289Y-84185397D01*
X154237099Y-84378920D01*
X153559765Y-84572444D01*
X154237099Y-84959492D02*
X153559765Y-84959492D01*
X153221099Y-84959492D02*
X153269480Y-84911111D01*
X153317860Y-84959492D01*
X153269480Y-85007873D01*
X153221099Y-84959492D01*
X153317860Y-84959492D01*
X153559765Y-85298159D02*
X153559765Y-85685206D01*
X153221099Y-85443301D02*
X154091956Y-85443301D01*
X154188718Y-85491682D01*
X154237099Y-85588444D01*
X154237099Y-85685206D01*
X154188718Y-86459301D02*
X154237099Y-86362540D01*
X154237099Y-86169016D01*
X154188718Y-86072254D01*
X154140337Y-86023873D01*
X154043575Y-85975492D01*
X153753289Y-85975492D01*
X153656527Y-86023873D01*
X153608146Y-86072254D01*
X153559765Y-86169016D01*
X153559765Y-86362540D01*
X153608146Y-86459301D01*
X154237099Y-86894730D02*
X153221099Y-86894730D01*
X154237099Y-87330159D02*
X153704908Y-87330159D01*
X153608146Y-87281778D01*
X153559765Y-87185016D01*
X153559765Y-87039873D01*
X153608146Y-86943111D01*
X153656527Y-86894730D01*
X153559765Y-88491301D02*
X154237099Y-88733206D01*
X153559765Y-88975111D01*
X153221099Y-89265397D02*
X153221099Y-89894349D01*
X153608146Y-89555682D01*
X153608146Y-89700825D01*
X153656527Y-89797587D01*
X153704908Y-89845968D01*
X153801670Y-89894349D01*
X154043575Y-89894349D01*
X154140337Y-89845968D01*
X154188718Y-89797587D01*
X154237099Y-89700825D01*
X154237099Y-89410540D01*
X154188718Y-89313778D01*
X154140337Y-89265397D01*
%LPC*%
D13*
X153720800Y-71831200D03*
X118059200Y-71831200D03*
X118059200Y-93700600D03*
X153720800Y-93700600D03*
D14*
X139014200Y-71018400D03*
D15*
X136474200Y-71018400D03*
D16*
X144170400Y-90779600D03*
D17*
X144170400Y-93319600D03*
D16*
X137388600Y-90779600D03*
D17*
X137388600Y-93319600D03*
D16*
X130581400Y-90779600D03*
D17*
X130581400Y-93319600D03*
D18*
X120269000Y-87981800D03*
D19*
X120269000Y-82981800D03*
D14*
X130810000Y-71018400D03*
D15*
X133350000Y-71018400D03*
X118389400Y-78369800D03*
D20*
X118389400Y-75869800D03*
D14*
X130187700Y-79883000D03*
X137807700Y-87503000D03*
X132727700Y-79883000D03*
X135267700Y-87503000D03*
X135267700Y-79883000D03*
X132727700Y-87503000D03*
X137807700Y-79883000D03*
D20*
X130187700Y-87503000D03*
D21*
X148460600Y-71043800D03*
X148460600Y-75543800D03*
X141960600Y-71043800D03*
X141960600Y-75543800D03*
D14*
X149275800Y-90805000D03*
D15*
X149275800Y-93345000D03*
D14*
X125450600Y-93040200D03*
D15*
X122910600Y-93040200D03*
D22*
X142519400Y-83896200D03*
G36*
G01*
X150019400Y-82896200D02*
X150019400Y-84896200D01*
G75*
G02*
X149269400Y-85646200I-750000J0D01*
G01*
X147769400Y-85646200D01*
G75*
G02*
X147019400Y-84896200I0J750000D01*
G01*
X147019400Y-82896200D01*
G75*
G02*
X147769400Y-82146200I750000J0D01*
G01*
X149269400Y-82146200D01*
G75*
G02*
X150019400Y-82896200I0J-750000D01*
G01*
G37*
G36*
G01*
X147269400Y-78321200D02*
X147269400Y-80071200D01*
G75*
G02*
X146394400Y-80946200I-875000J0D01*
G01*
X144644400Y-80946200D01*
G75*
G02*
X143769400Y-80071200I0J875000D01*
G01*
X143769400Y-78321200D01*
G75*
G02*
X144644400Y-77446200I875000J0D01*
G01*
X146394400Y-77446200D01*
G75*
G02*
X147269400Y-78321200I0J-875000D01*
G01*
G37*
M02*
